<svg width="220" height="65" viewBox="0 0 220 65" fill="none" xmlns="http://www.w3.org/2000/svg">
<path d="M212.996 9.55137C215.633 9.55137 217.771 7.41322 217.771 4.77569C217.771 2.13815 215.633 0 212.996 0C210.358 0 208.22 2.13815 208.22 4.77569C208.22 7.41322 210.358 9.55137 212.996 9.55137Z" fill="#1A1A1A"/>
<path d="M212.996 8.75544C215.194 8.75544 216.975 6.97365 216.975 4.7757C216.975 2.57775 215.194 0.795959 212.996 0.795959C210.797 0.795959 209.016 2.57775 209.016 4.7757C209.016 6.97365 210.797 8.75544 212.996 8.75544Z" fill="white"/>
<path d="M212.801 2.39062C213.234 2.39062 213.593 2.44286 213.873 2.54733C214.156 2.65179 214.366 2.80958 214.503 3.0207C214.64 3.23181 214.709 3.49843 214.709 3.82053C214.709 4.03817 214.667 4.22861 214.584 4.39184C214.502 4.55508 214.393 4.69327 214.258 4.80645C214.123 4.91962 213.978 5.01213 213.82 5.08394L215.224 7.16351H214.102L212.962 5.33205H212.423V7.16351H211.412V2.39062H212.801ZM212.73 3.21984H212.423V4.50936H212.751C213.085 4.50936 213.324 4.45387 213.468 4.34286C213.613 4.22969 213.687 4.06428 213.687 3.84665C213.687 3.6203 213.609 3.45925 213.451 3.36348C213.297 3.26771 213.056 3.21984 212.73 3.21984Z" fill="#1A1A1A"/>
<path d="M0 20.0579C0 14.9586 4.13376 10.8249 9.233 10.8249H41.3893V43.1404C41.3893 48.2397 37.2556 52.3734 32.1563 52.3734H0V20.0579Z" fill="#8CC63E"/>
<path d="M5.25323 28.8133C5.25323 24.857 8.46046 21.6498 12.4168 21.6498V44.5731C12.4168 48.5294 9.20954 51.7366 5.25323 51.7366V28.8133Z" fill="white"/>
<path d="M17.1925 25.3111C17.1925 21.3548 20.3997 18.1476 24.356 18.1476V41.8668C24.356 45.8232 21.1488 49.0304 17.1925 49.0304V25.3111Z" fill="white"/>
<path d="M28.9725 21.6498C28.9725 17.6935 32.1797 14.4863 36.1361 14.4863V38.2055C36.1361 42.1619 32.9289 45.369 28.9725 45.369V21.6498Z" fill="white"/>
<path d="M18.3068 45.2099C18.3068 40.1105 22.4405 35.9769 27.5398 35.9769H41.3893V43.1404C41.3893 48.2397 37.2556 52.3734 32.1563 52.3734H18.3068V45.2099Z" fill="#1A1A1A"/>
<path d="M41.3893 10.9045C31.9928 33.8717 9.88123 48.1731 0 52.453L31.7211 52.3732L41.3893 40.2516V10.9045Z" fill="#1A1A1A"/>
<path d="M217.771 40.4341H57.4674V41.7077H217.771V40.4341Z" fill="#8CC63E"/>
<path d="M57.1666 29.7685V12.7193H61.1122V26.5535H69.6612V29.7685H57.1666ZM71.6216 29.7685V16.6649H75.4212V29.7685H71.6216ZM73.5214 14.8382C72.8232 14.8382 72.2549 14.6353 71.8165 14.2293C71.3781 13.8234 71.1589 13.32 71.1589 12.7193C71.1589 12.1185 71.3781 11.6151 71.8165 11.2092C72.2549 10.8032 72.8232 10.6003 73.5214 10.6003C74.2196 10.6003 74.7879 10.7951 75.2263 11.1848C75.6647 11.5583 75.8839 12.0454 75.8839 12.6462C75.8839 13.2794 75.6647 13.8072 75.2263 14.2293C74.8041 14.6353 74.2358 14.8382 73.5214 14.8382ZM82.5035 29.7685L76.999 16.6649H80.9204L85.4993 27.9418H83.5508L88.3002 16.6649H91.9536L86.4248 29.7685H82.5035ZM99.6503 29.9633C98.1564 29.9633 96.8412 29.671 95.7046 29.0865C94.5842 28.5019 93.7155 27.7063 93.0985 26.6996C92.4815 25.6766 92.173 24.5157 92.173 23.2167C92.173 21.9015 92.4734 20.7405 93.0742 19.7338C93.6912 18.7108 94.5274 17.9152 95.5828 17.3469C96.6383 16.7624 97.8317 16.4701 99.1632 16.4701C100.446 16.4701 101.599 16.7461 102.622 17.2982C103.661 17.834 104.481 18.6134 105.082 19.6364C105.682 20.6431 105.983 21.8528 105.983 23.2654C105.983 23.4115 105.975 23.582 105.958 23.7769C105.942 23.9555 105.926 24.126 105.91 24.2884H95.2662V22.072H103.913L102.451 22.7296C102.451 22.0476 102.313 21.4549 102.037 20.9516C101.761 20.4482 101.38 20.0585 100.892 19.7825C100.405 19.4902 99.837 19.3441 99.1875 19.3441C98.538 19.3441 97.9616 19.4902 97.4583 19.7825C96.9711 20.0585 96.5895 20.4563 96.3135 20.9759C96.0375 21.4793 95.8995 22.0801 95.8995 22.7783V23.3628C95.8995 24.0773 96.0537 24.7105 96.3622 25.2626C96.687 25.7984 97.1335 26.2125 97.7018 26.5048C98.2863 26.7808 98.9683 26.9188 99.7477 26.9188C100.446 26.9188 101.055 26.8133 101.574 26.6022C102.11 26.3911 102.597 26.0745 103.036 25.6523L105.057 27.8443C104.457 28.5263 103.702 29.054 102.792 29.4275C101.883 29.7847 100.836 29.9633 99.6503 29.9633Z" fill="#1A1A1A"/>
<path d="M119.21 25.8715L118.991 21.3169L127.15 12.7193H131.534L124.178 20.635L121.986 22.9731L119.21 25.8715ZM115.678 29.7685V12.7193H119.599V29.7685H115.678ZM127.345 29.7685L121.28 22.3399L123.862 19.5389L131.948 29.7685H127.345ZM139.395 29.9633C137.901 29.9633 136.586 29.671 135.45 29.0865C134.329 28.5019 133.461 27.7063 132.844 26.6996C132.226 25.6766 131.918 24.5157 131.918 23.2167C131.918 21.9015 132.218 20.7405 132.819 19.7338C133.436 18.7108 134.272 17.9152 135.328 17.3469C136.383 16.7624 137.577 16.4701 138.908 16.4701C140.191 16.4701 141.344 16.7461 142.367 17.2982C143.406 17.834 144.226 18.6134 144.827 19.6364C145.427 20.6431 145.728 21.8528 145.728 23.2654C145.728 23.4115 145.72 23.582 145.703 23.7769C145.687 23.9555 145.671 24.126 145.655 24.2884H135.011V22.072H143.658L142.196 22.7296C142.196 22.0476 142.058 21.4549 141.782 20.9516C141.506 20.4482 141.125 20.0585 140.637 19.7825C140.15 19.4902 139.582 19.3441 138.933 19.3441C138.283 19.3441 137.707 19.4902 137.203 19.7825C136.716 20.0585 136.335 20.4563 136.059 20.9759C135.782 21.4793 135.644 22.0801 135.644 22.7783V23.3628C135.644 24.0773 135.799 24.7105 136.107 25.2626C136.432 25.7984 136.878 26.2125 137.447 26.5048C138.031 26.7808 138.713 26.9188 139.493 26.9188C140.191 26.9188 140.8 26.8133 141.319 26.6022C141.855 26.3911 142.342 26.0745 142.781 25.6523L144.802 27.8443C144.202 28.5263 143.446 29.054 142.537 29.4275C141.628 29.7847 140.581 29.9633 139.395 29.9633ZM154.761 29.9633C153.267 29.9633 151.952 29.671 150.815 29.0865C149.695 28.5019 148.826 27.7063 148.209 26.6996C147.592 25.6766 147.283 24.5157 147.283 23.2167C147.283 21.9015 147.584 20.7405 148.184 19.7338C148.801 18.7108 149.638 17.9152 150.693 17.3469C151.749 16.7624 152.942 16.4701 154.273 16.4701C155.556 16.4701 156.709 16.7461 157.732 17.2982C158.771 17.834 159.591 18.6134 160.192 19.6364C160.793 20.6431 161.093 21.8528 161.093 23.2654C161.093 23.4115 161.085 23.582 161.068 23.7769C161.052 23.9555 161.036 24.126 161.02 24.2884H150.376V22.072H159.023L157.562 22.7296C157.562 22.0476 157.423 21.4549 157.147 20.9516C156.871 20.4482 156.49 20.0585 156.003 19.7825C155.516 19.4902 154.947 19.3441 154.298 19.3441C153.648 19.3441 153.072 19.4902 152.569 19.7825C152.081 20.0585 151.7 20.4563 151.424 20.9759C151.148 21.4793 151.01 22.0801 151.01 22.7783V23.3628C151.01 24.0773 151.164 24.7105 151.473 25.2626C151.797 25.7984 152.244 26.2125 152.812 26.5048C153.397 26.7808 154.079 26.9188 154.858 26.9188C155.556 26.9188 156.165 26.8133 156.685 26.6022C157.221 26.3911 157.708 26.0745 158.146 25.6523L160.167 27.8443C159.567 28.5263 158.812 29.054 157.902 29.4275C156.993 29.7847 155.946 29.9633 154.761 29.9633ZM171.368 29.9633C170.264 29.9633 169.298 29.7197 168.47 29.2326C167.641 28.7455 166.991 28.0067 166.522 27.0162C166.067 26.0095 165.839 24.743 165.839 23.2167C165.839 21.6741 166.059 20.4076 166.496 19.4172C166.936 18.4267 167.568 17.6879 168.397 17.2008C169.225 16.7136 170.215 16.4701 171.368 16.4701C172.601 16.4701 173.706 16.7542 174.68 17.3225C175.67 17.8746 176.45 18.654 177.019 19.6607C177.603 20.6674 177.896 21.8528 177.896 23.2167C177.896 24.5969 177.603 25.7903 177.019 26.797C176.45 27.8037 175.67 28.5831 174.68 29.1352C173.706 29.6873 172.601 29.9633 171.368 29.9633ZM163.623 34.4935V16.6649H167.253V19.3441L167.179 23.241L167.423 27.1137V34.4935H163.623ZM170.71 26.8457C171.344 26.8457 171.904 26.6996 172.391 26.4073C172.894 26.1151 173.292 25.701 173.585 25.1652C173.892 24.6131 174.047 23.9636 174.047 23.2167C174.047 22.4535 173.892 21.804 173.585 21.2682C173.292 20.7324 172.894 20.3183 172.391 20.0261C171.904 19.7338 171.344 19.5876 170.71 19.5876C170.077 19.5876 169.508 19.7338 169.005 20.0261C168.502 20.3183 168.104 20.7324 167.811 21.2682C167.52 21.804 167.373 22.4535 167.373 23.2167C167.373 23.9636 167.52 24.6131 167.811 25.1652C168.104 25.701 168.502 26.1151 169.005 26.4073C169.508 26.6996 170.077 26.8457 170.71 26.8457ZM180.438 29.7685V16.6649H184.238V29.7685H180.438ZM182.339 14.8382C181.64 14.8382 181.072 14.6353 180.634 14.2293C180.195 13.8234 179.977 13.32 179.977 12.7193C179.977 12.1185 180.195 11.6151 180.634 11.2092C181.072 10.8032 181.64 10.6003 182.339 10.6003C183.036 10.6003 183.604 10.7951 184.044 11.1848C184.482 11.5583 184.701 12.0454 184.701 12.6462C184.701 13.2794 184.482 13.8072 184.044 14.2293C183.622 14.6353 183.054 14.8382 182.339 14.8382ZM195.728 16.4701C196.768 16.4701 197.694 16.6812 198.506 17.1033C199.334 17.5093 199.983 18.1425 200.455 19.0031C200.924 19.8474 201.16 20.9353 201.16 22.2668V29.7685H197.362V22.8514C197.362 21.7959 197.126 21.0165 196.655 20.5132C196.2 20.0098 195.55 19.7581 194.706 19.7581C194.105 19.7581 193.562 19.888 193.075 20.1478C192.603 20.3914 192.229 20.773 191.954 21.2926C191.694 21.8122 191.564 22.4779 191.564 23.2898V29.7685H187.764V16.6649H191.394V20.294L190.712 19.198C191.182 18.3211 191.857 17.6473 192.734 17.1764C193.61 16.7055 194.609 16.4701 195.728 16.4701ZM210.862 34.6884C209.627 34.6884 208.435 34.5341 207.281 34.2256C206.144 33.9333 205.195 33.4868 204.431 32.886L205.942 30.1582C206.494 30.6128 207.192 30.97 208.037 31.2298C208.896 31.5059 209.742 31.6439 210.57 31.6439C211.918 31.6439 212.892 31.3435 213.492 30.7427C214.11 30.1419 214.417 29.2489 214.417 28.0635V26.0907L214.661 22.8026L214.613 19.4902V16.6649H218.217V27.5764C218.217 30.012 217.583 31.8062 216.318 32.9591C215.051 34.1119 213.233 34.6884 210.862 34.6884ZM210.277 29.1352C209.059 29.1352 207.956 28.8754 206.966 28.3558C205.991 27.82 205.203 27.0812 204.602 26.1394C204.017 25.1814 203.726 24.0692 203.726 22.8026C203.726 21.5199 204.017 20.4076 204.602 19.4659C205.203 18.5079 205.991 17.7691 206.966 17.2495C207.956 16.7299 209.059 16.4701 210.277 16.4701C211.381 16.4701 212.356 16.6974 213.199 17.152C214.045 17.5905 214.702 18.2805 215.173 19.2223C215.643 20.1478 215.879 21.3413 215.879 22.8026C215.879 24.2478 215.643 25.4412 215.173 26.383C214.702 27.3085 214.045 27.9986 213.199 28.4532C212.356 28.9079 211.381 29.1352 210.277 29.1352ZM211.033 26.0176C211.698 26.0176 212.29 25.8877 212.811 25.6279C213.33 25.3519 213.736 24.9703 214.029 24.4832C214.32 23.9961 214.467 23.4359 214.467 22.8026C214.467 22.1531 214.32 21.593 214.029 21.1221C213.736 20.635 213.33 20.2615 212.811 20.0017C212.29 19.7257 211.698 19.5876 211.033 19.5876C210.366 19.5876 209.774 19.7257 209.255 20.0017C208.734 20.2615 208.32 20.635 208.011 21.1221C207.72 21.593 207.574 22.1531 207.574 22.8026C207.574 23.4359 207.72 23.9961 208.011 24.4832C208.32 24.9703 208.734 25.3519 209.255 25.6279C209.774 25.8877 210.366 26.0176 211.033 26.0176Z" fill="#8CC63E"/>
<path d="M135.915 54.8185C136.416 54.9119 136.828 55.1623 137.15 55.5699C137.473 55.9774 137.634 56.4443 137.634 56.9707C137.634 57.4462 137.515 57.8665 137.278 58.2315C137.049 58.5881 136.713 58.8683 136.272 59.072C135.83 59.2758 135.308 59.3777 134.705 59.3777H130.872V50.4885H134.54C135.142 50.4885 135.66 50.5861 136.093 50.7814C136.535 50.9768 136.866 51.2483 137.087 51.5965C137.316 51.9446 137.431 52.3394 137.431 52.7809C137.431 53.2987 137.29 53.7317 137.01 54.0799C136.739 54.428 136.374 54.6741 135.915 54.8185ZM132.655 54.1563H134.285C134.709 54.1563 135.036 54.0628 135.266 53.8761C135.495 53.6808 135.609 53.4049 135.609 53.0483C135.609 52.6917 135.495 52.4158 135.266 52.2205C135.036 52.0252 134.709 51.9276 134.285 51.9276H132.655V54.1563ZM134.451 57.9259C134.884 57.9259 135.219 57.824 135.457 57.6202C135.703 57.4165 135.826 57.1279 135.826 56.7542C135.826 56.3722 135.699 56.075 135.444 55.8628C135.189 55.642 134.845 55.5317 134.412 55.5317H132.655V57.9259H134.451ZM145.805 52.3224L141.437 62.7143H139.539L141.067 59.1994L138.24 52.3224H140.24L142.061 57.2509L143.907 52.3224H145.805ZM151.583 50.4885V59.3777H149.801V50.4885H151.583ZM157.255 52.2205C158.095 52.2205 158.774 52.488 159.293 53.0228C159.81 53.5493 160.07 54.2879 160.07 55.2388V59.3777H158.286V55.4807C158.286 54.9204 158.146 54.4917 157.866 54.1945C157.586 53.8888 157.204 53.736 156.72 53.736C156.227 53.736 155.837 53.8888 155.548 54.1945C155.268 54.4917 155.128 54.9204 155.128 55.4807V59.3777H153.345V52.3224H155.128V53.2011C155.366 52.8955 155.667 52.6578 156.032 52.488C156.406 52.3097 156.813 52.2205 157.255 52.2205ZM161.307 55.8246C161.307 55.1114 161.447 54.4789 161.727 53.927C162.015 53.3751 162.405 52.9507 162.899 52.6535C163.391 52.3563 163.938 52.2078 164.541 52.2078C165 52.2078 165.436 52.3097 165.853 52.5134C166.269 52.7088 166.6 52.9719 166.847 53.303V49.9537H168.655V59.3777H166.847V58.3334C166.625 58.6815 166.315 58.9617 165.917 59.1739C165.517 59.3861 165.054 59.4923 164.529 59.4923C163.933 59.4923 163.391 59.3395 162.899 59.0338C162.405 58.7282 162.015 58.2995 161.727 57.7476C161.447 57.1872 161.307 56.5462 161.307 55.8246ZM166.859 55.85C166.859 55.417 166.773 55.0477 166.605 54.7421C166.434 54.428 166.205 54.1902 165.917 54.0289C165.627 53.8591 165.318 53.7742 164.987 53.7742C164.656 53.7742 164.35 53.8549 164.07 54.0162C163.79 54.1774 163.561 54.4153 163.383 54.7293C163.212 55.035 163.128 55.4 163.128 55.8246C163.128 56.2491 163.212 56.6226 163.383 56.9453C163.561 57.2593 163.79 57.5013 164.07 57.6712C164.358 57.841 164.664 57.9259 164.987 57.9259C165.318 57.9259 165.627 57.8452 165.917 57.6839C166.205 57.514 166.434 57.2764 166.605 56.9707C166.773 56.6567 166.859 56.283 166.859 55.85ZM171.301 51.4819C170.985 51.4819 170.723 51.3843 170.511 51.189C170.307 50.9852 170.205 50.7348 170.205 50.4376C170.205 50.1404 170.307 49.8943 170.511 49.699C170.723 49.4952 170.985 49.3933 171.301 49.3933C171.614 49.3933 171.874 49.4952 172.078 49.699C172.289 49.8943 172.396 50.1404 172.396 50.4376C172.396 50.7348 172.289 50.9852 172.078 51.189C171.874 51.3843 171.614 51.4819 171.301 51.4819ZM172.179 52.3224V59.3777H170.396V52.3224H172.179ZM173.482 55.8246C173.482 55.1114 173.622 54.4789 173.902 53.927C174.19 53.3751 174.577 52.9507 175.061 52.6535C175.553 52.3563 176.1 52.2078 176.704 52.2078C177.231 52.2078 177.689 52.314 178.079 52.5262C178.479 52.7384 178.797 53.0058 179.034 53.3285V52.3224H180.83V59.3777H179.034V58.3461C178.805 58.6772 178.487 58.9531 178.079 59.1739C177.679 59.3861 177.218 59.4923 176.691 59.4923C176.097 59.4923 175.553 59.3395 175.061 59.0338C174.577 58.7282 174.19 58.2995 173.902 57.7476C173.622 57.1872 173.482 56.5462 173.482 55.8246ZM179.034 55.85C179.034 55.417 178.95 55.0477 178.779 54.7421C178.609 54.428 178.38 54.1902 178.092 54.0289C177.804 53.8591 177.493 53.7742 177.162 53.7742C176.831 53.7742 176.525 53.8549 176.245 54.0162C175.965 54.1774 175.736 54.4153 175.557 54.7293C175.387 55.035 175.303 55.4 175.303 55.8246C175.303 56.2491 175.387 56.6226 175.557 56.9453C175.736 57.2593 175.965 57.5013 176.245 57.6712C176.533 57.841 176.839 57.9259 177.162 57.9259C177.493 57.9259 177.804 57.8452 178.092 57.6839C178.38 57.514 178.609 57.2764 178.779 56.9707C178.95 56.6567 179.034 56.283 179.034 55.85ZM192.263 50.4885V59.3777H190.48V53.5959L188.098 59.3777H186.748L184.354 53.5959V59.3777H182.571V50.4885H184.596L187.423 57.0981L190.251 50.4885H192.263ZM199.476 57.6839H195.935L195.349 59.3777H193.477L196.674 50.4758H198.75L201.946 59.3777H200.061L199.476 57.6839ZM198.992 56.2576L197.705 52.5389L196.419 56.2576H198.992ZM207.726 59.3777L205.765 55.9137H204.925V59.3777H203.142V50.4885H206.478C207.166 50.4885 207.752 50.6116 208.236 50.8579C208.72 51.0955 209.08 51.4225 209.318 51.8385C209.563 52.246 209.688 52.7045 209.688 53.2139C209.688 53.7997 209.517 54.3303 209.178 54.8058C208.838 55.2727 208.333 55.5953 207.663 55.7736L209.79 59.3777H207.726ZM204.925 54.5765H206.415C206.899 54.5765 207.258 54.4619 207.497 54.2327C207.734 53.995 207.854 53.668 207.854 53.2521C207.854 52.8445 207.734 52.5305 207.497 52.3097C207.258 52.0804 206.899 51.9658 206.415 51.9658H204.925V54.5765ZM217.349 50.4885V51.9276H214.981V59.3777H213.198V51.9276H210.829V50.4885H217.349Z" fill="#1A1A1A"/>
</svg>
