<svg width="550" height="575" fill="none" xmlns="http://www.w3.org/2000/svg"><path d="M181.954 31.072c.143 0 .215-.072.215-.216 0-.144-.072-.215-.215-.215-.144 0-.216.072-.216.215 0 .144.072.216.216.216ZM212.062 31.282a.46.46 0 0 0 .427-.428.46.46 0 0 0-.427-.427.459.459 0 0 0-.427.427c0 .214.213.428.427.428ZM242.386 31.495c.213 0 .64-.213.64-.64 0-.428-.427-.641-.64-.641-.428 0-.855.213-.855.64 0 .428.427.641.855.641ZM272.501 31.495c.427 0 .641-.214.641-.64 0-.428-.214-.855-.641-.855-.427 0-.855.427-.855.854s.428.641.855.641ZM302.613 31.495c.428 0 .641-.213.641-.64 0-.428-.213-.641-.641-.641-.213 0-.64.213-.64.64 0 .428.427.641.64.641ZM332.938 31.282a.46.46 0 0 0 .427-.428.46.46 0 0 0-.427-.427c-.428 0-.641.214-.641.427 0 .214.213.428.641.428ZM363.051 31.072c.144 0 .216-.072.216-.216 0-.144-.072-.215-.216-.215-.143 0-.215.072-.215.215 0 .144.072.216.215.216ZM121.516 61.184c.144 0 .216-.072.216-.216 0-.144-.072-.216-.216-.216-.143 0-.215.072-.215.216 0 .144.072.215.215.215ZM151.841 61.82c.427 0 .64-.427.64-.854s-.213-.64-.64-.64c-.428 0-.855.213-.855.64 0 .427.427.854.855.854ZM181.95 62.461c.854 0 1.495-.64 1.495-1.495 0-.64-.641-1.281-1.495-1.281-.854 0-1.495.64-1.495 1.281 0 .855.641 1.495 1.495 1.495ZM212.062 62.888a1.914 1.914 0 0 0 1.922-1.922c0-1.068-.854-1.709-1.922-1.709s-1.708.641-1.708 1.709.64 1.922 1.708 1.922ZM242.388 63.102c1.068 0 1.922-.854 1.922-2.136 0-1.068-.854-2.136-1.922-2.136-1.282 0-2.136 1.068-2.136 2.136 0 1.282.854 2.136 2.136 2.136ZM272.499 63.102c1.281 0 2.136-.854 2.136-2.136 0-1.068-.855-2.135-2.136-2.135-1.281 0-2.136 1.067-2.136 2.135 0 1.282.855 2.136 2.136 2.136ZM302.612 63.102c1.282 0 2.136-.854 2.136-2.136 0-1.068-.854-2.136-2.136-2.136-1.068 0-2.135 1.068-2.135 2.136 0 1.282 1.067 2.136 2.135 2.136ZM332.934 62.888c.854 0 1.708-.854 1.708-1.922s-.854-1.708-1.708-1.708c-1.068 0-1.922.64-1.922 1.708s.854 1.922 1.922 1.922ZM363.048 62.462c.854 0 1.495-.641 1.495-1.495 0-.641-.641-1.282-1.495-1.282-.855 0-1.495.64-1.495 1.282 0 .854.64 1.495 1.495 1.495ZM393.161 61.82c.427 0 .854-.427.854-.854s-.427-.854-.854-.854-.854.427-.854.854.427.854.854.854ZM423.486 61.18c.142 0 .213-.072.213-.214 0-.142-.071-.214-.213-.214-.143 0-.285.072-.427.214.142.142.284.214.427.214ZM91.4 91.718a.46.46 0 0 0 .427-.427.46.46 0 0 0-.427-.427.46.46 0 0 0-.427.427.46.46 0 0 0 .427.427ZM121.514 92.36c.641 0 1.281-.428 1.281-1.068 0-.855-.64-1.282-1.281-1.282-.641 0-1.282.427-1.282 1.282 0 .64.641 1.068 1.282 1.068ZM151.839 93.213a1.914 1.914 0 0 0 1.922-1.922c0-1.281-.854-2.135-1.922-2.135-1.282 0-2.136.854-2.136 2.135 0 1.068.854 1.922 2.136 1.922ZM181.952 94.068c1.495 0 2.777-1.281 2.777-2.776 0-1.709-1.282-2.777-2.777-2.777s-2.776 1.068-2.776 2.777c0 1.495 1.281 2.776 2.776 2.776ZM212.061 94.495c1.922 0 3.417-1.495 3.417-3.203 0-1.922-1.495-3.418-3.417-3.418-1.709 0-3.204 1.496-3.204 3.418 0 1.708 1.495 3.203 3.204 3.203ZM242.387 94.709c1.922 0 3.417-1.495 3.417-3.417 0-2.136-1.495-3.631-3.417-3.631-2.136 0-3.631 1.495-3.631 3.63 0 1.923 1.495 3.418 3.631 3.418ZM272.502 94.923c1.922 0 3.631-1.709 3.631-3.631 0-2.136-1.709-3.844-3.631-3.844-2.136 0-3.631 1.708-3.631 3.844 0 1.922 1.495 3.63 3.631 3.63ZM302.613 94.709c2.136 0 3.631-1.495 3.631-3.417 0-2.136-1.495-3.631-3.631-3.631-1.922 0-3.631 1.495-3.631 3.63 0 1.923 1.709 3.418 3.631 3.418ZM332.935 94.495c1.708 0 3.203-1.495 3.203-3.203 0-1.922-1.495-3.418-3.203-3.418-1.922 0-3.417 1.496-3.417 3.418 0 1.708 1.495 3.203 3.417 3.203ZM363.05 94.068c1.495 0 2.776-1.281 2.776-2.776 0-1.709-1.281-2.777-2.776-2.777-1.495 0-2.777 1.068-2.777 2.777 0 1.495 1.282 2.776 2.777 2.776ZM393.161 93.427c1.282 0 2.136-1.068 2.136-2.136 0-1.281-.854-2.349-2.136-2.349-1.068 0-2.136 1.068-2.136 2.35 0 1.067 1.068 2.135 2.136 2.135ZM423.487 92.573c.641 0 1.282-.64 1.282-1.281 0-.855-.641-1.495-1.282-1.495-.854 0-1.495.64-1.495 1.495 0 .64.641 1.281 1.495 1.281ZM453.599 91.718a.459.459 0 0 0 .427-.427c0-.427-.213-.64-.427-.64s-.427.213-.427.64c0 .214.213.427.427.427ZM61.294 121.83c.214 0 .214-.213.214-.427s0-.427-.214-.427c-.427 0-.427.213-.427.427s0 .427.427.427ZM91.401 122.898c.855 0 1.495-.64 1.495-1.495 0-.854-.64-1.495-1.495-1.495-.854 0-1.495.641-1.495 1.495 0 .855.641 1.495 1.495 1.495ZM121.513 123.753c1.282 0 2.563-1.068 2.563-2.35 0-1.281-1.281-2.349-2.563-2.349a2.37 2.37 0 0 0-2.349 2.349 2.37 2.37 0 0 0 2.349 2.35ZM151.839 124.821c1.709 0 3.204-1.496 3.204-3.418 0-1.922-1.495-3.417-3.204-3.417-1.922 0-3.417 1.495-3.417 3.417 0 1.922 1.495 3.418 3.417 3.418ZM181.951 125.461c2.135 0 4.057-1.709 4.057-4.058 0-2.349-1.922-4.058-4.057-4.058-2.35 0-4.058 1.709-4.058 4.058 0 2.349 1.708 4.058 4.058 4.058ZM212.062 126.102c2.563 0 4.699-2.136 4.699-4.699 0-2.562-2.136-4.698-4.699-4.698-2.563 0-4.699 2.136-4.699 4.698 0 2.563 2.136 4.699 4.699 4.699ZM242.389 126.316c2.777 0 4.913-2.136 4.913-4.912 0-2.777-2.136-5.126-4.913-5.126-2.776 0-5.125 2.349-5.125 5.126 0 2.776 2.349 4.912 5.125 4.912ZM272.505 126.529c2.776 0 5.126-2.349 5.126-5.126 0-2.776-2.35-5.126-5.126-5.126-2.99 0-5.126 2.35-5.126 5.126 0 2.777 2.136 5.126 5.126 5.126ZM302.613 126.316c2.777 0 5.126-2.136 5.126-4.912 0-2.777-2.349-5.126-5.126-5.126-2.776 0-4.912 2.349-4.912 5.126 0 2.776 2.136 4.912 4.912 4.912ZM332.937 126.102c2.563 0 4.699-2.136 4.699-4.699 0-2.562-2.136-4.698-4.699-4.698-2.777 0-4.699 2.136-4.699 4.698 0 2.563 1.922 4.699 4.699 4.699ZM363.048 125.461c2.35 0 4.058-1.708 4.058-4.058 0-2.349-1.708-4.058-4.058-4.058-2.349 0-4.058 1.709-4.058 4.058 0 2.35 1.709 4.058 4.058 4.058ZM393.159 124.821c1.923 0 3.418-1.496 3.418-3.418 0-1.922-1.495-3.417-3.418-3.417-1.922 0-3.417 1.495-3.417 3.417 0 1.922 1.495 3.418 3.417 3.418ZM423.485 123.966c1.282 0 2.563-1.068 2.563-2.563s-1.281-2.563-2.563-2.563c-1.495 0-2.776 1.068-2.776 2.563s1.281 2.563 2.776 2.563ZM453.6 122.898c.855 0 1.496-.641 1.496-1.495 0-.854-.641-1.708-1.496-1.708-.854 0-1.495.854-1.495 1.708s.641 1.495 1.495 1.495ZM483.708 121.83c.428 0 .641-.213.641-.427s-.213-.427-.641-.427a.46.46 0 0 0-.427.427.46.46 0 0 0 .427.427ZM30.968 151.733c.144 0 .216-.072.216-.216 0-.144-.072-.215-.216-.215-.143 0-.215.071-.215.215 0 .144.072.216.215.216ZM61.291 152.796c.64 0 1.068-.427 1.068-1.281 0-.641-.427-1.282-1.068-1.282-.854 0-1.281.641-1.281 1.282 0 .854.427 1.281 1.281 1.281ZM91.4 154.078c1.282 0 2.35-1.068 2.35-2.563a2.37 2.37 0 0 0-2.35-2.349 2.37 2.37 0 0 0-2.35 2.349c0 1.495 1.069 2.563 2.35 2.563ZM121.515 155.146c1.922 0 3.631-1.709 3.631-3.631 0-1.922-1.709-3.417-3.631-3.417-1.922 0-3.417 1.495-3.417 3.417 0 1.922 1.495 3.631 3.417 3.631ZM151.843 156c2.35 0 4.485-1.922 4.485-4.485 0-2.349-2.135-4.485-4.485-4.485-2.563 0-4.698 2.136-4.698 4.485 0 2.563 2.135 4.485 4.698 4.485ZM181.953 156.855c2.99 0 5.339-2.35 5.339-5.34 0-2.99-2.349-5.339-5.339-5.339s-5.34 2.349-5.34 5.339 2.35 5.34 5.34 5.34ZM212.062 157.496c3.417 0 5.98-2.563 5.98-5.98 0-3.204-2.563-5.981-5.98-5.981-3.203 0-5.98 2.777-5.98 5.981 0 3.417 2.777 5.98 5.98 5.98ZM242.39 157.922c3.417 0 6.407-2.776 6.407-6.407 0-3.417-2.99-6.407-6.407-6.407-3.631 0-6.62 2.99-6.62 6.407 0 3.631 2.989 6.407 6.62 6.407ZM272.499 158.135c3.631 0 6.621-2.99 6.621-6.62 0-3.631-2.99-6.621-6.621-6.621-3.63 0-6.62 2.99-6.62 6.621 0 3.63 2.99 6.62 6.62 6.62ZM302.61 157.922c3.63 0 6.407-2.777 6.407-6.407 0-3.417-2.777-6.407-6.407-6.407-3.417 0-6.407 2.99-6.407 6.407 0 3.63 2.99 6.407 6.407 6.407ZM332.936 157.709c3.204 0 5.98-2.777 5.98-6.194s-2.776-5.98-5.98-5.98c-3.417 0-6.194 2.563-6.194 5.98a6.199 6.199 0 0 0 6.194 6.194ZM363.051 157.068c2.99 0 5.339-2.563 5.339-5.553 0-2.99-2.349-5.339-5.339-5.339s-5.553 2.349-5.553 5.339 2.563 5.553 5.553 5.553ZM393.161 156.214c2.563 0 4.699-2.136 4.699-4.699 0-2.563-2.136-4.485-4.699-4.485-2.563 0-4.485 1.922-4.485 4.485 0 2.563 1.922 4.699 4.485 4.699ZM423.485 155.359c1.922 0 3.631-1.708 3.631-3.844 0-1.922-1.709-3.631-3.631-3.631-2.136 0-3.844 1.709-3.844 3.631a3.827 3.827 0 0 0 3.844 3.844ZM453.596 154.078c1.495 0 2.563-1.068 2.563-2.563 0-1.281-1.068-2.563-2.563-2.563s-2.563 1.282-2.563 2.563c0 1.495 1.068 2.563 2.563 2.563ZM483.709 153.01c.855 0 1.495-.641 1.495-1.495 0-.641-.64-1.282-1.495-1.282-.641 0-1.281.641-1.281 1.282 0 .854.64 1.495 1.281 1.495ZM514.035 151.942c.213 0 .213-.213.213-.427 0-.213 0-.213-.213-.213-.214 0-.428 0-.428.213 0 .214.214.427.428.427ZM30.966 182.481c.427 0 .854-.213.854-.641 0-.427-.427-.854-.854-.854s-.64.427-.64.854c0 .428.213.641.64.641ZM61.29 183.763a1.915 1.915 0 0 0 1.922-1.923c0-1.281-.854-2.135-1.922-2.135-1.281 0-2.136.854-2.136 2.135 0 1.068.855 1.923 2.136 1.923ZM91.402 185.044c1.922 0 3.417-1.495 3.417-3.204 0-1.922-1.495-3.417-3.417-3.417-1.923 0-3.418 1.495-3.418 3.417 0 1.709 1.495 3.204 3.418 3.204ZM121.516 186.326c2.563 0 4.485-2.136 4.485-4.485 0-2.563-1.922-4.699-4.485-4.699-2.349 0-4.485 2.136-4.485 4.699 0 2.349 2.136 4.485 4.485 4.485ZM151.843 187.393c2.99 0 5.553-2.562 5.553-5.552 0-3.204-2.563-5.767-5.553-5.767a5.743 5.743 0 0 0-5.767 5.767c0 2.99 2.563 5.552 5.767 5.552ZM181.948 188.461c3.631 0 6.621-2.99 6.621-6.621 0-3.63-2.99-6.62-6.621-6.62-3.63 0-6.62 2.99-6.62 6.62 0 3.631 2.99 6.621 6.62 6.621ZM212.062 189.101c4.057 0 7.474-3.203 7.474-7.261 0-4.057-3.417-7.474-7.474-7.474-4.058 0-7.261 3.417-7.261 7.474 0 4.058 3.203 7.261 7.261 7.261ZM242.39 189.528a7.656 7.656 0 0 0 7.688-7.688c0-4.485-3.417-7.902-7.688-7.902-4.485 0-7.902 3.417-7.902 7.902 0 4.271 3.417 7.688 7.902 7.688ZM272.502 189.955a8.11 8.11 0 0 0 8.115-8.115 8.11 8.11 0 0 0-8.115-8.115 8.11 8.11 0 0 0-8.115 8.115 8.11 8.11 0 0 0 8.115 8.115ZM302.611 189.742c4.484 0 7.901-3.631 7.901-7.902 0-4.485-3.417-8.115-7.901-8.115-4.272 0-7.902 3.63-7.902 8.115 0 4.271 3.63 7.902 7.902 7.902ZM332.939 189.101c4.058 0 7.261-3.203 7.261-7.261 0-4.271-3.203-7.474-7.261-7.474-4.271 0-7.474 3.203-7.474 7.474 0 4.058 3.203 7.261 7.474 7.261ZM363.052 188.46c3.63 0 6.62-2.99 6.62-6.62 0-3.844-2.99-6.834-6.62-6.834-3.631 0-6.62 2.99-6.62 6.834 0 3.63 2.989 6.62 6.62 6.62ZM393.162 187.393c3.204 0 5.767-2.562 5.767-5.552a5.743 5.743 0 0 0-5.767-5.767c-2.99 0-5.553 2.563-5.553 5.767 0 2.99 2.563 5.552 5.553 5.552ZM423.486 186.325c2.563 0 4.485-1.922 4.485-4.485 0-2.563-1.922-4.698-4.485-4.698-2.563 0-4.699 2.135-4.699 4.698 0 2.563 2.136 4.485 4.699 4.485ZM453.597 185.258c1.922 0 3.417-1.709 3.417-3.418 0-1.922-1.495-3.417-3.417-3.417-1.922 0-3.417 1.495-3.417 3.417 0 1.709 1.495 3.418 3.417 3.418ZM483.71 183.976c1.281 0 2.136-1.068 2.136-2.136 0-1.281-.855-2.349-2.136-2.349-1.068 0-2.136 1.068-2.136 2.349 0 1.068 1.068 2.136 2.136 2.136ZM514.035 182.695c.427 0 .854-.427.854-.854 0-.641-.427-1.068-.854-1.068-.641 0-1.068.427-1.068 1.068 0 .427.427.854 1.068.854ZM.856 212.17c.144 0 .216-.072.216-.216 0-.144-.072-.215-.216-.215-.144 0-.215.071-.215.215 0 .144.071.216.215.216ZM30.968 213.447c.854 0 1.495-.641 1.495-1.495 0-.854-.64-1.495-1.495-1.495-.64 0-1.282.641-1.282 1.495 0 .854.641 1.495 1.282 1.495ZM61.288 214.728c1.495 0 2.563-1.281 2.563-2.776 0-1.495-1.068-2.776-2.563-2.776-1.708 0-2.776 1.281-2.776 2.776 0 1.495 1.068 2.776 2.776 2.776ZM91.402 216.01c2.135 0 4.058-1.708 4.058-4.058 0-2.349-1.923-4.058-4.058-4.058-2.35 0-4.058 1.709-4.058 4.058 0 2.35 1.708 4.058 4.058 4.058ZM121.517 217.292c2.99 0 5.34-2.35 5.34-5.34 0-2.99-2.35-5.339-5.34-5.339-2.99 0-5.339 2.349-5.339 5.339s2.349 5.34 5.339 5.34ZM151.839 218.572c3.631 0 6.62-2.989 6.62-6.62 0-3.63-2.989-6.62-6.62-6.62-3.844 0-6.62 2.99-6.62 6.62 0 3.631 2.776 6.62 6.62 6.62ZM181.948 219.64a7.656 7.656 0 0 0 7.688-7.688 7.656 7.656 0 0 0-7.688-7.688 7.656 7.656 0 0 0-7.688 7.688 7.656 7.656 0 0 0 7.688 7.688ZM212.062 220.494c4.912 0 8.756-3.844 8.756-8.542s-3.844-8.542-8.756-8.542c-4.698 0-8.542 3.844-8.542 8.542s3.844 8.542 8.542 8.542ZM242.389 221.135c5.125 0 9.183-4.058 9.183-9.183 0-5.126-4.058-9.397-9.183-9.397-5.126 0-9.397 4.271-9.397 9.397 0 5.125 4.271 9.183 9.397 9.183ZM272.495 221.562a9.57 9.57 0 0 0 9.61-9.61 9.57 9.57 0 0 0-9.61-9.61 9.57 9.57 0 0 0-9.61 9.61 9.57 9.57 0 0 0 9.61 9.61ZM302.609 221.348c5.126 0 9.397-4.271 9.397-9.396 0-5.126-4.271-9.397-9.397-9.397-5.125 0-9.396 4.271-9.396 9.397 0 5.125 4.271 9.396 9.396 9.396ZM332.938 220.708c4.698 0 8.542-4.058 8.542-8.756 0-4.912-3.844-8.756-8.542-8.756-4.912 0-8.756 3.844-8.756 8.756 0 4.698 3.844 8.756 8.756 8.756ZM363.05 219.64a7.656 7.656 0 0 0 7.688-7.688c0-4.271-3.417-7.902-7.688-7.902s-7.902 3.631-7.902 7.902c0 4.271 3.631 7.688 7.902 7.688ZM393.159 218.572c3.844 0 6.834-2.99 6.834-6.62 0-3.631-2.99-6.62-6.834-6.62-3.63 0-6.62 2.989-6.62 6.62 0 3.63 2.99 6.62 6.62 6.62ZM423.489 217.506c2.99 0 5.339-2.563 5.339-5.553 0-2.99-2.349-5.553-5.339-5.553-3.204 0-5.553 2.563-5.553 5.553 0 2.99 2.349 5.553 5.553 5.553ZM453.596 216.224a4.284 4.284 0 0 0 4.271-4.272 4.284 4.284 0 0 0-4.271-4.271 4.284 4.284 0 0 0-4.272 4.271 4.284 4.284 0 0 0 4.272 4.272ZM483.708 214.729c1.709 0 2.99-1.282 2.99-2.777s-1.281-2.776-2.99-2.776c-1.495 0-2.776 1.281-2.776 2.776 0 1.495 1.281 2.777 2.776 2.777ZM514.034 213.447c.854 0 1.495-.641 1.495-1.495 0-.854-.641-1.495-1.495-1.495-.854 0-1.495.641-1.495 1.495 0 .854.641 1.495 1.495 1.495ZM544.151 212.169c.144 0 .216-.072.216-.215 0-.144-.072-.216-.216-.216-.144 0-.215.072-.215.216 0 .143.071.215.215.215ZM.854 242.491a.46.46 0 0 0 .427-.427.459.459 0 0 0-.427-.427.459.459 0 0 0-.427.427.46.46 0 0 0 .427.427ZM30.967 243.986a1.914 1.914 0 0 0 1.923-1.922c0-.854-.855-1.709-1.923-1.709-1.067 0-1.708.855-1.708 1.709 0 1.068.64 1.922 1.708 1.922ZM61.288 245.481c1.709 0 3.204-1.495 3.204-3.418 0-1.708-1.495-3.203-3.204-3.203-1.922 0-3.417 1.495-3.417 3.203 0 1.923 1.495 3.418 3.417 3.418ZM91.402 246.763c2.563 0 4.698-2.136 4.698-4.699 0-2.563-2.135-4.699-4.698-4.699-2.563 0-4.699 2.136-4.699 4.699 0 2.563 2.136 4.699 4.699 4.699ZM121.515 248.258c3.417 0 5.98-2.777 5.98-6.194 0-3.204-2.563-5.98-5.98-5.98-3.203 0-5.98 2.776-5.98 5.98 0 3.417 2.777 6.194 5.98 6.194ZM151.834 249.538c4.058 0 7.261-3.417 7.261-7.474 0-4.058-3.203-7.261-7.261-7.261s-7.475 3.203-7.475 7.261c0 4.057 3.417 7.474 7.475 7.474ZM181.949 250.819c4.698 0 8.542-3.844 8.542-8.756 0-4.698-3.844-8.542-8.542-8.542-4.699 0-8.543 3.844-8.543 8.542 0 4.912 3.844 8.756 8.543 8.756ZM212.064 251.888c5.552 0 9.824-4.272 9.824-9.824 0-5.339-4.272-9.824-9.824-9.824-5.339 0-9.824 4.485-9.824 9.824 0 5.552 4.485 9.824 9.824 9.824ZM242.389 252.741c5.766 0 10.464-4.698 10.464-10.678 0-5.766-4.698-10.464-10.464-10.464-5.98 0-10.678 4.698-10.678 10.464 0 5.98 4.698 10.678 10.678 10.678ZM272.502 253.168c5.979 0 11.105-4.911 11.105-11.105 0-5.979-5.126-10.891-11.105-10.891-6.194 0-11.106 4.912-11.106 10.891 0 6.194 4.912 11.105 11.106 11.105ZM302.612 252.742c5.979 0 10.677-4.698 10.677-10.678 0-5.766-4.698-10.678-10.677-10.678-5.767 0-10.678 4.912-10.678 10.678 0 5.98 4.911 10.678 10.678 10.678ZM332.938 252.101c5.339 0 9.823-4.485 9.823-10.037 0-5.339-4.484-9.824-9.823-9.824-5.553 0-10.038 4.485-10.038 9.824a10.026 10.026 0 0 0 10.038 10.037ZM363.049 250.819c4.912 0 8.756-3.844 8.756-8.756 0-4.698-3.844-8.755-8.756-8.755-4.912 0-8.756 4.057-8.756 8.755 0 4.912 3.844 8.756 8.756 8.756ZM393.16 249.752a7.656 7.656 0 0 0 7.688-7.689c0-4.057-3.417-7.474-7.688-7.474-4.058 0-7.474 3.417-7.474 7.474 0 4.272 3.416 7.689 7.474 7.689ZM423.487 248.258c3.203 0 5.98-2.777 5.98-6.194s-2.777-5.98-5.98-5.98c-3.418 0-6.194 2.563-6.194 5.98a6.198 6.198 0 0 0 6.194 6.194ZM453.599 246.976c2.563 0 4.699-2.136 4.699-4.912 0-2.563-2.136-4.699-4.699-4.699-2.563 0-4.699 2.136-4.699 4.699 0 2.776 2.136 4.912 4.699 4.912ZM483.708 245.481c1.922 0 3.417-1.495 3.417-3.417 0-1.922-1.495-3.417-3.417-3.417-1.922 0-3.417 1.495-3.417 3.417 0 1.922 1.495 3.417 3.417 3.417ZM514.035 243.986a1.915 1.915 0 0 0 1.923-1.922 1.915 1.915 0 0 0-1.923-1.922 1.914 1.914 0 0 0-1.922 1.922c0 1.068.855 1.922 1.922 1.922ZM544.149 242.704c.213 0 .64-.213.64-.64 0-.214-.427-.428-.64-.428-.428 0-.641.214-.641.428 0 .427.213.64.641.64ZM.856 273.03c.427 0 .64-.427.64-.641 0-.427-.213-.854-.64-.854-.428 0-.641.427-.641.854 0 .214.213.641.64.641ZM30.966 274.311c1.281 0 2.136-.854 2.136-1.922 0-1.281-.855-2.136-2.136-2.136-1.068 0-2.136.855-2.136 2.136 0 1.068 1.068 1.922 2.136 1.922ZM61.293 275.807c1.922 0 3.417-1.495 3.417-3.418 0-2.135-1.495-3.63-3.417-3.63-2.136 0-3.63 1.495-3.63 3.63 0 1.923 1.494 3.418 3.63 3.418ZM91.403 277.301c2.777 0 4.912-2.135 4.912-4.912 0-2.776-2.135-5.126-4.912-5.126-2.776 0-5.126 2.35-5.126 5.126 0 2.777 2.35 4.912 5.126 4.912ZM121.516 278.796c3.631 0 6.407-2.99 6.407-6.407 0-3.631-2.776-6.62-6.407-6.62-3.417 0-6.407 2.989-6.407 6.62 0 3.417 2.99 6.407 6.407 6.407ZM151.839 280.077a7.656 7.656 0 0 0 7.688-7.688c0-4.485-3.417-7.902-7.688-7.902-4.485 0-7.901 3.417-7.901 7.902 0 4.271 3.416 7.688 7.901 7.688ZM181.951 281.572c5.126 0 9.183-4.058 9.183-9.183s-4.057-9.397-9.183-9.397c-5.125 0-9.396 4.272-9.396 9.397s4.271 9.183 9.396 9.183ZM212.065 282.853c5.979 0 10.678-4.698 10.678-10.464 0-5.98-4.699-10.678-10.678-10.678-5.766 0-10.678 4.698-10.678 10.678 0 5.766 4.912 10.464 10.678 10.464ZM242.389 284.134c6.407 0 11.746-5.339 11.746-11.745 0-6.621-5.339-11.96-11.746-11.96a11.94 11.94 0 0 0-11.959 11.96c0 6.406 5.339 11.745 11.959 11.745ZM272.5 284.775c6.834 0 12.386-5.552 12.386-12.386 0-7.047-5.552-12.6-12.386-12.6s-12.387 5.553-12.387 12.6c0 6.834 5.553 12.386 12.387 12.386ZM302.613 284.135c6.62 0 11.959-5.339 11.959-11.746a11.94 11.94 0 0 0-11.959-11.959c-6.407 0-11.746 5.339-11.746 11.959 0 6.407 5.339 11.746 11.746 11.746ZM332.938 283.067c5.98 0 10.678-4.699 10.678-10.678 0-5.98-4.698-10.892-10.678-10.892-5.979 0-10.891 4.912-10.891 10.892 0 5.979 4.912 10.678 10.891 10.678ZM363.049 281.786c5.125 0 9.396-4.272 9.396-9.397 0-5.339-4.271-9.61-9.396-9.61-5.339 0-9.397 4.271-9.397 9.61 0 5.125 4.058 9.397 9.397 9.397ZM393.159 280.291c4.485 0 8.116-3.631 8.116-7.902a8.112 8.112 0 0 0-8.116-8.115c-4.484 0-7.901 3.63-7.901 8.115 0 4.271 3.417 7.902 7.901 7.902ZM423.484 279.009c3.63 0 6.62-2.99 6.62-6.62 0-3.631-2.99-6.62-6.62-6.62-3.631 0-6.621 2.989-6.621 6.62 0 3.63 2.99 6.62 6.621 6.62ZM453.595 277.515c2.776 0 5.125-2.349 5.125-5.126 0-2.99-2.349-5.339-5.125-5.339-2.777 0-5.126 2.349-5.126 5.339 0 2.777 2.349 5.126 5.126 5.126ZM483.709 276.02c2.136 0 3.844-1.709 3.844-3.631a3.828 3.828 0 0 0-3.844-3.844c-1.922 0-3.631 1.709-3.631 3.844 0 1.922 1.709 3.631 3.631 3.631ZM514.035 274.525c1.068 0 2.136-1.068 2.136-2.136 0-1.282-1.068-2.349-2.136-2.349a2.369 2.369 0 0 0-2.349 2.349c0 1.068 1.067 2.136 2.349 2.136ZM544.147 273.244c.427 0 .855-.428.855-.855 0-.641-.428-.854-.855-.854s-.854.213-.854.854c0 .427.427.855.854.855ZM.854 303.142c.427 0 .641-.214.641-.641 0-.427-.214-.855-.64-.855-.428 0-.855.428-.855.855s.427.641.854.641ZM30.966 304.637c1.281 0 2.136-.855 2.136-2.136 0-1.281-.855-2.136-2.136-2.136-1.068 0-2.136.855-2.136 2.136 0 1.281 1.068 2.136 2.136 2.136ZM61.292 306.132c1.922 0 3.63-1.709 3.63-3.631 0-2.136-1.708-3.631-3.63-3.631-2.136 0-3.845 1.495-3.845 3.631 0 1.922 1.709 3.631 3.845 3.631ZM91.403 307.627c2.777 0 5.126-2.349 5.126-5.126 0-2.776-2.35-5.126-5.126-5.126-2.99 0-5.126 2.35-5.126 5.126 0 2.777 2.136 5.126 5.126 5.126ZM121.515 309.121c3.63 0 6.62-2.99 6.62-6.621 0-3.63-2.99-6.62-6.62-6.62-3.631 0-6.62 2.99-6.62 6.62 0 3.631 2.989 6.621 6.62 6.621ZM151.836 310.616a8.11 8.11 0 0 0 8.115-8.115 8.11 8.11 0 0 0-8.115-8.115 8.11 8.11 0 0 0-8.115 8.115 8.11 8.11 0 0 0 8.115 8.115ZM181.95 312.111a9.57 9.57 0 0 0 9.61-9.61 9.57 9.57 0 0 0-9.61-9.611 9.57 9.57 0 0 0-9.61 9.611 9.57 9.57 0 0 0 9.61 9.61ZM212.064 313.605c6.193 0 11.105-4.912 11.105-11.105 0-6.193-4.912-11.105-11.105-11.105-5.98 0-11.105 4.912-11.105 11.105 0 6.193 5.125 11.105 11.105 11.105ZM242.385 314.887c6.834 0 12.386-5.552 12.386-12.386s-5.552-12.387-12.386-12.387c-7.047 0-12.6 5.553-12.6 12.387 0 6.834 5.553 12.386 12.6 12.386ZM272.497 315.955c7.475 0 13.454-5.98 13.454-13.454a13.397 13.397 0 0 0-13.454-13.454 13.398 13.398 0 0 0-13.454 13.454c0 7.474 5.98 13.454 13.454 13.454ZM302.612 315.1c7.047 0 12.6-5.766 12.6-12.599 0-7.048-5.553-12.6-12.6-12.6-6.834 0-12.6 5.552-12.6 12.6 0 6.833 5.766 12.599 12.6 12.599ZM332.938 313.606c5.979 0 11.105-4.912 11.105-11.105 0-6.194-5.126-11.105-11.105-11.105-6.193 0-11.319 4.911-11.319 11.105 0 6.193 5.126 11.105 11.319 11.105ZM363.05 312.11a9.57 9.57 0 0 0 9.61-9.61 9.57 9.57 0 0 0-9.61-9.61c-5.339 0-9.823 4.271-9.823 9.61 0 5.339 4.484 9.61 9.823 9.61ZM393.16 310.616c4.485 0 8.329-3.631 8.329-8.116 0-4.484-3.844-8.115-8.329-8.115a8.112 8.112 0 0 0-8.115 8.115 8.112 8.112 0 0 0 8.115 8.116ZM423.482 309.334c3.631 0 6.621-3.203 6.621-6.834 0-3.844-2.99-6.834-6.621-6.834-3.844 0-6.834 2.99-6.834 6.834 0 3.631 2.99 6.834 6.834 6.834ZM453.597 307.841c2.99 0 5.34-2.35 5.34-5.34 0-2.99-2.35-5.339-5.34-5.339-2.99 0-5.339 2.349-5.339 5.339s2.349 5.34 5.339 5.34ZM483.71 306.345a3.828 3.828 0 0 0 3.844-3.844 3.828 3.828 0 0 0-3.844-3.844 3.828 3.828 0 0 0-3.845 3.844 3.828 3.828 0 0 0 3.845 3.844ZM514.035 304.85a2.37 2.37 0 0 0 2.349-2.349 2.37 2.37 0 0 0-2.349-2.35 2.37 2.37 0 0 0-2.349 2.35 2.37 2.37 0 0 0 2.349 2.349ZM544.147 303.355c.427 0 .855-.427.855-.854s-.428-.855-.855-.855-.854.428-.854.855.427.854.854.854ZM.856 333.253c.427 0 .64-.213.64-.64 0-.214-.213-.641-.64-.641-.428 0-.641.427-.641.641 0 .427.213.64.64.64ZM30.966 334.749c1.281 0 2.136-.855 2.136-2.136 0-1.068-.855-1.922-2.136-1.922-1.068 0-2.136.854-2.136 1.922 0 1.281 1.068 2.136 2.136 2.136ZM61.293 336.244c1.922 0 3.417-1.495 3.417-3.631 0-1.922-1.495-3.631-3.417-3.631-2.136 0-3.63 1.709-3.63 3.631 0 2.136 1.494 3.631 3.63 3.631ZM91.403 337.738c2.777 0 4.912-2.349 4.912-5.125 0-2.777-2.135-4.913-4.912-4.913-2.776 0-5.126 2.136-5.126 4.913 0 2.776 2.35 5.125 5.126 5.125ZM121.516 339.019c3.631 0 6.407-2.776 6.407-6.406 0-3.417-2.776-6.407-6.407-6.407-3.417 0-6.407 2.99-6.407 6.407 0 3.63 2.99 6.406 6.407 6.406ZM151.836 340.728c4.271 0 7.902-3.631 7.902-8.115 0-4.272-3.631-7.902-7.902-7.902-4.485 0-8.115 3.63-8.115 7.902a8.112 8.112 0 0 0 8.115 8.115ZM181.951 342.009c5.126 0 9.397-4.058 9.397-9.397 0-5.125-4.271-9.396-9.397-9.396-5.125 0-9.396 4.271-9.396 9.396 0 5.339 4.271 9.397 9.396 9.397ZM212.065 343.29c5.979 0 10.678-4.698 10.678-10.678 0-5.766-4.699-10.677-10.678-10.677-5.766 0-10.678 4.911-10.678 10.677 0 5.98 4.912 10.678 10.678 10.678ZM242.389 344.571c6.407 0 11.746-5.339 11.746-11.959 0-6.407-5.339-11.746-11.746-11.746-6.62 0-11.959 5.339-11.959 11.746a11.94 11.94 0 0 0 11.959 11.959ZM272.5 345.212c6.834 0 12.6-5.553 12.6-12.6 0-6.834-5.766-12.386-12.6-12.386-7.047 0-12.6 5.552-12.6 12.386 0 7.047 5.553 12.6 12.6 12.6ZM302.612 344.785c6.62 0 12.172-5.552 12.172-12.173 0-6.62-5.552-11.959-12.172-11.959a11.94 11.94 0 0 0-11.96 11.959c0 6.621 5.339 12.173 11.96 12.173ZM332.938 343.504c5.98 0 10.678-4.912 10.678-10.891 0-5.98-4.698-10.678-10.678-10.678-5.979 0-10.891 4.698-10.891 10.678 0 5.979 4.912 10.891 10.891 10.891ZM363.049 342.222c5.125 0 9.396-4.271 9.396-9.61 0-5.125-4.271-9.397-9.396-9.397-5.339 0-9.397 4.272-9.397 9.397 0 5.339 4.058 9.61 9.397 9.61ZM393.159 340.728a8.112 8.112 0 0 0 8.116-8.115c0-4.272-3.631-7.902-8.116-7.902-4.484 0-7.901 3.63-7.901 7.902 0 4.484 3.417 8.115 7.901 8.115ZM423.484 339.233c3.63 0 6.62-2.99 6.62-6.62 0-3.631-2.99-6.621-6.62-6.621-3.631 0-6.621 2.99-6.621 6.621 0 3.63 2.99 6.62 6.621 6.62ZM453.595 337.952c2.776 0 5.125-2.349 5.125-5.339 0-2.777-2.349-5.126-5.125-5.126-2.777 0-5.126 2.349-5.126 5.126 0 2.99 2.349 5.339 5.126 5.339ZM483.709 336.457a3.827 3.827 0 0 0 3.844-3.844c0-1.922-1.708-3.631-3.844-3.631-1.922 0-3.631 1.709-3.631 3.631 0 2.136 1.709 3.844 3.631 3.844ZM514.035 334.962c1.068 0 2.136-1.068 2.136-2.35 0-1.281-1.068-2.135-2.136-2.135-1.282 0-2.349.854-2.349 2.135a2.37 2.37 0 0 0 2.349 2.35ZM544.147 333.467c.427 0 .855-.427.855-.855 0-.427-.428-.854-.855-.854s-.854.427-.854.854c0 .428.427.855.854.855ZM.856 363.365a.46.46 0 0 0 .427-.427c0-.427-.214-.641-.427-.641-.214 0-.641.214-.641.641 0 .213.427.427.64.427ZM30.967 364.646c1.068 0 1.923-.854 1.923-1.708a1.914 1.914 0 0 0-1.923-1.922c-1.067 0-1.708.854-1.708 1.922 0 .854.64 1.708 1.708 1.708ZM61.288 366.141c1.709 0 3.204-1.495 3.204-3.203 0-1.922-1.495-3.417-3.204-3.417-1.922 0-3.417 1.495-3.417 3.417 0 1.708 1.495 3.203 3.417 3.203ZM91.402 367.637c2.563 0 4.698-2.136 4.698-4.699 0-2.563-2.135-4.698-4.698-4.698-2.563 0-4.699 2.135-4.699 4.698 0 2.563 2.136 4.699 4.699 4.699ZM121.515 368.918c3.417 0 6.194-2.777 6.194-5.98a6.199 6.199 0 0 0-6.194-6.194c-3.417 0-5.98 2.777-5.98 6.194 0 3.203 2.563 5.98 5.98 5.98ZM151.834 370.412c4.058 0 7.261-3.416 7.261-7.474 0-4.271-3.203-7.475-7.261-7.475-4.271 0-7.475 3.204-7.475 7.475 0 4.058 3.204 7.474 7.475 7.474ZM181.949 371.48c4.699 0 8.756-3.844 8.756-8.542 0-4.912-4.057-8.756-8.756-8.756-4.912 0-8.756 3.844-8.756 8.756 0 4.698 3.844 8.542 8.756 8.542ZM212.064 372.761c5.552 0 9.824-4.484 9.824-9.823 0-5.553-4.272-10.038-9.824-10.038-5.339 0-9.824 4.485-9.824 10.038 0 5.339 4.485 9.823 9.824 9.823ZM242.39 373.616c5.766 0 10.677-4.699 10.677-10.678 0-5.98-4.911-10.892-10.677-10.892-5.98 0-10.892 4.912-10.892 10.892 0 5.979 4.912 10.678 10.892 10.678ZM272.502 374.043c6.193 0 11.105-5.126 11.105-11.105 0-6.193-4.912-11.105-11.105-11.105-6.194 0-11.106 4.912-11.106 11.105 0 5.979 4.912 11.105 11.106 11.105ZM302.612 373.616c5.979 0 10.891-4.698 10.891-10.678s-4.912-10.891-10.891-10.891c-5.98 0-10.678 4.911-10.678 10.891s4.698 10.678 10.678 10.678ZM332.938 372.761c5.339 0 9.823-4.485 9.823-9.824 0-5.552-4.484-10.037-9.823-10.037a10.026 10.026 0 0 0-10.038 10.037c0 5.339 4.485 9.824 10.038 9.824ZM363.049 371.694c4.912 0 8.756-4.058 8.756-8.756 0-4.912-3.844-8.97-8.756-8.97-4.912 0-8.756 4.058-8.756 8.97 0 4.698 3.844 8.756 8.756 8.756ZM393.16 370.412c4.271 0 7.688-3.417 7.688-7.474a7.656 7.656 0 0 0-7.688-7.688c-4.058 0-7.474 3.416-7.474 7.688 0 4.057 3.416 7.474 7.474 7.474ZM423.486 369.131a6.198 6.198 0 0 0 6.193-6.194 6.197 6.197 0 0 0-6.193-6.193 6.197 6.197 0 0 0-6.193 6.193 6.198 6.198 0 0 0 6.193 6.194ZM453.596 367.637c2.776 0 4.912-2.136 4.912-4.699 0-2.776-2.136-4.912-4.912-4.912-2.777 0-4.912 2.136-4.912 4.912 0 2.563 2.135 4.699 4.912 4.699ZM483.708 366.355c1.922 0 3.417-1.495 3.417-3.417 0-1.922-1.495-3.417-3.417-3.417-1.922 0-3.417 1.495-3.417 3.417 0 1.922 1.495 3.417 3.417 3.417ZM514.034 364.86a1.914 1.914 0 0 0 1.922-1.922c0-1.281-.854-2.136-1.922-2.136-1.281 0-2.136.855-2.136 2.136 0 1.068.855 1.922 2.136 1.922ZM544.149 363.365c.213 0 .64-.214.64-.427 0-.428-.427-.641-.64-.641-.428 0-.641.213-.641.641 0 .213.213.427.641.427ZM.856 393.267c.144 0 .216-.072.216-.215 0-.144-.072-.216-.216-.216-.144 0-.215.072-.215.216 0 .143.071.215.215.215ZM30.968 394.545c.854 0 1.495-.641 1.495-1.495 0-.855-.64-1.495-1.495-1.495-.64 0-1.282.64-1.282 1.495 0 .854.641 1.495 1.282 1.495ZM61.288 395.826c1.495 0 2.563-1.281 2.563-2.776 0-1.495-1.068-2.777-2.563-2.777-1.708 0-2.776 1.282-2.776 2.777s1.068 2.776 2.776 2.776ZM91.402 397.108c2.135 0 4.058-1.709 4.058-4.058 0-2.35-1.923-4.058-4.058-4.058-2.35 0-4.058 1.708-4.058 4.058 0 2.349 1.708 4.058 4.058 4.058ZM121.517 398.389c2.99 0 5.553-2.349 5.553-5.339s-2.563-5.34-5.553-5.34c-2.99 0-5.339 2.35-5.339 5.34 0 2.99 2.349 5.339 5.339 5.339ZM151.842 399.67c3.63 0 6.62-2.99 6.62-6.621 0-3.63-2.99-6.62-6.62-6.62-3.844 0-6.834 2.99-6.834 6.62 0 3.631 2.99 6.621 6.834 6.621ZM181.949 400.738a7.656 7.656 0 0 0 7.688-7.689 7.656 7.656 0 0 0-7.688-7.688c-4.272 0-7.902 3.417-7.902 7.688 0 4.272 3.63 7.689 7.902 7.689ZM212.063 401.805c4.911 0 8.755-3.844 8.755-8.756 0-4.912-3.844-8.756-8.755-8.756-4.699 0-8.756 3.844-8.756 8.756 0 4.912 4.057 8.756 8.756 8.756ZM242.387 402.446c5.126 0 9.397-4.271 9.397-9.397 0-5.125-4.271-9.396-9.397-9.396-5.338 0-9.61 4.271-9.61 9.396 0 5.126 4.272 9.397 9.61 9.397ZM272.497 402.659a9.57 9.57 0 0 0 9.611-9.61 9.57 9.57 0 0 0-9.611-9.61c-5.338 0-9.823 4.271-9.823 9.61 0 5.339 4.485 9.61 9.823 9.61ZM302.609 402.446c5.339 0 9.611-4.271 9.611-9.397 0-5.125-4.272-9.396-9.611-9.396-5.125 0-9.396 4.271-9.396 9.396 0 5.126 4.271 9.397 9.396 9.397ZM332.938 401.806c4.698 0 8.756-3.844 8.756-8.756 0-4.912-4.058-8.756-8.756-8.756-4.912 0-8.969 3.844-8.969 8.756 0 4.912 4.057 8.756 8.969 8.756ZM363.05 400.951c4.271 0 7.902-3.417 7.902-7.902 0-4.484-3.631-7.901-7.902-7.901-4.485 0-7.902 3.417-7.902 7.901 0 4.485 3.417 7.902 7.902 7.902ZM393.159 399.883c3.844 0 6.834-2.99 6.834-6.834 0-3.844-2.99-6.833-6.834-6.833-3.63 0-6.62 2.989-6.62 6.833 0 3.844 2.99 6.834 6.62 6.834ZM423.485 398.603c2.99 0 5.553-2.563 5.553-5.553 0-3.204-2.563-5.553-5.553-5.553-3.203 0-5.766 2.349-5.766 5.553 0 2.99 2.563 5.553 5.766 5.553ZM453.596 397.321a4.284 4.284 0 0 0 4.271-4.272 4.284 4.284 0 0 0-4.271-4.271 4.284 4.284 0 0 0-4.272 4.271 4.284 4.284 0 0 0 4.272 4.272ZM483.708 396.04c1.709 0 2.99-1.282 2.99-2.99 0-1.709-1.281-2.99-2.99-2.99-1.495 0-2.776 1.281-2.776 2.99 0 1.708 1.281 2.99 2.776 2.99ZM514.037 394.544c.854 0 1.495-.64 1.495-1.495 0-.854-.641-1.495-1.495-1.495-.855 0-1.709.641-1.709 1.495 0 .855.854 1.495 1.709 1.495ZM544.151 393.267c.144 0 .216-.072.216-.215 0-.144-.072-.216-.216-.216-.144 0-.215.072-.215.216 0 .143.071.215.215.215ZM30.967 424.015c.427 0 .854-.427.854-.854s-.427-.854-.854-.854-.855.427-.855.854.428.854.855.854ZM61.287 425.511c1.068 0 2.136-1.068 2.136-2.349 0-1.068-1.068-2.136-2.136-2.136-1.282 0-2.35 1.068-2.35 2.136a2.37 2.37 0 0 0 2.35 2.349ZM91.402 426.579c1.922 0 3.417-1.495 3.417-3.418 0-1.922-1.495-3.417-3.417-3.417-1.923 0-3.418 1.495-3.418 3.417 0 1.923 1.495 3.418 3.418 3.418ZM121.516 427.86c2.563 0 4.699-2.136 4.699-4.699 0-2.563-2.136-4.485-4.699-4.485-2.563 0-4.485 1.922-4.485 4.485 0 2.563 1.922 4.699 4.485 4.699ZM151.843 428.928c2.99 0 5.553-2.563 5.553-5.767 0-2.99-2.563-5.553-5.553-5.553-3.204 0-5.767 2.563-5.767 5.553a5.743 5.743 0 0 0 5.767 5.767ZM181.948 429.995c3.631 0 6.621-2.99 6.621-6.834 0-3.63-2.99-6.62-6.621-6.62-3.63 0-6.62 2.99-6.62 6.62 0 3.844 2.99 6.834 6.62 6.834ZM212.062 430.849a7.656 7.656 0 0 0 7.689-7.688c0-4.058-3.417-7.474-7.689-7.474-4.057 0-7.474 3.416-7.474 7.474 0 4.271 3.417 7.688 7.474 7.688ZM242.391 431.277c4.271 0 7.901-3.631 7.901-8.116 0-4.271-3.63-7.901-7.901-7.901-4.485 0-8.116 3.63-8.116 7.901a8.113 8.113 0 0 0 8.116 8.116ZM272.502 431.49c4.485 0 8.115-3.631 8.115-8.329a8.11 8.11 0 0 0-8.115-8.115 8.11 8.11 0 0 0-8.115 8.115c0 4.698 3.63 8.329 8.115 8.329ZM302.611 431.277a8.112 8.112 0 0 0 8.115-8.116c0-4.271-3.631-7.901-8.115-7.901-4.485 0-7.902 3.63-7.902 7.901 0 4.485 3.417 8.116 7.902 8.116ZM332.938 430.849c4.058 0 7.475-3.417 7.475-7.688 0-4.058-3.417-7.475-7.475-7.475-4.271 0-7.688 3.417-7.688 7.475a7.656 7.656 0 0 0 7.688 7.688ZM363.049 429.995c3.63 0 6.834-2.99 6.834-6.834 0-3.631-3.204-6.62-6.834-6.62-3.844 0-6.834 2.989-6.834 6.62 0 3.844 2.99 6.834 6.834 6.834ZM393.163 429.141c3.204 0 5.98-2.776 5.98-5.98 0-3.203-2.776-5.766-5.98-5.766a5.743 5.743 0 0 0-5.767 5.766c0 3.204 2.563 5.98 5.767 5.98ZM423.486 427.86c2.563 0 4.698-2.136 4.698-4.699 0-2.563-2.135-4.699-4.698-4.699-2.777 0-4.699 2.136-4.699 4.699 0 2.563 1.922 4.699 4.699 4.699ZM453.596 426.792c1.922 0 3.417-1.709 3.417-3.631 0-1.922-1.495-3.417-3.417-3.417-1.923 0-3.631 1.495-3.631 3.417 0 1.922 1.708 3.631 3.631 3.631ZM483.709 425.511a2.37 2.37 0 0 0 2.349-2.35 2.37 2.37 0 0 0-2.349-2.349 2.37 2.37 0 0 0-2.35 2.349 2.37 2.37 0 0 0 2.35 2.35ZM514.035 424.229c.427 0 .854-.427.854-1.068 0-.427-.427-.854-.854-.854-.641 0-1.068.427-1.068.854 0 .641.427 1.068 1.068 1.068ZM30.966 453.7c.143 0 .214-.071.214-.214 0-.142-.071-.284-.213-.427-.143.143-.214.285-.214.427 0 .143.071.214.213.214ZM61.288 454.768c.64 0 1.282-.641 1.282-1.282 0-.854-.641-1.495-1.282-1.495-.854 0-1.495.641-1.495 1.495 0 .641.64 1.282 1.495 1.282ZM91.403 456.05c1.495 0 2.563-1.282 2.563-2.563 0-1.495-1.068-2.563-2.563-2.563s-2.563 1.068-2.563 2.563c0 1.281 1.068 2.563 2.563 2.563ZM121.516 457.118c2.135 0 3.63-1.709 3.63-3.631 0-2.136-1.495-3.844-3.63-3.844-1.923 0-3.631 1.708-3.631 3.844 0 1.922 1.708 3.631 3.631 3.631ZM151.843 457.972c2.35 0 4.485-1.923 4.485-4.485 0-2.563-2.135-4.699-4.485-4.699-2.563 0-4.698 2.136-4.698 4.699 0 2.562 2.135 4.485 4.698 4.485ZM181.949 459.04c2.991 0 5.553-2.563 5.553-5.553 0-3.204-2.562-5.553-5.553-5.553-2.99 0-5.553 2.349-5.553 5.553 0 2.99 2.563 5.553 5.553 5.553ZM212.062 459.467c3.417 0 6.194-2.776 6.194-5.98a6.199 6.199 0 0 0-6.194-6.194c-3.417 0-5.98 2.777-5.98 6.194 0 3.204 2.563 5.98 5.98 5.98ZM242.39 460.107c3.63 0 6.62-2.99 6.62-6.621 0-3.63-2.99-6.62-6.62-6.62-3.844 0-6.62 2.99-6.62 6.62 0 3.631 2.776 6.621 6.62 6.621ZM272.502 460.107c3.63 0 6.834-2.99 6.834-6.621 0-3.844-3.204-6.833-6.834-6.833-3.844 0-6.834 2.989-6.834 6.833 0 3.631 2.99 6.621 6.834 6.621ZM302.611 460.107c3.63 0 6.62-2.99 6.62-6.62 0-3.631-2.99-6.621-6.62-6.621-3.631 0-6.621 2.99-6.621 6.621 0 3.63 2.99 6.62 6.621 6.62ZM332.935 459.679a6.198 6.198 0 0 0 6.194-6.193 6.198 6.198 0 0 0-6.194-6.193 6.197 6.197 0 0 0-6.193 6.193 6.197 6.197 0 0 0 6.193 6.193ZM363.051 459.039c2.99 0 5.553-2.562 5.553-5.552 0-3.204-2.563-5.767-5.553-5.767-3.204 0-5.553 2.563-5.553 5.767 0 2.99 2.349 5.552 5.553 5.552ZM393.16 458.185c2.563 0 4.698-2.136 4.698-4.698 0-2.563-2.135-4.699-4.698-4.699-2.563 0-4.699 2.136-4.699 4.699 0 2.562 2.136 4.698 4.699 4.698ZM423.485 457.118c1.922 0 3.631-1.709 3.631-3.631 0-2.136-1.709-3.844-3.631-3.844a3.827 3.827 0 0 0-3.844 3.844c0 1.922 1.708 3.631 3.844 3.631ZM453.595 456.049c1.495 0 2.563-1.068 2.563-2.563s-1.068-2.776-2.563-2.776-2.777 1.281-2.777 2.776c0 1.495 1.282 2.563 2.777 2.563ZM483.71 454.981c.854 0 1.495-.64 1.495-1.495 0-.854-.641-1.495-1.495-1.495-.854 0-1.495.641-1.495 1.495 0 .855.641 1.495 1.495 1.495ZM514.035 453.7c.213 0 .213 0 .213-.213 0-.214 0-.427-.213-.427-.214 0-.428.213-.428.427 0 .213.214.213.428.213ZM61.293 484.025a.459.459 0 0 0 .427-.427.46.46 0 0 0-.427-.427c-.427 0-.64.214-.64.427 0 .214.213.427.64.427ZM91.402 485.093c.854 0 1.495-.641 1.495-1.495 0-.854-.64-1.495-1.495-1.495-.854 0-1.709.641-1.709 1.495 0 .854.855 1.495 1.709 1.495ZM121.514 486.161c1.495 0 2.563-1.067 2.563-2.562 0-1.496-1.068-2.563-2.563-2.563-1.281 0-2.563 1.067-2.563 2.563 0 1.495 1.282 2.562 2.563 2.562ZM151.842 487.016c1.708 0 3.417-1.495 3.417-3.417 0-1.923-1.709-3.418-3.417-3.418-1.922 0-3.631 1.495-3.631 3.418 0 1.922 1.709 3.417 3.631 3.417ZM181.949 487.87c2.35 0 4.058-1.922 4.058-4.271 0-2.35-1.708-4.272-4.058-4.272a4.284 4.284 0 0 0-4.271 4.272 4.284 4.284 0 0 0 4.271 4.271ZM212.062 488.297c2.776 0 4.912-2.136 4.912-4.699 0-2.563-2.136-4.698-4.912-4.698-2.563 0-4.699 2.135-4.699 4.698 0 2.563 2.136 4.699 4.699 4.699ZM242.39 488.724c2.777 0 5.126-2.349 5.126-5.126 0-2.776-2.349-5.125-5.126-5.125-2.99 0-5.339 2.349-5.339 5.125 0 2.777 2.349 5.126 5.339 5.126ZM272.503 488.938c2.991 0 5.34-2.35 5.34-5.34 0-2.99-2.349-5.339-5.34-5.339-2.99 0-5.339 2.349-5.339 5.339s2.349 5.34 5.339 5.34ZM302.61 488.724c2.99 0 5.34-2.35 5.34-5.126 0-2.777-2.35-5.126-5.34-5.126-2.776 0-5.126 2.349-5.126 5.126 0 2.776 2.35 5.126 5.126 5.126ZM332.936 488.511c2.563 0 4.698-2.136 4.698-4.913 0-2.776-2.135-4.912-4.698-4.912-2.777 0-4.913 2.136-4.913 4.912 0 2.777 2.136 4.913 4.913 4.913ZM363.049 487.87a4.284 4.284 0 0 0 4.271-4.271 4.284 4.284 0 0 0-4.271-4.272 4.285 4.285 0 0 0-4.272 4.272 4.284 4.284 0 0 0 4.272 4.271ZM393.159 487.016c1.923 0 3.631-1.496 3.631-3.418 0-1.922-1.708-3.417-3.631-3.417-1.922 0-3.417 1.495-3.417 3.417 0 1.922 1.495 3.418 3.417 3.418ZM423.485 486.375c1.496 0 2.563-1.281 2.563-2.776 0-1.495-1.067-2.777-2.563-2.777-1.495 0-2.776 1.282-2.776 2.777s1.281 2.776 2.776 2.776ZM453.595 485.307c.855 0 1.709-.854 1.709-1.709 0-.854-.854-1.708-1.709-1.708-.854 0-1.708.854-1.708 1.708 0 .855.854 1.709 1.708 1.709ZM483.708 484.239c.428 0 .641-.214.641-.641 0-.427-.213-.641-.641-.641-.213 0-.427.214-.427.641 0 .427.214.641.427.641ZM91.4 514.351c.213 0 .427-.214.427-.641a.459.459 0 0 0-.427-.427.459.459 0 0 0-.427.427c0 .427.213.641.427.641ZM121.514 515.205c.854 0 1.495-.641 1.495-1.495 0-.641-.641-1.282-1.495-1.282-.641 0-1.282.641-1.282 1.282 0 .854.641 1.495 1.282 1.495ZM151.838 516.059c1.067 0 2.135-1.068 2.135-2.349 0-1.068-1.068-2.136-2.135-2.136-1.282 0-2.35 1.068-2.35 2.136a2.37 2.37 0 0 0 2.35 2.349ZM181.952 516.701c1.495 0 2.777-1.282 2.777-2.99 0-1.495-1.282-2.777-2.777-2.777s-2.776 1.282-2.776 2.777c0 1.708 1.281 2.99 2.776 2.99ZM212.062 517.127c1.922 0 3.417-1.495 3.417-3.417 0-1.922-1.495-3.417-3.417-3.417-1.922 0-3.417 1.495-3.417 3.417 0 1.922 1.495 3.417 3.417 3.417ZM242.387 517.555c1.923 0 3.631-1.709 3.631-3.845 0-1.922-1.708-3.63-3.631-3.63-2.135 0-3.844 1.708-3.844 3.63a3.829 3.829 0 0 0 3.844 3.845ZM272.501 517.554a3.828 3.828 0 0 0 3.844-3.844 3.828 3.828 0 0 0-3.844-3.844 3.828 3.828 0 0 0-3.845 3.844 3.828 3.828 0 0 0 3.845 3.844ZM302.613 517.555a3.83 3.83 0 0 0 3.845-3.845c0-1.922-1.709-3.63-3.845-3.63-1.922 0-3.631 1.708-3.631 3.63 0 2.136 1.709 3.845 3.631 3.845ZM332.935 517.127c1.708 0 3.417-1.495 3.417-3.417 0-1.922-1.709-3.417-3.417-3.417-1.922 0-3.417 1.495-3.417 3.417 0 1.922 1.495 3.417 3.417 3.417ZM363.049 516.7c1.708 0 2.99-1.281 2.99-2.99 0-1.495-1.282-2.776-2.99-2.776-1.709 0-2.99 1.281-2.99 2.776 0 1.709 1.281 2.99 2.99 2.99ZM393.162 516.06a2.37 2.37 0 0 0 2.349-2.35 2.37 2.37 0 0 0-2.349-2.349 2.37 2.37 0 0 0-2.35 2.349 2.37 2.37 0 0 0 2.35 2.35ZM423.487 515.205c.855 0 1.495-.641 1.495-1.495 0-.854-.64-1.495-1.495-1.495-.854 0-1.495.641-1.495 1.495 0 .854.641 1.495 1.495 1.495ZM453.598 514.351c.213 0 .64-.214.64-.641 0-.214-.427-.427-.64-.427-.427 0-.641.213-.641.427 0 .427.214.641.641.641ZM483.709 513.925c.144 0 .215-.072.215-.215h-.215v.215ZM121.514 544.249c.214 0 .428 0 .428-.214 0-.213-.214-.427-.428-.427-.213 0-.213.214-.213.427 0 .214 0 .214.213.214ZM151.839 544.89c.428 0 .855-.427.855-.855 0-.64-.427-1.067-.855-1.067-.64 0-1.068.427-1.068 1.067 0 .428.428.855 1.068.855ZM181.95 545.53c.854 0 1.495-.641 1.495-1.495 0-.854-.641-1.495-1.495-1.495-.854 0-1.495.641-1.495 1.495 0 .854.641 1.495 1.495 1.495ZM212.065 545.957a1.914 1.914 0 0 0 1.922-1.922 1.914 1.914 0 0 0-1.922-1.922 1.914 1.914 0 0 0-1.922 1.922c0 1.068.854 1.922 1.922 1.922ZM242.388 546.171c1.068 0 2.136-.854 2.136-2.136 0-1.281-1.068-2.349-2.136-2.349a2.37 2.37 0 0 0-2.349 2.349c0 1.282 1.068 2.136 2.349 2.136ZM272.5 546.385a2.37 2.37 0 0 0 2.349-2.35 2.37 2.37 0 0 0-2.349-2.349 2.37 2.37 0 0 0-2.35 2.349 2.37 2.37 0 0 0 2.35 2.35ZM302.612 546.171c1.282 0 2.35-.854 2.35-2.135a2.37 2.37 0 0 0-2.35-2.35c-1.281 0-2.135 1.068-2.135 2.35 0 1.281.854 2.135 2.135 2.135ZM332.935 545.957a1.914 1.914 0 0 0 1.922-1.922c0-1.282-.855-2.136-1.922-2.136-1.282 0-2.136.854-2.136 2.136 0 1.068.854 1.922 2.136 1.922ZM363.048 545.53c.855 0 1.495-.641 1.495-1.495 0-.854-.64-1.709-1.495-1.709-.854 0-1.708.855-1.708 1.709 0 .854.854 1.495 1.708 1.495ZM393.161 544.889c.641 0 1.068-.427 1.068-.854 0-.641-.427-1.068-1.068-1.068-.427 0-.854.427-.854 1.068 0 .427.427.854.854.854ZM423.486 544.248s.213 0 .213-.213c0-.214-.213-.427-.213-.427a.458.458 0 0 0-.427.427c0 .213.213.213.427.213ZM181.954 574.364c.143 0 .215-.071.215-.215 0-.144-.072-.216-.215-.216-.144 0-.216.072-.216.216 0 .144.072.215.216.215ZM212.063 574.788c.427 0 .64-.214.64-.641 0-.214-.213-.641-.64-.641-.214 0-.641.427-.641.641 0 .427.427.641.641.641ZM242.386 575.001c.427 0 .64-.427.64-.854s-.213-.854-.64-.854c-.641 0-.855.427-.855.854s.214.854.855.854ZM272.501 575.001c.427 0 .854-.427.854-.854s-.427-.854-.854-.854-.855.427-.855.854.428.854.855.854ZM302.616 575.001c.427 0 .854-.427.854-.854s-.427-.854-.854-.854-.854.427-.854.854.427.854.854.854ZM332.938 574.788c.213 0 .427-.214.427-.641 0-.214-.214-.641-.427-.641-.428 0-.641.427-.641.641 0 .427.213.641.641.641ZM363.051 574.364c.144 0 .216-.071.216-.215 0-.144-.072-.216-.216-.216-.143 0-.215.072-.215.216 0 .144.072.215.215.215Z" fill="#48A013" fill-opacity=".15"/><circle cx="273" cy="301" r="213" fill="#E3FED3"/><path d="M85.535 287.905c12.523-24.978 6.736-73.743 0-90.825-6.735-17.133-30.684-18.92-28.29-1.043 2.595 18.92 38.317 15.94 49.758 1.043 3.736-4.865 34.323-38.148 26.003-80.792" stroke="#1A1A1A" stroke-width=".573" stroke-miterlimit="16" stroke-linecap="square" stroke-linejoin="bevel" stroke-dasharray="1.72 1.72"/><path d="M35.77 229.551c-7.202.308-13.296 3.386-13.296 3.386 6.587-20.808 5.047-61.745 5.047-61.745s10.958-3.324 22.1-1.97c11.204 1.293 22.777-1.97 22.777-1.97s-1.046 43.769-15.759 63.038c0 0-13.604-1.108-20.869-.739Z" fill="#5BBC21"/><path d="M64.521 177.718c-.04.41-.061.882-.061 1.415-4.802.985-13.482 1.663-19.638.985-5.663-.554-10.65 1.047-13.112 2.093v-1.477c2.709-1.108 7.633-2.586 13.235-1.97 6.156.616 15.02-.062 19.576-1.046ZM64.025 185.044c0 .451-.02.923-.062 1.416-4.801 1.046-12.558 1.539-19.945.43-4.925-.677-10.034 1.232-12.435 2.34.041-.534.062-1.047.062-1.539 2.708-1.231 7.695-2.894 12.62-2.155 7.386 1.108 15.143.554 19.76-.492ZM63.35 192.124c0 .492-.062.923-.123 1.416-3.817.677-7.572.492-11.573.184-2.524-.123-5.171-.308-7.88-.246-5.233.123-10.527 2.093-12.681 2.955.04-.493.082-1.006.123-1.539 2.524-1.047 7.449-2.709 12.496-2.832 2.832-.061 5.48.123 8.065.308 4.001.246 7.88.492 11.573-.246ZM62.364 199.386c-.081.452-.164.903-.246 1.355-1.477 0-3.2-.062-5.11-.124-3.939-.184-8.802-.369-14.035-.246-4.863.062-10.034 1.847-12.62 2.832.083-.534.144-1.067.185-1.601 2.832-1.046 7.695-2.585 12.435-2.647 5.233-.061 10.158.123 14.097.247 1.97.123 3.756.184 5.294.184ZM60.95 206.097l-.37 1.354c-3.631-.184-11.203-.492-16.743-.369-5.171.062-11.635 2.216-14.467 3.201.041-.451.103-.964.185-1.539 3.2-1.108 9.172-3.016 14.282-3.078 5.725-.123 13.604.246 17.113.431Z" fill="#fff"/><path d="m535.523 119.407-65.426 11.172-1.862 26.227 11.221-17.603 56.067-19.796Z" fill="#5BBC21"/><path d="m468.271 156.867-.037.025-.012.063.049-.088ZM535.523 119.407l-89.448.454 24.022 10.718 65.426-11.172Z" fill="#A0F171"/><path d="m479.456 139.203-11.221 17.603-.073.111.073-.025.037-.025 19.759-7.496-8.575-10.168Z" fill="#7FDF46"/><path d="m535.523 119.407-56.067 19.796 26.435 31.348 29.632-51.144Z" fill="#A0F171"/><path d="m484.105 447.002-87.392.084c-3.075-.036-5.476-2.454-5.515-5.472l-.217-162.673c-.039-3.018 2.453-5.476 5.472-5.515l87.392-.083c3.075.035 5.476 2.453 5.515 5.472l.217 162.672c.039 3.019-2.453 5.476-5.472 5.515Z" fill="#03235D"/><path d="m486.337 430.215-91.686.302-.448-147.804 91.742-.227.392 147.729Z" fill="#fff"/><path d="M445.069 438.54a4.597 4.597 0 0 1-4.527 4.585c-2.475-.013-4.523-2.108-4.51-4.583a4.416 4.416 0 0 1 4.452-4.529c2.55-.043 4.542 1.977 4.585 4.527Z" fill="#525E8F"/><path d="M345.084 445.861H48.758V273.342h296.326v172.519Z" fill="#03235D"/><path d="M340.078 440.855H53.628V278.348h286.45v162.507Z" fill="#fff"/><path d="M249.015 475.629v3.654H144.691v-3.654l44.517-9.742v-20.026h15.29v20.026l44.517 9.742Z" fill="#03235D"/><path d="M247.713 370.402c.018 8.118-6.515 14.736-14.742 14.836l-74.609.142c-8.119.019-14.737-6.515-14.837-14.742-.018-8.118 6.516-14.736 14.553-14.863-.047-8.605 6.92-15.549 15.525-15.596a14.81 14.81 0 0 1 1.624.132c5.258-8.536 14.554-14.186 25.298-14.319 16.426-.01 29.635 13.247 29.754 29.592l2.516-.033c8.308.009 14.926 6.543 14.918 14.851Z" fill="#5BBC21"/><path d="m195.761 385.322-15.956-19.151 31.608-.098-15.652 19.249Z" fill="#fff"/><path d="m201.598 369.91-11.989.054.02-15.263 11.988-.054-.019 15.263Z" fill="#fff"/><path d="M440.306 379.396c0 .025-.012.037-.036.037-25.022-5.73-20.996-36.735-20.996-36.735l20.996-9.03h.036l20.925 9.03s4.061 30.969-20.925 36.698Z" fill="#5BBC21"/><path d="M457.096 358.327c-2.466 9.683-8.123 15.702-16.827 17.914-8.703-2.212-14.36-8.231-16.826-17.914-1.414-5.548-1.378-10.879-1.233-13.49l18.059-7.796 18.06 7.796c.145 2.611.181 7.942-1.233 13.49Z" fill="#5BBC21"/><path d="m437.224 362.788-5.15-5.113 2.357-2.357 2.793 2.792 10.734-10.734 2.357 2.321-13.091 13.091Z" fill="#fff"/><path d="M202.691 276.464v-54.085h33.284v-61.367m63.446 0v61.367h138.334v49.924" stroke="#1A1A1A" stroke-width="1.718" stroke-dasharray="5.73 5.73"/><path d="M212.118 80.03c1.395 0 2.763.054 4.105.161 9.82-18.593 29.379-31.311 51.917-31.311 28.172 0 51.756 19.962 57.31 46.605 4.427-1.45 9.095-2.254 14.005-2.254 24.55 0 44.432 19.881 44.432 44.351 0 24.55-19.882 44.431-44.432 44.431H212.118c-28.172 0-51.032-22.86-51.032-50.951 0-28.172 22.86-51.032 51.032-51.032Z" fill="#5BBC21"/><path d="m220.487 122.851 9.337-16.26c1.127-1.851 3.945-1.851 4.991 0l9.417 16.26c1.047 1.851-.321 4.266-2.495 4.266h-4.266c1.851 14.247 13.12 25.596 27.367 27.528 2.415.322 4.266 2.334 4.266 4.749 0 2.898-2.575 5.071-5.473 4.749-18.996-2.576-33.968-17.869-35.819-37.026h-4.829c-2.174 0-3.542-2.415-2.496-4.266ZM269.104 86.55c0-2.979 2.575-5.152 5.473-4.75 18.996 2.496 33.887 17.79 35.819 36.946h4.829c2.173 0 3.542 2.415 2.495 4.347l-9.417 16.179c-1.047 1.931-3.864 1.931-4.991 0l-9.337-16.179c-1.046-1.932.322-4.347 2.496-4.347h4.266c-1.852-14.247-13.12-25.596-27.367-27.447-2.415-.323-4.266-2.335-4.266-4.75Z" fill="#FAFAFA"/><path d="M134.731 135.687c-14.894-15.4-24.727-9.472-24.727-9.472.795-3.759 1.952-7.374 3.181-10.845 9.978-12.002 21.546-19.955 32.608-25.16-12.725 20.967-11.134 44.898-11.062 45.477Z" fill="#5BBC21"/><path d="M189.608 80.088s-20.823-.796-43.815 10.122c-11.062 5.205-22.63 13.158-32.607 25.16 3.325-9.037 7.88-17.135 12.725-24.22l1.012-1.446c1.735-2.41 3.47-4.676 5.205-6.797l1.157-1.446a133.232 133.232 0 0 1 5.712-6.362l1.301-1.446 4.845-4.844c.578-.482 1.108-.94 1.59-1.374 3.254-2.965 5.351-4.555 5.351-4.555 17.713.072 37.524 17.208 37.524 17.208Z" fill="#5BBC21"/><path d="M167.63 75.966c-.651.073-1.374.145-2.097.29-6.145-4.917-16.629-6.87-20.388-7.448.578-.482 1.108-.94 1.59-1.373 4.844.795 15.111 3.109 20.895 8.531ZM152.88 79.654c-.53.193-1.109.41-1.735.651-3.76-3.47-9.327-4.772-12.147-5.206l1.301-1.446c3.471.651 8.894 2.17 12.581 6.001ZM140.95 84.787c-.531.241-1.061.53-1.591.868-2.386-1.518-5.278-2.314-7.23-2.748l1.157-1.446c2.241.579 5.278 1.519 7.664 3.326ZM130.391 91.005c-.482.337-.988.699-1.518 1.085-.94-.434-2.097-.724-2.965-.94l1.012-1.446c1.085.289 2.459.723 3.471 1.301Z" fill="#fff"/></svg>