<svg width="580" height="582" fill="none" xmlns="http://www.w3.org/2000/svg"><path d="M387.074 1.134c-.152 0-.228-.076-.228-.227 0-.152.076-.227.228-.227.151 0 .227.075.227.227 0 .151-.076.227-.227.227ZM355.145 1.359a.487.487 0 0 1-.453-.453c0-.227.226-.453.453-.453.226 0 .453.226.453.453a.488.488 0 0 1-.453.453ZM322.991 1.586c-.227 0-.68-.227-.68-.68 0-.453.453-.68.68-.68.453 0 .905.227.905.68 0 .453-.452.68-.905.68ZM291.061 1.585c-.453 0-.679-.226-.679-.68 0-.452.226-.905.679-.905.453 0 .906.453.906.906s-.453.68-.906.68ZM259.129 1.585c-.453 0-.679-.226-.679-.679 0-.453.226-.68.679-.68.227 0 .68.227.68.68 0 .453-.453.68-.68.68ZM226.977 1.36a.487.487 0 0 1-.453-.454c0-.226.226-.453.453-.453.453 0 .679.227.679.453 0 .227-.226.453-.679.453ZM195.048 1.134c-.151 0-.227-.076-.227-.227 0-.152.076-.227.227-.227.152 0 .227.075.227.227 0 .151-.075.227-.227.227ZM451.154 33.059c-.152 0-.228-.076-.228-.227 0-.152.076-.227.228-.227.151 0 .227.075.227.227 0 .151-.076.227-.227.227ZM419 33.737c-.453 0-.679-.453-.679-.906s.226-.68.679-.68c.453 0 .906.227.906.68 0 .453-.453.906-.906.906ZM387.071 34.417c-.906 0-1.585-.68-1.585-1.586 0-.679.679-1.358 1.585-1.358.906 0 1.585.679 1.585 1.358 0 .906-.679 1.586-1.585 1.586ZM355.145 34.87a2.03 2.03 0 0 1-2.038-2.039c0-1.132.906-1.812 2.038-1.812 1.133 0 1.812.68 1.812 1.812 0 1.132-.679 2.038-1.812 2.038ZM322.989 35.096c-1.132 0-2.038-.906-2.038-2.264 0-1.133.906-2.265 2.038-2.265 1.359 0 2.265 1.132 2.265 2.264 0 1.36-.906 2.265-2.265 2.265ZM291.06 35.096c-1.359 0-2.265-.906-2.265-2.264 0-1.133.906-2.265 2.265-2.265 1.358 0 2.264 1.132 2.264 2.264 0 1.36-.906 2.265-2.264 2.265ZM259.13 35.096c-1.359 0-2.265-.906-2.265-2.265 0-1.132.906-2.264 2.265-2.264 1.132 0 2.265 1.132 2.265 2.264 0 1.359-1.133 2.265-2.265 2.265ZM226.981 34.87c-.905 0-1.811-.906-1.811-2.038 0-1.133.906-1.812 1.811-1.812 1.133 0 2.039.68 2.039 1.811a2.03 2.03 0 0 1-2.039 2.039ZM195.052 34.417c-.906 0-1.586-.68-1.586-1.585 0-.68.68-1.36 1.586-1.36.905 0 1.585.68 1.585 1.36 0 .905-.68 1.585-1.585 1.585ZM163.122 33.737c-.453 0-.906-.453-.906-.906s.453-.906.906-.906c.452 0 .905.453.905.906s-.453.906-.905.906ZM130.965 33.057c-.151 0-.226-.075-.226-.226 0-.15.075-.226.226-.226.151 0 .302.075.453.226-.151.151-.302.226-.453.226ZM483.086 65.436a.488.488 0 0 1-.453-.453c0-.227.227-.453.453-.453.227 0 .453.226.453.453a.487.487 0 0 1-.453.453ZM451.155 66.115c-.679 0-1.359-.453-1.359-1.132 0-.906.68-1.359 1.359-1.359.679 0 1.359.453 1.359 1.36 0 .678-.68 1.132-1.359 1.132ZM419.001 67.021a2.03 2.03 0 0 1-2.038-2.038c0-1.359.906-2.265 2.038-2.265 1.359 0 2.265.906 2.265 2.265 0 1.132-.906 2.038-2.265 2.038ZM387.072 67.926c-1.586 0-2.944-1.358-2.944-2.943 0-1.812 1.358-2.944 2.944-2.944 1.585 0 2.944 1.132 2.944 2.944 0 1.585-1.359 2.943-2.944 2.943ZM355.146 68.38c-2.038 0-3.623-1.586-3.623-3.397 0-2.038 1.585-3.623 3.623-3.623 1.812 0 3.397 1.585 3.397 3.623 0 1.811-1.585 3.396-3.397 3.396ZM322.988 68.606c-2.038 0-3.623-1.585-3.623-3.623 0-2.264 1.585-3.849 3.623-3.849 2.265 0 3.85 1.585 3.85 3.85 0 2.037-1.585 3.622-3.85 3.622ZM291.06 68.832c-2.038 0-3.85-1.811-3.85-3.849 0-2.264 1.812-4.075 3.85-4.075 2.265 0 3.85 1.81 3.85 4.075 0 2.038-1.585 3.85-3.85 3.85ZM259.131 68.605c-2.265 0-3.85-1.585-3.85-3.622 0-2.264 1.585-3.85 3.85-3.85 2.038 0 3.849 1.586 3.849 3.85 0 2.037-1.811 3.622-3.849 3.622ZM226.98 68.38c-1.812 0-3.397-1.586-3.397-3.397 0-2.038 1.585-3.623 3.397-3.623 2.038 0 3.624 1.585 3.624 3.623 0 1.811-1.586 3.396-3.624 3.396ZM195.048 67.926c-1.585 0-2.944-1.359-2.944-2.943 0-1.812 1.359-2.944 2.944-2.944s2.944 1.132 2.944 2.944c0 1.584-1.359 2.943-2.944 2.943ZM163.12 67.248c-1.359 0-2.264-1.132-2.264-2.265 0-1.358.905-2.49 2.264-2.49 1.132 0 2.265 1.132 2.265 2.49 0 1.133-1.133 2.265-2.265 2.265ZM130.966 66.342c-.68 0-1.359-.68-1.359-1.359 0-.906.679-1.585 1.359-1.585.905 0 1.585.68 1.585 1.585 0 .68-.68 1.359-1.585 1.359ZM99.04 65.436a.487.487 0 0 1-.454-.453c0-.453.227-.68.453-.68.227 0 .453.227.453.68a.487.487 0 0 1-.453.453ZM515.008 97.361c-.226 0-.226-.226-.226-.453 0-.226 0-.453.226-.453.453 0 .453.227.453.453 0 .227 0 .453-.453.453ZM483.085 98.494c-.906 0-1.586-.68-1.586-1.586s.68-1.585 1.586-1.585 1.585.68 1.585 1.585c0 .906-.679 1.586-1.585 1.586ZM451.155 99.399c-1.358 0-2.717-1.132-2.717-2.49 0-1.36 1.359-2.491 2.717-2.491a2.513 2.513 0 0 1 2.491 2.49 2.513 2.513 0 0 1-2.491 2.49ZM418.998 100.531c-1.812 0-3.397-1.585-3.397-3.623 0-2.037 1.585-3.622 3.397-3.622 2.038 0 3.623 1.585 3.623 3.622 0 2.038-1.585 3.623-3.623 3.623ZM387.072 101.21c-2.264 0-4.302-1.811-4.302-4.302 0-2.49 2.038-4.302 4.302-4.302 2.491 0 4.303 1.812 4.303 4.302 0 2.49-1.812 4.302-4.303 4.302ZM355.143 101.89c-2.718 0-4.982-2.264-4.982-4.981 0-2.718 2.264-4.982 4.982-4.982 2.717 0 4.982 2.264 4.982 4.981 0 2.718-2.265 4.982-4.982 4.982ZM322.987 102.117c-2.944 0-5.209-2.264-5.209-5.208 0-2.944 2.265-5.435 5.209-5.435 2.944 0 5.435 2.491 5.435 5.435 0 2.944-2.491 5.208-5.435 5.208ZM291.057 102.343c-2.944 0-5.435-2.49-5.435-5.434s2.491-5.435 5.435-5.435c3.171 0 5.435 2.49 5.435 5.435 0 2.943-2.264 5.434-5.435 5.434ZM259.131 102.117c-2.944 0-5.435-2.264-5.435-5.208 0-2.944 2.491-5.435 5.435-5.435 2.944 0 5.209 2.491 5.209 5.435 0 2.944-2.265 5.208-5.209 5.208ZM226.979 101.89c-2.718 0-4.982-2.264-4.982-4.981 0-2.718 2.264-4.982 4.982-4.982 2.944 0 4.982 2.264 4.982 4.982 0 2.717-2.038 4.981-4.982 4.981ZM195.049 101.21c-2.491 0-4.303-1.811-4.303-4.302 0-2.49 1.812-4.302 4.303-4.302 2.491 0 4.303 1.812 4.303 4.302 0 2.49-1.812 4.302-4.303 4.302ZM163.121 100.531c-2.038 0-3.624-1.585-3.624-3.623 0-2.038 1.586-3.623 3.624-3.623 2.038 0 3.623 1.585 3.623 3.623 0 2.038-1.585 3.623-3.623 3.623ZM130.966 99.625c-1.359 0-2.717-1.132-2.717-2.717 0-1.585 1.358-2.717 2.717-2.717 1.585 0 2.944 1.132 2.944 2.717 0 1.585-1.359 2.717-2.944 2.717ZM99.036 98.494c-.906 0-1.585-.68-1.585-1.585 0-.906.679-1.812 1.585-1.812.906 0 1.585.906 1.585 1.812 0 .905-.68 1.585-1.585 1.585ZM67.11 97.36c-.453 0-.68-.225-.68-.452s.227-.453.68-.453c.226 0 .453.227.453.453a.487.487 0 0 1-.453.453ZM547.163 129.062c-.151 0-.227-.076-.227-.227 0-.152.076-.228.227-.228.152 0 .228.076.228.228 0 .151-.076.227-.228.227ZM515.012 130.193c-.679 0-1.132-.453-1.132-1.359 0-.679.453-1.359 1.132-1.359.906 0 1.359.68 1.359 1.359 0 .906-.453 1.359-1.359 1.359ZM483.085 131.551c-1.359 0-2.491-1.132-2.491-2.717a2.513 2.513 0 0 1 2.491-2.491 2.513 2.513 0 0 1 2.491 2.491c0 1.585-1.132 2.717-2.491 2.717ZM451.154 132.683c-2.038 0-3.85-1.812-3.85-3.849 0-2.038 1.812-3.623 3.85-3.623 2.038 0 3.623 1.585 3.623 3.623 0 2.037-1.585 3.849-3.623 3.849ZM418.996 133.589c-2.491 0-4.755-2.038-4.755-4.755 0-2.491 2.264-4.755 4.755-4.755 2.718 0 4.983 2.264 4.983 4.755 0 2.717-2.265 4.755-4.983 4.755ZM387.073 134.495c-3.171 0-5.662-2.491-5.662-5.661 0-3.17 2.491-5.661 5.662-5.661 3.17 0 5.661 2.491 5.661 5.661 0 3.17-2.491 5.661-5.661 5.661ZM355.145 135.175c-3.623 0-6.34-2.717-6.34-6.34 0-3.397 2.717-6.341 6.34-6.341 3.397 0 6.341 2.944 6.341 6.341 0 3.623-2.944 6.34-6.341 6.34ZM322.988 135.627c-3.623 0-6.793-2.944-6.793-6.793 0-3.623 3.17-6.793 6.793-6.793 3.85 0 7.02 3.17 7.02 6.793 0 3.849-3.17 6.793-7.02 6.793ZM291.062 135.852c-3.849 0-7.019-3.169-7.019-7.019 0-3.849 3.17-7.019 7.019-7.019 3.85 0 7.02 3.17 7.02 7.019 0 3.85-3.17 7.019-7.02 7.019ZM259.136 135.626c-3.849 0-6.793-2.943-6.793-6.793 0-3.622 2.944-6.792 6.793-6.792 3.624 0 6.794 3.17 6.794 6.792 0 3.85-3.17 6.793-6.794 6.793ZM226.978 135.401c-3.397 0-6.341-2.944-6.341-6.567s2.944-6.34 6.341-6.34c3.623 0 6.567 2.717 6.567 6.34a6.572 6.572 0 0 1-6.567 6.567ZM195.048 134.722c-3.171 0-5.662-2.718-5.662-5.888s2.491-5.661 5.662-5.661c3.17 0 5.888 2.491 5.888 5.661 0 3.17-2.718 5.888-5.888 5.888ZM163.121 133.816c-2.717 0-4.982-2.265-4.982-4.982s2.265-4.755 4.982-4.755c2.718 0 4.756 2.038 4.756 4.755s-2.038 4.982-4.756 4.982ZM130.967 132.909c-2.038 0-3.85-1.812-3.85-4.076 0-2.037 1.812-3.849 3.85-3.849 2.264 0 4.076 1.812 4.076 3.849a4.06 4.06 0 0 1-4.076 4.076ZM99.04 131.551c-1.585 0-2.717-1.132-2.717-2.717 0-1.359 1.132-2.717 2.717-2.717 1.586 0 2.718 1.358 2.718 2.717 0 1.585-1.132 2.717-2.718 2.717ZM67.11 130.419c-.906 0-1.585-.679-1.585-1.585 0-.68.68-1.359 1.585-1.359.68 0 1.359.679 1.359 1.359 0 .906-.68 1.585-1.359 1.585ZM34.956 129.287c-.226 0-.226-.226-.226-.453 0-.226 0-.226.226-.226.227 0 .453 0 .453.226a.487.487 0 0 1-.453.453ZM547.164 161.665c-.453 0-.905-.226-.905-.679 0-.453.452-.906.905-.906s.68.453.68.906-.227.679-.68.679ZM515.013 163.024a2.03 2.03 0 0 1-2.038-2.038c0-1.359.905-2.265 2.038-2.265 1.359 0 2.264.906 2.264 2.265 0 1.132-.905 2.038-2.264 2.038ZM483.084 164.381c-2.038 0-3.624-1.585-3.624-3.396 0-2.038 1.586-3.622 3.624-3.622 2.038 0 3.623 1.584 3.623 3.622 0 1.811-1.585 3.396-3.623 3.396ZM451.153 165.741c-2.718 0-4.756-2.264-4.756-4.755 0-2.717 2.038-4.982 4.756-4.982 2.491 0 4.755 2.265 4.755 4.982 0 2.491-2.264 4.755-4.755 4.755ZM418.995 166.873c-3.171 0-5.888-2.717-5.888-5.887 0-3.397 2.717-6.114 5.888-6.114a6.088 6.088 0 0 1 6.114 6.114c0 3.17-2.717 5.887-6.114 5.887ZM387.076 168.005c-3.85 0-7.02-3.17-7.02-7.019 0-3.85 3.17-7.019 7.02-7.019 3.85 0 7.02 3.169 7.02 7.019 0 3.849-3.17 7.019-7.02 7.019ZM355.145 168.684c-4.303 0-7.926-3.396-7.926-7.698 0-4.302 3.623-7.925 7.926-7.925 4.302 0 7.699 3.623 7.699 7.925s-3.397 7.698-7.699 7.698ZM322.987 169.137a8.118 8.118 0 0 1-8.152-8.151c0-4.755 3.623-8.378 8.152-8.378 4.755 0 8.378 3.623 8.378 8.378 0 4.528-3.623 8.151-8.378 8.151ZM291.059 169.59a8.6 8.6 0 0 1-8.604-8.604 8.6 8.6 0 0 1 8.604-8.604 8.6 8.6 0 0 1 8.605 8.604 8.6 8.6 0 0 1-8.605 8.604ZM259.133 169.363c-4.755 0-8.378-3.849-8.378-8.378 0-4.754 3.623-8.604 8.378-8.604 4.529 0 8.379 3.85 8.379 8.604 0 4.529-3.85 8.378-8.379 8.378ZM226.977 168.684c-4.303 0-7.699-3.396-7.699-7.698 0-4.529 3.396-7.925 7.699-7.925 4.529 0 7.925 3.396 7.925 7.925 0 4.302-3.396 7.698-7.925 7.698ZM195.047 168.004c-3.85 0-7.02-3.17-7.02-7.019 0-4.075 3.17-7.245 7.02-7.245 3.849 0 7.019 3.17 7.019 7.245 0 3.849-3.17 7.019-7.019 7.019ZM163.118 166.873c-3.397 0-6.115-2.717-6.115-5.887a6.089 6.089 0 0 1 6.115-6.114c3.17 0 5.888 2.717 5.888 6.114 0 3.17-2.718 5.887-5.888 5.887ZM130.967 165.741c-2.717 0-4.756-2.038-4.756-4.755 0-2.718 2.039-4.982 4.756-4.982 2.718 0 4.982 2.264 4.982 4.982 0 2.717-2.264 4.755-4.982 4.755ZM99.039 164.608c-2.038 0-3.624-1.812-3.624-3.623 0-2.038 1.586-3.622 3.624-3.622 2.038 0 3.623 1.584 3.623 3.622 0 1.811-1.585 3.623-3.623 3.623ZM67.11 163.25c-1.358 0-2.264-1.132-2.264-2.264 0-1.359.906-2.491 2.264-2.491 1.133 0 2.265 1.132 2.265 2.491 0 1.132-1.132 2.264-2.265 2.264ZM34.955 161.892c-.453 0-.906-.453-.906-.906 0-.679.453-1.132.906-1.132.679 0 1.132.453 1.132 1.132 0 .453-.453.906-1.132.906ZM579.093 193.139c-.151 0-.227-.076-.227-.227 0-.152.076-.228.227-.228.152 0 .227.076.227.228 0 .151-.075.227-.227.227ZM547.163 194.496c-.906 0-1.585-.679-1.585-1.585 0-.906.679-1.585 1.585-1.585.679 0 1.358.679 1.358 1.585 0 .906-.679 1.585-1.358 1.585ZM515.017 195.854c-1.585 0-2.718-1.358-2.718-2.943s1.133-2.944 2.718-2.944c1.812 0 2.944 1.359 2.944 2.944s-1.132 2.943-2.944 2.943ZM483.084 197.212c-2.265 0-4.303-1.811-4.303-4.301 0-2.491 2.038-4.302 4.303-4.302 2.491 0 4.303 1.811 4.303 4.302 0 2.49-1.812 4.301-4.303 4.301ZM451.155 198.572c-3.171 0-5.662-2.491-5.662-5.661 0-3.17 2.491-5.661 5.662-5.661 3.17 0 5.661 2.491 5.661 5.661 0 3.17-2.491 5.661-5.661 5.661ZM419 199.93c-3.85 0-7.02-3.17-7.02-7.019s3.17-7.019 7.02-7.019c4.076 0 7.02 3.17 7.02 7.019s-2.944 7.019-7.02 7.019ZM387.077 201.062a8.117 8.117 0 0 1-8.152-8.151 8.118 8.118 0 0 1 8.152-8.151 8.118 8.118 0 0 1 8.152 8.151 8.118 8.118 0 0 1-8.152 8.151ZM355.145 201.968c-5.208 0-9.284-4.076-9.284-9.057 0-4.981 4.076-9.057 9.284-9.057 4.982 0 9.058 4.076 9.058 9.057 0 4.981-4.076 9.057-9.058 9.057ZM322.99 202.647c-5.435 0-9.737-4.302-9.737-9.736 0-5.434 4.302-9.963 9.737-9.963 5.434 0 9.963 4.529 9.963 9.963 0 5.434-4.529 9.736-9.963 9.736ZM291.064 203.1a10.148 10.148 0 0 1-10.19-10.189 10.147 10.147 0 0 1 10.19-10.189c5.661 0 10.19 4.528 10.19 10.189 0 5.66-4.529 10.189-10.19 10.189ZM259.134 202.873c-5.434 0-9.963-4.528-9.963-9.962 0-5.435 4.529-9.963 9.963-9.963 5.435 0 9.964 4.528 9.964 9.963 0 5.434-4.529 9.962-9.964 9.962ZM226.978 202.194c-4.982 0-9.058-4.302-9.058-9.283 0-5.208 4.076-9.283 9.058-9.283 5.208 0 9.284 4.075 9.284 9.283 0 4.981-4.076 9.283-9.284 9.283ZM195.049 201.062a8.117 8.117 0 0 1-8.151-8.151c0-4.528 3.623-8.377 8.151-8.377 4.529 0 8.379 3.849 8.379 8.377 0 4.529-3.85 8.151-8.379 8.151ZM163.121 199.93c-4.076 0-7.246-3.17-7.246-7.019s3.17-7.019 7.246-7.019c3.849 0 7.02 3.17 7.02 7.019s-3.171 7.019-7.02 7.019ZM130.966 198.799c-3.171 0-5.662-2.717-5.662-5.887 0-3.171 2.491-5.888 5.662-5.888 3.396 0 5.888 2.717 5.888 5.888 0 3.17-2.492 5.887-5.888 5.887ZM99.04 197.439a4.542 4.542 0 0 1-4.53-4.528 4.542 4.542 0 0 1 4.53-4.529 4.542 4.542 0 0 1 4.528 4.529 4.542 4.542 0 0 1-4.529 4.528ZM67.11 195.854c-1.811 0-3.17-1.358-3.17-2.943s1.359-2.944 3.17-2.944c1.586 0 2.945 1.359 2.945 2.944s-1.36 2.943-2.944 2.943ZM34.955 194.497c-.906 0-1.585-.68-1.585-1.586 0-.905.679-1.585 1.585-1.585.906 0 1.585.68 1.585 1.585 0 .906-.68 1.586-1.585 1.586ZM3.024 193.139c-.152 0-.228-.076-.228-.227 0-.152.076-.228.228-.228.151 0 .227.076.227.228 0 .151-.076.227-.227.227ZM579.094 225.289a.486.486 0 0 1-.453-.453c0-.226.226-.452.453-.452.226 0 .453.226.453.452a.487.487 0 0 1-.453.453ZM547.165 226.875a2.03 2.03 0 0 1-2.038-2.038c0-.906.906-1.812 2.038-1.812 1.132 0 1.812.906 1.812 1.812 0 1.132-.68 2.038-1.812 2.038ZM515.017 228.458c-1.811 0-3.397-1.585-3.397-3.622 0-1.812 1.586-3.397 3.397-3.397 2.038 0 3.624 1.585 3.624 3.397 0 2.037-1.586 3.622-3.624 3.622ZM483.084 229.818c-2.717 0-4.982-2.264-4.982-4.981 0-2.718 2.265-4.982 4.982-4.982 2.718 0 4.982 2.264 4.982 4.982 0 2.717-2.264 4.981-4.982 4.981ZM451.155 231.404c-3.623 0-6.341-2.944-6.341-6.567 0-3.397 2.718-6.34 6.341-6.34 3.397 0 6.341 2.943 6.341 6.34 0 3.623-2.944 6.567-6.341 6.567ZM419.006 232.761c-4.302 0-7.699-3.623-7.699-7.925s3.397-7.698 7.699-7.698c4.303 0 7.926 3.396 7.926 7.698 0 4.302-3.623 7.925-7.926 7.925ZM387.075 234.119c-4.982 0-9.058-4.075-9.058-9.283 0-4.981 4.076-9.057 9.058-9.057s9.058 4.076 9.058 9.057c0 5.208-4.076 9.283-9.058 9.283ZM355.142 235.252c-5.887 0-10.416-4.529-10.416-10.416 0-5.66 4.529-10.415 10.416-10.415 5.661 0 10.417 4.755 10.417 10.415 0 5.887-4.756 10.416-10.417 10.416ZM322.988 236.157c-6.113 0-11.095-4.981-11.095-11.321 0-6.113 4.982-11.095 11.095-11.095 6.341 0 11.323 4.982 11.323 11.095 0 6.34-4.982 11.321-11.323 11.321ZM291.061 236.61c-6.34 0-11.775-5.208-11.775-11.774 0-6.34 5.435-11.547 11.775-11.547 6.567 0 11.775 5.207 11.775 11.547 0 6.566-5.208 11.774-11.775 11.774ZM259.131 236.158c-6.34 0-11.322-4.982-11.322-11.321 0-6.114 4.982-11.321 11.322-11.321 6.114 0 11.322 5.207 11.322 11.321 0 6.339-5.208 11.321-11.322 11.321ZM226.976 235.478c-5.661 0-10.416-4.755-10.416-10.642 0-5.66 4.755-10.415 10.416-10.415 5.888 0 10.643 4.755 10.643 10.415a10.63 10.63 0 0 1-10.643 10.642ZM195.05 234.119c-5.208 0-9.284-4.075-9.284-9.283 0-4.981 4.076-9.283 9.284-9.283 5.208 0 9.284 4.302 9.284 9.283 0 5.208-4.076 9.283-9.284 9.283ZM163.121 232.987a8.118 8.118 0 0 1-8.152-8.151c0-4.302 3.624-7.925 8.152-7.925 4.303 0 7.926 3.623 7.926 7.925 0 4.529-3.623 8.151-7.926 8.151ZM130.964 231.404c-3.397 0-6.341-2.944-6.341-6.567s2.944-6.341 6.341-6.341c3.623 0 6.567 2.718 6.567 6.341a6.572 6.572 0 0 1-6.567 6.567ZM99.037 230.044c-2.717 0-4.982-2.264-4.982-5.208 0-2.717 2.265-4.981 4.982-4.981 2.718 0 4.983 2.264 4.983 4.981 0 2.944-2.265 5.208-4.983 5.208ZM67.111 228.459c-2.038 0-3.623-1.585-3.623-3.623 0-2.038 1.585-3.622 3.623-3.622 2.038 0 3.623 1.584 3.623 3.622s-1.585 3.623-3.623 3.623ZM34.954 226.875a2.03 2.03 0 0 1-2.038-2.038 2.03 2.03 0 0 1 2.038-2.038 2.03 2.03 0 0 1 2.038 2.038 2.03 2.03 0 0 1-2.038 2.038ZM3.027 225.516c-.227 0-.68-.227-.68-.68 0-.226.453-.453.68-.453.453 0 .679.227.679.453 0 .453-.226.68-.68.68ZM579.094 257.668c-.453 0-.679-.453-.679-.68 0-.453.226-.905.679-.905.453 0 .679.452.679.905 0 .227-.226.68-.679.68ZM547.165 259.027c-1.359 0-2.265-.906-2.265-2.039 0-1.358.906-2.264 2.265-2.264 1.132 0 2.265.906 2.265 2.264 0 1.133-1.133 2.039-2.265 2.039ZM515.012 260.611c-2.039 0-3.624-1.585-3.624-3.623 0-2.264 1.585-3.849 3.624-3.849 2.264 0 3.849 1.585 3.849 3.849 0 2.038-1.585 3.623-3.849 3.623ZM483.084 262.197c-2.943 0-5.208-2.265-5.208-5.209 0-2.943 2.265-5.434 5.208-5.434 2.944 0 5.436 2.491 5.436 5.434 0 2.944-2.492 5.209-5.436 5.209ZM451.154 263.781c-3.85 0-6.793-3.17-6.793-6.793 0-3.849 2.943-7.019 6.793-7.019 3.623 0 6.793 3.17 6.793 7.019 0 3.623-3.17 6.793-6.793 6.793ZM419.001 265.139a8.118 8.118 0 0 1-8.152-8.151c0-4.755 3.623-8.378 8.152-8.378 4.755 0 8.378 3.623 8.378 8.378 0 4.528-3.623 8.151-8.378 8.151ZM387.074 266.725c-5.435 0-9.737-4.303-9.737-9.737s4.302-9.962 9.737-9.962c5.434 0 9.963 4.528 9.963 9.962s-4.529 9.737-9.963 9.737ZM355.143 268.082c-6.341 0-11.322-4.981-11.322-11.094 0-6.34 4.981-11.321 11.322-11.321 6.114 0 11.322 4.981 11.322 11.321 0 6.113-5.208 11.094-11.322 11.094ZM322.987 269.441c-6.793 0-12.454-5.661-12.454-12.453 0-7.019 5.661-12.68 12.454-12.68a12.66 12.66 0 0 1 12.681 12.68c0 6.792-5.661 12.453-12.681 12.453ZM291.062 270.121c-7.246 0-13.134-5.887-13.134-13.133 0-7.472 5.888-13.359 13.134-13.359s13.133 5.887 13.133 13.359c0 7.246-5.887 13.133-13.133 13.133ZM259.132 269.441c-7.02 0-12.681-5.66-12.681-12.453a12.659 12.659 0 0 1 12.681-12.679c6.793 0 12.454 5.66 12.454 12.679 0 6.793-5.661 12.453-12.454 12.453ZM226.977 268.309c-6.34 0-11.322-4.981-11.322-11.321s4.982-11.548 11.322-11.548c6.34 0 11.548 5.208 11.548 11.548s-5.208 11.321-11.548 11.321ZM195.048 266.951c-5.434 0-9.963-4.529-9.963-9.963 0-5.66 4.529-10.189 9.963-10.189 5.661 0 9.964 4.529 9.964 10.189 0 5.434-4.303 9.963-9.964 9.963ZM163.122 265.366c-4.756 0-8.605-3.849-8.605-8.378a8.6 8.6 0 0 1 8.605-8.604c4.755 0 8.378 3.849 8.378 8.604 0 4.529-3.623 8.378-8.378 8.378ZM130.969 264.007c-3.85 0-7.02-3.17-7.02-7.019s3.17-7.019 7.02-7.019c3.849 0 7.019 3.17 7.019 7.019s-3.17 7.019-7.019 7.019ZM99.041 262.423c-2.944 0-5.434-2.491-5.434-5.435 0-3.17 2.49-5.661 5.434-5.661 2.945 0 5.436 2.491 5.436 5.661 0 2.944-2.491 5.435-5.436 5.435ZM67.11 260.837c-2.265 0-4.077-1.812-4.077-3.849a4.06 4.06 0 0 1 4.076-4.076c2.038 0 3.85 1.812 3.85 4.076 0 2.037-1.812 3.849-3.85 3.849ZM34.956 259.253c-1.132 0-2.264-1.132-2.264-2.265 0-1.359 1.132-2.491 2.264-2.491a2.513 2.513 0 0 1 2.491 2.491c0 1.133-1.132 2.265-2.49 2.265ZM3.027 257.894c-.453 0-.906-.453-.906-.906 0-.679.453-.905.906-.905s.906.226.906.905c0 .453-.453.906-.906.906ZM579.094 289.593c-.453 0-.679-.227-.679-.68 0-.453.226-.905.679-.905.453 0 .906.452.906.905s-.453.68-.906.68ZM547.165 291.179c-1.359 0-2.265-.906-2.265-2.265s.906-2.265 2.265-2.265c1.132 0 2.265.906 2.265 2.265s-1.133 2.265-2.265 2.265ZM515.014 292.763c-2.039 0-3.85-1.812-3.85-3.85 0-2.264 1.811-3.849 3.85-3.849 2.264 0 4.076 1.585 4.076 3.849 0 2.038-1.812 3.85-4.076 3.85ZM483.084 294.349c-2.943 0-5.435-2.491-5.435-5.435 0-2.944 2.492-5.435 5.435-5.435 3.171 0 5.436 2.491 5.436 5.435 0 2.944-2.265 5.435-5.436 5.435ZM451.154 295.932c-3.849 0-7.02-3.17-7.02-7.019s3.171-7.019 7.02-7.019c3.85 0 7.02 3.17 7.02 7.019s-3.17 7.019-7.02 7.019ZM419.005 297.518a8.6 8.6 0 0 1-8.605-8.604 8.6 8.6 0 0 1 8.605-8.604 8.6 8.6 0 0 1 8.604 8.604 8.6 8.6 0 0 1-8.604 8.604ZM387.074 299.102a10.147 10.147 0 0 1-10.19-10.189c0-5.66 4.529-10.189 10.19-10.189s10.19 4.529 10.19 10.189a10.147 10.147 0 0 1-10.19 10.189ZM355.143 300.687c-6.567 0-11.775-5.208-11.775-11.774 0-6.566 5.208-11.774 11.775-11.774 6.34 0 11.775 5.208 11.775 11.774 0 6.566-5.435 11.774-11.775 11.774ZM322.991 302.046c-7.246 0-13.133-5.887-13.133-13.133 0-7.245 5.887-13.132 13.133-13.132 7.473 0 13.361 5.887 13.361 13.132 0 7.246-5.888 13.133-13.361 13.133ZM291.062 303.178a14.207 14.207 0 0 1-14.266-14.265 14.206 14.206 0 0 1 14.266-14.264c7.926 0 14.266 6.34 14.266 14.264 0 7.925-6.34 14.265-14.266 14.265ZM259.132 302.272c-7.472 0-13.36-6.113-13.36-13.358 0-7.472 5.888-13.359 13.36-13.359 7.246 0 13.36 5.887 13.36 13.359 0 7.245-6.114 13.358-13.36 13.358ZM226.979 300.687c-6.34 0-11.775-5.208-11.775-11.774 0-6.566 5.435-11.774 11.775-11.774 6.567 0 12.001 5.208 12.001 11.774 0 6.566-5.434 11.774-12.001 11.774ZM195.049 299.102a10.147 10.147 0 0 1-10.19-10.189 10.146 10.146 0 0 1 10.19-10.189c5.661 0 10.416 4.528 10.416 10.189 0 5.66-4.755 10.189-10.416 10.189ZM163.122 297.517c-4.755 0-8.831-3.849-8.831-8.604 0-4.755 4.076-8.604 8.831-8.604a8.6 8.6 0 0 1 8.605 8.604 8.6 8.6 0 0 1-8.605 8.604ZM130.971 296.158c-3.85 0-7.02-3.396-7.02-7.245 0-4.076 3.17-7.246 7.02-7.246 4.076 0 7.246 3.17 7.246 7.246 0 3.849-3.17 7.245-7.246 7.245ZM99.038 294.575c-3.17 0-5.662-2.491-5.662-5.661 0-3.17 2.491-5.661 5.662-5.661 3.17 0 5.661 2.491 5.661 5.661 0 3.17-2.491 5.661-5.661 5.661ZM67.111 292.989a4.06 4.06 0 0 1-4.076-4.076 4.059 4.059 0 0 1 4.076-4.075 4.059 4.059 0 0 1 4.076 4.075 4.06 4.06 0 0 1-4.076 4.076ZM34.956 291.404a2.513 2.513 0 0 1-2.49-2.491 2.513 2.513 0 0 1 2.49-2.49 2.513 2.513 0 0 1 2.491 2.49 2.513 2.513 0 0 1-2.49 2.491ZM3.027 289.819c-.453 0-.906-.452-.906-.905s.453-.906.906-.906.906.453.906.906-.453.905-.906.905ZM579.094 321.518c-.453 0-.679-.226-.679-.679 0-.226.226-.679.679-.679.453 0 .679.453.679.679 0 .453-.226.679-.679.679ZM547.165 323.104c-1.359 0-2.265-.906-2.265-2.265 0-1.132.906-2.038 2.265-2.038 1.132 0 2.265.906 2.265 2.038 0 1.359-1.133 2.265-2.265 2.265ZM515.012 324.688c-2.039 0-3.624-1.585-3.624-3.849 0-2.038 1.585-3.849 3.624-3.849 2.264 0 3.849 1.811 3.849 3.849 0 2.264-1.585 3.849-3.849 3.849ZM483.084 326.274c-2.943 0-5.208-2.491-5.208-5.435 0-2.943 2.265-5.208 5.208-5.208 2.944 0 5.436 2.265 5.436 5.208 0 2.944-2.492 5.435-5.436 5.435ZM451.154 327.632c-3.85 0-6.793-2.944-6.793-6.793 0-3.623 2.943-6.793 6.793-6.793 3.623 0 6.793 3.17 6.793 6.793 0 3.849-3.17 6.793-6.793 6.793ZM419.005 329.443c-4.529 0-8.379-3.849-8.379-8.604 0-4.528 3.85-8.377 8.379-8.377 4.755 0 8.604 3.849 8.604 8.377a8.6 8.6 0 0 1-8.604 8.604ZM387.074 330.802c-5.435 0-9.964-4.302-9.964-9.963 0-5.434 4.529-9.963 9.964-9.963 5.434 0 9.963 4.529 9.963 9.963 0 5.661-4.529 9.963-9.963 9.963ZM355.143 332.16c-6.341 0-11.322-4.981-11.322-11.321 0-6.113 4.981-11.321 11.322-11.321 6.114 0 11.322 5.208 11.322 11.321 0 6.34-5.208 11.321-11.322 11.321ZM322.987 333.518c-6.793 0-12.454-5.661-12.454-12.68 0-6.792 5.661-12.453 12.454-12.453 7.02 0 12.681 5.661 12.681 12.453a12.66 12.66 0 0 1-12.681 12.68ZM291.062 334.197c-7.246 0-13.36-5.887-13.36-13.359 0-7.245 6.114-13.132 13.36-13.132 7.472 0 13.36 5.887 13.36 13.132 0 7.472-5.888 13.359-13.36 13.359ZM259.134 333.745c-7.02 0-12.907-5.887-12.907-12.906 0-7.02 5.887-12.68 12.907-12.68 7.019 0 12.68 5.66 12.68 12.68 0 7.019-5.661 12.906-12.68 12.906ZM226.977 332.387c-6.34 0-11.322-5.208-11.322-11.548s4.982-11.321 11.322-11.321c6.34 0 11.548 4.981 11.548 11.321s-5.208 11.548-11.548 11.548ZM195.048 331.027c-5.434 0-9.963-4.528-9.963-10.189 0-5.434 4.529-9.963 9.963-9.963 5.661 0 9.964 4.529 9.964 9.963 0 5.661-4.303 10.189-9.964 10.189ZM163.122 329.443a8.6 8.6 0 0 1-8.605-8.604c0-4.528 3.849-8.377 8.605-8.377 4.755 0 8.378 3.849 8.378 8.377 0 4.755-3.623 8.604-8.378 8.604ZM130.969 327.858c-3.85 0-7.02-3.17-7.02-7.019 0-3.85 3.17-7.019 7.02-7.019 3.849 0 7.019 3.169 7.019 7.019 0 3.849-3.17 7.019-7.019 7.019ZM99.041 326.5c-2.944 0-5.434-2.49-5.434-5.661 0-2.943 2.49-5.434 5.434-5.434 2.945 0 5.436 2.491 5.436 5.434 0 3.171-2.491 5.661-5.436 5.661ZM67.11 324.914a4.059 4.059 0 0 1-4.077-4.075c0-2.038 1.812-3.849 4.076-3.849 2.038 0 3.85 1.811 3.85 3.849 0 2.264-1.812 4.075-3.85 4.075ZM34.956 323.33c-1.132 0-2.264-1.132-2.264-2.491 0-1.358 1.132-2.264 2.264-2.264 1.359 0 2.491.906 2.491 2.264a2.513 2.513 0 0 1-2.49 2.491ZM3.027 321.745c-.453 0-.906-.453-.906-.906s.453-.906.906-.906.906.453.906.906-.453.906-.906.906ZM579.094 353.444a.488.488 0 0 1-.453-.453c0-.453.227-.68.453-.68.227 0 .679.227.679.68 0 .226-.452.453-.679.453ZM547.165 354.802c-1.132 0-2.038-.905-2.038-1.811a2.03 2.03 0 0 1 2.038-2.038c1.132 0 1.812.905 1.812 2.038 0 .906-.68 1.811-1.812 1.811ZM515.017 356.387c-1.811 0-3.397-1.585-3.397-3.396 0-2.038 1.586-3.623 3.397-3.623 2.038 0 3.624 1.585 3.624 3.623 0 1.811-1.586 3.396-3.624 3.396ZM483.084 357.973c-2.717 0-4.982-2.265-4.982-4.982s2.265-4.981 4.982-4.981c2.718 0 4.982 2.264 4.982 4.981s-2.264 4.982-4.982 4.982ZM451.155 359.331c-3.623 0-6.567-2.944-6.567-6.34a6.572 6.572 0 0 1 6.567-6.567c3.624 0 6.341 2.944 6.341 6.567 0 3.396-2.717 6.34-6.341 6.34ZM419.006 360.916c-4.302 0-7.699-3.623-7.699-7.925 0-4.529 3.397-7.925 7.699-7.925 4.529 0 7.926 3.396 7.926 7.925 0 4.302-3.397 7.925-7.926 7.925ZM387.075 362.047c-4.981 0-9.284-4.075-9.284-9.057 0-5.207 4.303-9.283 9.284-9.283 5.208 0 9.284 4.076 9.284 9.283 0 4.982-4.076 9.057-9.284 9.057ZM355.142 363.406c-5.887 0-10.416-4.755-10.416-10.416 0-5.887 4.529-10.641 10.416-10.641 5.661 0 10.417 4.754 10.417 10.641 0 5.661-4.756 10.416-10.417 10.416ZM322.987 364.311c-6.114 0-11.322-4.981-11.322-11.321 0-6.339 5.208-11.547 11.322-11.547 6.34 0 11.548 5.208 11.548 11.547 0 6.34-5.208 11.321-11.548 11.321ZM291.061 364.765c-6.567 0-11.775-5.434-11.775-11.774 0-6.566 5.208-11.774 11.775-11.774s11.775 5.208 11.775 11.774c0 6.34-5.208 11.774-11.775 11.774ZM259.131 364.311c-6.34 0-11.549-4.981-11.549-11.321 0-6.339 5.209-11.547 11.549-11.547s11.322 5.208 11.322 11.547c0 6.34-4.982 11.321-11.322 11.321ZM226.976 363.406c-5.661 0-10.416-4.755-10.416-10.416 0-5.887 4.755-10.641 10.416-10.641a10.63 10.63 0 0 1 10.643 10.641c0 5.661-4.755 10.416-10.643 10.416ZM195.05 362.274c-5.208 0-9.284-4.302-9.284-9.283 0-5.208 4.076-9.51 9.284-9.51 5.208 0 9.284 4.302 9.284 9.51 0 4.981-4.076 9.283-9.284 9.283ZM163.121 360.915c-4.528 0-8.152-3.622-8.152-7.924a8.119 8.119 0 0 1 8.152-8.152c4.303 0 7.926 3.623 7.926 8.152 0 4.302-3.623 7.924-7.926 7.924ZM130.964 359.556a6.57 6.57 0 0 1-6.566-6.566 6.57 6.57 0 0 1 6.566-6.566 6.572 6.572 0 0 1 6.567 6.566 6.571 6.571 0 0 1-6.567 6.566ZM99.041 357.973c-2.944 0-5.208-2.264-5.208-4.982 0-2.943 2.264-5.208 5.208-5.208 2.944 0 5.209 2.265 5.209 5.208 0 2.718-2.265 4.982-5.209 4.982ZM67.111 356.613c-2.038 0-3.623-1.585-3.623-3.623 0-2.037 1.585-3.622 3.623-3.622 2.038 0 3.623 1.585 3.623 3.622 0 2.038-1.585 3.623-3.623 3.623ZM34.955 355.03a2.03 2.03 0 0 1-2.038-2.039c0-1.358.906-2.264 2.038-2.264 1.359 0 2.265.906 2.265 2.264 0 1.133-.906 2.039-2.265 2.039ZM3.027 353.444c-.227 0-.68-.227-.68-.453 0-.453.453-.68.68-.68.453 0 .679.227.679.68 0 .226-.226.453-.68.453ZM579.093 385.144c-.151 0-.227-.075-.227-.227 0-.151.076-.227.227-.227.152 0 .227.076.227.227 0 .152-.075.227-.227.227ZM547.163 386.502c-.906 0-1.585-.68-1.585-1.586s.679-1.585 1.585-1.585c.679 0 1.358.679 1.358 1.585 0 .906-.679 1.586-1.358 1.586ZM515.017 387.859c-1.585 0-2.718-1.358-2.718-2.943s1.133-2.943 2.718-2.943c1.812 0 2.944 1.358 2.944 2.943s-1.132 2.943-2.944 2.943ZM483.084 389.218c-2.265 0-4.303-1.812-4.303-4.302 0-2.491 2.038-4.302 4.303-4.302 2.491 0 4.303 1.811 4.303 4.302 0 2.49-1.812 4.302-4.303 4.302ZM451.155 390.577c-3.171 0-5.888-2.491-5.888-5.661 0-3.17 2.717-5.661 5.888-5.661 3.17 0 5.661 2.491 5.661 5.661 0 3.17-2.491 5.661-5.661 5.661ZM418.998 391.935c-3.85 0-7.02-3.17-7.02-7.019s3.17-7.019 7.02-7.019c4.076 0 7.246 3.17 7.246 7.019s-3.17 7.019-7.246 7.019ZM387.073 393.067a8.118 8.118 0 0 1-8.152-8.151 8.117 8.117 0 0 1 8.152-8.151c4.529 0 8.378 3.622 8.378 8.151 0 4.528-3.849 8.151-8.378 8.151ZM355.144 394.199c-5.209 0-9.284-4.076-9.284-9.283 0-5.208 4.075-9.283 9.284-9.283 4.981 0 9.284 4.075 9.284 9.283 0 5.207-4.303 9.283-9.284 9.283ZM322.988 394.878c-5.435 0-9.964-4.528-9.964-9.962s4.529-9.963 9.964-9.963c5.661 0 10.19 4.529 10.19 9.963 0 5.434-4.529 9.962-10.19 9.962ZM291.064 395.105a10.148 10.148 0 0 1-10.19-10.189 10.147 10.147 0 0 1 10.19-10.189c5.661 0 10.416 4.528 10.416 10.189 0 5.66-4.755 10.189-10.416 10.189ZM259.134 394.878c-5.661 0-10.19-4.529-10.19-9.963 0-5.434 4.529-9.962 10.19-9.962 5.435 0 9.964 4.528 9.964 9.962s-4.529 9.963-9.964 9.963ZM226.978 394.2c-4.982 0-9.284-4.076-9.284-9.284 0-5.207 4.302-9.283 9.284-9.283 5.208 0 9.51 4.076 9.51 9.283 0 5.208-4.302 9.284-9.51 9.284ZM195.049 393.294c-4.528 0-8.378-3.623-8.378-8.378s3.85-8.378 8.378-8.378c4.756 0 8.379 3.623 8.379 8.378s-3.623 8.378-8.379 8.378ZM163.121 392.161c-4.076 0-7.246-3.17-7.246-7.245 0-4.076 3.17-7.246 7.246-7.246 3.849 0 7.02 3.17 7.02 7.246 0 4.075-3.171 7.245-7.02 7.245ZM130.968 390.804c-3.171 0-5.888-2.717-5.888-5.888 0-3.396 2.717-5.887 5.888-5.887 3.396 0 6.114 2.491 6.114 5.887 0 3.171-2.718 5.888-6.114 5.888ZM99.04 389.444a4.542 4.542 0 0 1-4.53-4.529 4.542 4.542 0 0 1 4.53-4.528 4.542 4.542 0 0 1 4.528 4.528 4.542 4.542 0 0 1-4.529 4.529ZM67.11 388.085c-1.811 0-3.17-1.358-3.17-3.17 0-1.811 1.359-3.169 3.17-3.169 1.586 0 2.945 1.358 2.945 3.169 0 1.812-1.36 3.17-2.944 3.17ZM34.954 386.501c-.906 0-1.585-.68-1.585-1.585 0-.906.68-1.586 1.585-1.586.906 0 1.812.68 1.812 1.586 0 .905-.906 1.585-1.812 1.585ZM3.024 385.144c-.152 0-.228-.075-.228-.227 0-.151.076-.227.228-.227.151 0 .227.076.227.227 0 .152-.076.227-.227.227ZM547.164 417.747c-.452 0-.905-.452-.905-.905s.453-.906.905-.906c.453 0 .906.453.906.906s-.453.905-.906.905ZM515.017 419.334c-1.133 0-2.265-1.133-2.265-2.492 0-1.132 1.132-2.264 2.265-2.264 1.359 0 2.491 1.132 2.491 2.264a2.514 2.514 0 0 1-2.491 2.492ZM483.084 420.464c-2.038 0-3.624-1.585-3.624-3.623 0-2.038 1.586-3.622 3.624-3.622 2.038 0 3.623 1.584 3.623 3.622s-1.585 3.623-3.623 3.623ZM451.153 421.823c-2.718 0-4.983-2.264-4.983-4.981 0-2.718 2.265-4.756 4.983-4.756 2.717 0 4.755 2.038 4.755 4.756 0 2.717-2.038 4.981-4.755 4.981ZM418.995 422.955c-3.171 0-5.888-2.717-5.888-6.114 0-3.17 2.717-5.887 5.888-5.887 3.397 0 6.114 2.717 6.114 5.887a6.088 6.088 0 0 1-6.114 6.114ZM387.076 424.087c-3.85 0-7.02-3.17-7.02-7.246 0-3.849 3.17-7.019 7.02-7.019 3.85 0 7.02 3.17 7.02 7.019 0 4.076-3.17 7.246-7.02 7.246ZM355.145 424.992a8.117 8.117 0 0 1-8.152-8.151c0-4.302 3.623-7.924 8.152-7.924 4.302 0 7.925 3.622 7.925 7.924 0 4.529-3.623 8.151-7.925 8.151ZM322.987 425.446c-4.529 0-8.378-3.849-8.378-8.604 0-4.529 3.849-8.378 8.378-8.378 4.755 0 8.605 3.849 8.605 8.378a8.6 8.6 0 0 1-8.605 8.604ZM291.059 425.671c-4.755 0-8.604-3.849-8.604-8.83a8.6 8.6 0 0 1 8.604-8.604 8.6 8.6 0 0 1 8.605 8.604c0 4.981-3.849 8.83-8.605 8.83ZM259.133 425.445a8.6 8.6 0 0 1-8.604-8.604c0-4.528 3.849-8.377 8.604-8.377 4.756 0 8.379 3.849 8.379 8.377 0 4.755-3.623 8.604-8.379 8.604ZM226.977 424.992c-4.302 0-7.925-3.623-7.925-8.151 0-4.302 3.623-7.925 7.925-7.925 4.529 0 8.152 3.623 8.152 7.925a8.118 8.118 0 0 1-8.152 8.151ZM195.051 424.087c-3.85 0-7.246-3.17-7.246-7.246 0-3.849 3.396-7.019 7.246-7.019 4.076 0 7.246 3.17 7.246 7.019 0 4.076-3.17 7.246-7.246 7.246ZM163.118 423.182c-3.397 0-6.341-2.944-6.341-6.34 0-3.397 2.944-6.114 6.341-6.114a6.088 6.088 0 0 1 6.114 6.114c0 3.396-2.717 6.34-6.114 6.34ZM130.967 421.823c-2.717 0-4.982-2.264-4.982-4.982 0-2.717 2.265-4.981 4.982-4.981 2.944 0 4.982 2.264 4.982 4.981 0 2.718-2.038 4.982-4.982 4.982ZM99.04 420.69c-2.037 0-3.623-1.811-3.623-3.849 0-2.038 1.586-3.623 3.624-3.623 2.038 0 3.85 1.585 3.85 3.623 0 2.038-1.812 3.849-3.85 3.849ZM67.11 419.332a2.513 2.513 0 0 1-2.49-2.491 2.513 2.513 0 0 1 2.49-2.49 2.513 2.513 0 0 1 2.492 2.49 2.513 2.513 0 0 1-2.492 2.491ZM34.955 417.974c-.453 0-.906-.453-.906-1.132 0-.453.453-.906.906-.906.679 0 1.132.453 1.132.906 0 .679-.453 1.132-1.132 1.132ZM547.164 449.22c-.151 0-.226-.076-.226-.227 0-.151.075-.302.226-.453.151.151.227.302.227.453 0 .151-.076.227-.227.227ZM515.016 450.352c-.679 0-1.358-.679-1.358-1.359 0-.906.679-1.585 1.358-1.585.906 0 1.586.679 1.586 1.585 0 .68-.68 1.359-1.586 1.359ZM483.085 451.71c-1.585 0-2.717-1.359-2.717-2.717 0-1.585 1.132-2.717 2.717-2.717 1.585 0 2.718 1.132 2.718 2.717 0 1.358-1.133 2.717-2.718 2.717ZM451.152 452.842c-2.264 0-3.85-1.811-3.85-3.849 0-2.264 1.586-4.076 3.85-4.076 2.038 0 3.85 1.812 3.85 4.076 0 2.038-1.812 3.849-3.85 3.849ZM418.996 453.748c-2.491 0-4.755-2.038-4.755-4.755 0-2.718 2.264-4.982 4.755-4.982 2.718 0 4.983 2.264 4.983 4.982 0 2.717-2.265 4.755-4.983 4.755ZM387.075 454.881c-3.171 0-5.888-2.717-5.888-5.887 0-3.397 2.717-5.888 5.888-5.888 3.17 0 5.888 2.491 5.888 5.888 0 3.17-2.718 5.887-5.888 5.887ZM355.145 455.334c-3.623 0-6.567-2.944-6.567-6.34a6.572 6.572 0 0 1 6.567-6.567c3.624 0 6.341 2.944 6.341 6.567 0 3.396-2.717 6.34-6.341 6.34ZM322.988 456.012c-3.849 0-7.02-3.17-7.02-7.019s3.171-7.019 7.02-7.019c4.076 0 7.02 3.17 7.02 7.019s-2.944 7.019-7.02 7.019ZM291.061 456.012c-3.85 0-7.247-3.17-7.247-7.019 0-4.075 3.397-7.245 7.247-7.245 4.075 0 7.246 3.17 7.246 7.245 0 3.849-3.171 7.019-7.246 7.019ZM259.135 456.012c-3.85 0-7.02-3.17-7.02-7.019s3.17-7.019 7.02-7.019c3.849 0 7.019 3.17 7.019 7.019s-3.17 7.019-7.019 7.019ZM226.978 455.559a6.572 6.572 0 0 1-6.567-6.566 6.571 6.571 0 0 1 6.567-6.566 6.571 6.571 0 0 1 6.567 6.566 6.572 6.572 0 0 1-6.567 6.566ZM195.048 454.881c-3.171 0-5.888-2.717-5.888-5.888 0-3.396 2.717-6.113 5.888-6.113 3.396 0 5.888 2.717 5.888 6.113 0 3.171-2.492 5.888-5.888 5.888ZM163.121 453.975c-2.717 0-4.982-2.265-4.982-4.982s2.265-4.982 4.982-4.982c2.718 0 4.983 2.265 4.983 4.982s-2.265 4.982-4.983 4.982ZM130.967 452.842c-2.038 0-3.85-1.811-3.85-3.849 0-2.264 1.812-4.076 3.85-4.076a4.06 4.06 0 0 1 4.076 4.076c0 2.038-1.812 3.849-4.076 3.849ZM99.042 451.71c-1.585 0-2.717-1.132-2.717-2.717 0-1.585 1.132-2.943 2.717-2.943 1.586 0 2.944 1.358 2.944 2.943s-1.358 2.717-2.944 2.717ZM67.11 450.578c-.906 0-1.585-.679-1.585-1.585 0-.906.68-1.585 1.585-1.585.906 0 1.585.679 1.585 1.585 0 .906-.68 1.585-1.585 1.585ZM34.956 449.22c-.226 0-.226 0-.226-.227 0-.226 0-.452.226-.452.227 0 .453.226.453.452 0 .227-.226.227-.453.227ZM515.01 481.371a.487.487 0 0 1-.453-.453c0-.226.227-.452.453-.452.453 0 .679.226.679.452 0 .227-.226.453-.679.453ZM483.083 482.503c-.906 0-1.585-.679-1.585-1.585 0-.906.679-1.585 1.585-1.585.906 0 1.812.679 1.812 1.585 0 .906-.906 1.585-1.812 1.585ZM451.156 483.635c-1.586 0-2.718-1.132-2.718-2.717 0-1.585 1.132-2.717 2.718-2.717 1.358 0 2.717 1.132 2.717 2.717 0 1.585-1.359 2.717-2.717 2.717ZM418.998 484.541c-1.812 0-3.624-1.585-3.624-3.622 0-2.038 1.812-3.623 3.624-3.623 2.038 0 3.85 1.585 3.85 3.623 0 2.037-1.812 3.622-3.85 3.622ZM387.076 485.447c-2.491 0-4.302-2.038-4.302-4.529 0-2.49 1.811-4.528 4.302-4.528a4.542 4.542 0 0 1 4.529 4.528 4.542 4.542 0 0 1-4.529 4.529ZM355.143 485.9c-2.944 0-5.209-2.264-5.209-4.982 0-2.717 2.265-4.981 5.209-4.981 2.717 0 4.982 2.264 4.982 4.981 0 2.718-2.265 4.982-4.982 4.982ZM322.987 486.354c-2.944 0-5.435-2.491-5.435-5.435 0-2.944 2.491-5.435 5.435-5.435 3.17 0 5.661 2.491 5.661 5.435 0 2.944-2.491 5.435-5.661 5.435ZM291.057 486.58c-3.17 0-5.661-2.491-5.661-5.661 0-3.17 2.491-5.661 5.661-5.661 3.171 0 5.662 2.491 5.662 5.661 0 3.17-2.491 5.661-5.662 5.661ZM259.135 486.353c-3.17 0-5.661-2.491-5.661-5.435 0-2.944 2.491-5.435 5.661-5.435 2.944 0 5.435 2.491 5.435 5.435 0 2.944-2.491 5.435-5.435 5.435ZM226.979 486.127c-2.718 0-4.982-2.265-4.982-5.208 0-2.944 2.264-5.209 4.982-5.209 2.944 0 5.209 2.265 5.209 5.209 0 2.943-2.265 5.208-5.209 5.208ZM195.049 485.447a4.542 4.542 0 0 1-4.529-4.528 4.542 4.542 0 0 1 4.529-4.529 4.542 4.542 0 0 1 4.529 4.529 4.542 4.542 0 0 1-4.529 4.528ZM163.121 484.541c-2.038 0-3.85-1.585-3.85-3.623 0-2.038 1.812-3.623 3.85-3.623 2.038 0 3.623 1.585 3.623 3.623 0 2.038-1.585 3.623-3.623 3.623ZM130.966 483.862c-1.585 0-2.717-1.359-2.717-2.944 0-1.584 1.132-2.943 2.717-2.943 1.585 0 2.944 1.359 2.944 2.943 0 1.585-1.359 2.944-2.944 2.944ZM99.044 482.731c-.906 0-1.812-.906-1.812-1.812s.906-1.812 1.812-1.812 1.811.906 1.811 1.812-.905 1.812-1.811 1.812ZM67.11 481.598c-.453 0-.68-.227-.68-.68 0-.453.227-.679.68-.679.226 0 .453.226.453.679 0 .453-.227.68-.453.68ZM483.086 513.523c-.226 0-.453-.226-.453-.679 0-.226.227-.453.453-.453.227 0 .453.227.453.453 0 .453-.226.679-.453.679ZM451.155 514.429c-.906 0-1.585-.68-1.585-1.585 0-.68.679-1.359 1.585-1.359.679 0 1.359.679 1.359 1.359 0 .905-.68 1.585-1.359 1.585ZM419.001 515.335c-1.132 0-2.264-1.132-2.264-2.491 0-1.132 1.132-2.264 2.264-2.264 1.359 0 2.491 1.132 2.491 2.264a2.513 2.513 0 0 1-2.491 2.491ZM387.072 516.014c-1.586 0-2.944-1.358-2.944-3.17 0-1.585 1.358-2.943 2.944-2.943 1.585 0 2.944 1.358 2.944 2.943 0 1.812-1.359 3.17-2.944 3.17ZM355.146 516.466c-2.038 0-3.623-1.585-3.623-3.622 0-2.038 1.585-3.623 3.623-3.623 2.038 0 3.624 1.585 3.624 3.623 0 2.037-1.586 3.622-3.624 3.622ZM322.988 516.919c-2.038 0-3.85-1.811-3.85-4.075 0-2.038 1.812-3.849 3.85-3.849 2.265 0 4.076 1.811 4.076 3.849a4.058 4.058 0 0 1-4.076 4.075ZM291.06 516.919a4.059 4.059 0 0 1-4.076-4.076 4.059 4.059 0 0 1 4.076-4.075 4.059 4.059 0 0 1 4.077 4.075 4.06 4.06 0 0 1-4.077 4.076ZM259.131 516.919a4.059 4.059 0 0 1-4.077-4.075c0-2.038 1.812-3.849 4.077-3.849 2.038 0 3.849 1.811 3.849 3.849 0 2.264-1.811 4.075-3.849 4.075ZM226.98 516.466c-1.812 0-3.623-1.585-3.623-3.622 0-2.038 1.811-3.623 3.623-3.623 2.038 0 3.624 1.585 3.624 3.623 0 2.037-1.586 3.622-3.624 3.622ZM195.048 516.014c-1.811 0-3.17-1.359-3.17-3.17 0-1.585 1.359-2.944 3.17-2.944 1.812 0 3.171 1.359 3.171 2.944 0 1.811-1.359 3.17-3.171 3.17ZM163.12 515.334c-1.358 0-2.491-1.132-2.491-2.49a2.513 2.513 0 0 1 2.491-2.491 2.513 2.513 0 0 1 2.491 2.491 2.513 2.513 0 0 1-2.491 2.49ZM130.966 514.429c-.906 0-1.586-.679-1.586-1.585 0-.906.68-1.585 1.586-1.585.905 0 1.585.679 1.585 1.585 0 .906-.68 1.585-1.585 1.585ZM99.04 513.523c-.227 0-.68-.226-.68-.679 0-.226.453-.453.68-.453.452 0 .679.227.679.453 0 .453-.227.679-.68.679ZM67.11 513.071c-.152 0-.228-.076-.228-.228h.227v.228ZM451.154 545.222c-.226 0-.453 0-.453-.227 0-.226.227-.453.453-.453.227 0 .227.227.227.453 0 .227 0 .227-.227.227ZM419.001 545.902c-.453 0-.906-.453-.906-.906 0-.679.453-1.132.906-1.132.679 0 1.132.453 1.132 1.132 0 .453-.453.906-1.132.906ZM387.071 546.581c-.906 0-1.585-.679-1.585-1.585 0-.906.679-1.585 1.585-1.585.906 0 1.585.679 1.585 1.585 0 .906-.679 1.585-1.585 1.585ZM355.142 547.034a2.03 2.03 0 0 1-2.039-2.038 2.03 2.03 0 0 1 2.039-2.038 2.03 2.03 0 0 1 2.038 2.038 2.03 2.03 0 0 1-2.038 2.038ZM322.987 547.261c-1.132 0-2.264-.906-2.264-2.265s1.132-2.491 2.264-2.491a2.514 2.514 0 0 1 2.492 2.491c0 1.359-1.133 2.265-2.492 2.265ZM291.064 547.486a2.513 2.513 0 0 1-2.491-2.49 2.513 2.513 0 0 1 2.491-2.491 2.513 2.513 0 0 1 2.491 2.491c0 1.358-1.133 2.49-2.491 2.49ZM259.13 547.261c-1.359 0-2.491-.906-2.491-2.265a2.513 2.513 0 0 1 2.491-2.491c1.359 0 2.265 1.133 2.265 2.491 0 1.359-.906 2.265-2.265 2.265ZM226.981 547.034a2.03 2.03 0 0 1-2.038-2.038c0-1.359.906-2.265 2.038-2.265 1.359 0 2.265.906 2.265 2.265 0 1.132-.906 2.038-2.265 2.038ZM195.052 546.581c-.906 0-1.586-.679-1.586-1.585 0-.906.68-1.812 1.586-1.812.905 0 1.811.906 1.811 1.812s-.906 1.585-1.811 1.585ZM163.122 545.902c-.68 0-1.133-.453-1.133-.906 0-.68.453-1.132 1.133-1.132.452 0 .905.452.905 1.132 0 .453-.453.906-.905.906ZM130.965 545.222s-.226 0-.226-.227c0-.226.226-.453.226-.453.226 0 .453.227.453.453 0 .227-.227.227-.453.227ZM387.074 577.149c-.152 0-.228-.076-.228-.227 0-.152.076-.227.228-.227.151 0 .227.075.227.227 0 .151-.076.227-.227.227ZM355.145 577.6c-.453 0-.68-.226-.68-.679 0-.227.227-.68.68-.68.226 0 .679.453.679.68 0 .453-.453.679-.679.679ZM322.991 577.827c-.453 0-.68-.453-.68-.906s.227-.906.68-.906c.679 0 .905.453.905.906s-.226.906-.905.906ZM291.061 577.827c-.453 0-.906-.453-.906-.905 0-.453.453-.906.906-.906s.906.453.906.906c0 .452-.453.905-.906.905ZM259.129 577.827c-.453 0-.905-.453-.905-.906s.452-.906.905-.906.906.453.906.906-.453.906-.906.906ZM226.977 577.6c-.227 0-.453-.226-.453-.679 0-.227.226-.68.453-.68.453 0 .679.453.679.68 0 .453-.226.679-.679.679ZM195.05 577.149c-.151 0-.227-.076-.227-.227 0-.152.076-.228.227-.228.152 0 .227.076.227.228 0 .151-.075.227-.227.227Z" fill="#48A013" fill-opacity=".15"/><ellipse cx="290.53" cy="290.47" rx="225.85" ry="225.803" fill="#E3FED3"/><g filter="url(#a)"><path d="M387.24 230.051H147.562c-7.221 0-13.074 7.656-13.074 17.099v213.742c0 9.443 5.853 17.099 13.074 17.099H387.24c7.22 0 13.073-7.656 13.073-17.099V247.15c0-9.443-5.853-17.099-13.073-17.099Z" fill="#FDFDFD" stroke="#D9D9D9" stroke-width="3.543"/><path d="M175.84 250.989v14.669h-2.942v-14.669h2.942Zm9.359 2.858c1.387 0 2.508.442 3.362 1.324.855.869 1.282 2.088 1.282 3.657v6.83h-2.942v-6.431c0-.924-.231-1.632-.693-2.122-.463-.505-1.093-.757-1.892-.757-.812 0-1.457.252-1.933.757-.463.49-.694 1.198-.694 2.122v6.431h-2.942v-11.643h2.942v1.451c.392-.505.89-.897 1.492-1.177a4.615 4.615 0 0 1 2.018-.442Zm6.686 5.948c0-1.177.231-2.221.693-3.132.476-.91 1.114-1.611 1.912-2.101a5.152 5.152 0 0 1 2.711-.736c.869 0 1.626.175 2.27.526.659.35 1.184.791 1.576 1.324v-1.661h2.963v11.643h-2.963v-1.702c-.378.546-.903 1.002-1.576 1.366-.658.35-1.422.525-2.291.525-.98 0-1.877-.252-2.69-.756-.798-.505-1.436-1.212-1.912-2.123-.462-.925-.693-1.982-.693-3.173Zm9.162.042c0-.715-.14-1.324-.42-1.829a2.876 2.876 0 0 0-1.135-1.176 2.968 2.968 0 0 0-1.534-.421c-.546 0-1.051.133-1.513.4-.462.266-.841.658-1.135 1.176-.28.505-.42 1.107-.42 1.808 0 .7.14 1.317.42 1.849a3.23 3.23 0 0 0 1.135 1.198c.476.28.981.42 1.513.42.546 0 1.058-.133 1.534-.399.476-.28.855-.672 1.135-1.177.28-.518.42-1.135.42-1.849Zm5.08 0c0-1.205.246-2.256.736-3.153a5.167 5.167 0 0 1 2.039-2.101c.868-.504 1.863-.757 2.984-.757 1.443 0 2.634.365 3.572 1.093.953.715 1.591 1.723 1.913 3.026h-3.174a2.243 2.243 0 0 0-.861-1.176c-.393-.295-.883-.442-1.471-.442-.841 0-1.506.308-1.997.925-.49.602-.735 1.464-.735 2.585 0 1.107.245 1.968.735 2.585.491.602 1.156.903 1.997.903 1.191 0 1.968-.532 2.332-1.597h3.174c-.322 1.261-.96 2.263-1.913 3.005-.952.743-2.143 1.114-3.572 1.114-1.121 0-2.116-.245-2.984-.735a5.348 5.348 0 0 1-2.039-2.102c-.49-.911-.736-1.968-.736-3.173Zm16.825-3.405v5.632c0 .393.091.68.273.862.196.168.518.252.967.252h1.366v2.48h-1.85c-2.48 0-3.719-1.205-3.719-3.615v-5.611h-1.388v-2.417h1.388v-2.879h2.963v2.879h2.606v2.417h-2.606Zm6.214-3.804c-.518 0-.953-.161-1.303-.483a1.685 1.685 0 0 1-.504-1.24c0-.49.168-.896.504-1.219.35-.336.785-.504 1.303-.504.518 0 .946.168 1.282.504.35.323.525.729.525 1.219 0 .491-.175.904-.525 1.24-.336.322-.764.483-1.282.483Zm1.45 1.387v11.643h-2.942v-11.643h2.942Zm7.761 8.932 2.943-8.932h3.131l-4.308 11.643h-3.573l-4.287-11.643h3.152l2.942 8.932Zm18.549-3.362c0 .42-.028.798-.084 1.134h-8.511c.07.841.364 1.5.883 1.976.518.476 1.156.714 1.912.714 1.093 0 1.871-.469 2.333-1.408h3.173c-.336 1.121-.981 2.046-1.933 2.774-.953.715-2.123 1.072-3.51 1.072-1.121 0-2.129-.245-3.026-.735a5.42 5.42 0 0 1-2.081-2.123c-.49-.911-.735-1.961-.735-3.152 0-1.205.245-2.263.735-3.174a5.136 5.136 0 0 1 2.06-2.101c.883-.49 1.898-.736 3.047-.736 1.107 0 2.095.239 2.963.715a4.927 4.927 0 0 1 2.039 2.038c.49.869.735 1.871.735 3.006Zm-3.047-.841c-.014-.757-.287-1.359-.819-1.807-.533-.463-1.184-.694-1.955-.694-.728 0-1.345.224-1.849.673-.491.434-.792 1.043-.904 1.828h5.527Zm13.145-7.755v14.669h-2.942v-14.669h2.942Zm6.332 5.443v5.632c0 .393.091.68.273.862.196.168.519.252.967.252h1.366v2.48h-1.849c-2.48 0-3.72-1.205-3.72-3.615v-5.611h-1.387v-2.417h1.387v-2.879h2.963v2.879h2.606v2.417h-2.606Zm15.545 3.153c0 .42-.028.798-.084 1.134h-8.511c.07.841.364 1.5.883 1.976.518.476 1.155.714 1.912.714 1.093 0 1.87-.469 2.333-1.408h3.173c-.336 1.121-.981 2.046-1.933 2.774-.953.715-2.123 1.072-3.51 1.072-1.121 0-2.13-.245-3.026-.735a5.42 5.42 0 0 1-2.081-2.123c-.49-.911-.735-1.961-.735-3.152 0-1.205.245-2.263.735-3.174a5.136 5.136 0 0 1 2.06-2.101c.882-.49 1.898-.736 3.047-.736 1.107 0 2.095.239 2.963.715a4.933 4.933 0 0 1 2.039 2.038c.49.869.735 1.871.735 3.006Zm-3.047-.841c-.014-.757-.287-1.359-.82-1.807-.532-.463-1.184-.694-1.954-.694-.729 0-1.345.224-1.849.673-.491.434-.792 1.043-.904 1.828h5.527Zm19.653-4.897c1.429 0 2.578.442 3.447 1.324.883.869 1.324 2.088 1.324 3.657v6.83h-2.942v-6.431c0-.91-.231-1.604-.694-2.08-.462-.491-1.093-.736-1.891-.736-.799 0-1.436.245-1.913.736-.462.476-.693 1.17-.693 2.08v6.431h-2.942v-6.431c0-.91-.231-1.604-.694-2.08-.462-.491-1.093-.736-1.891-.736-.813 0-1.457.245-1.934.736-.462.476-.693 1.17-.693 2.08v6.431h-2.942v-11.643h2.942v1.409a3.929 3.929 0 0 1 1.45-1.156 4.613 4.613 0 0 1 1.975-.421c.911 0 1.724.196 2.438.589a3.974 3.974 0 0 1 1.66 1.639 4.238 4.238 0 0 1 1.64-1.618 4.756 4.756 0 0 1 2.353-.61Zm12.018 12c-.953 0-1.807-.168-2.564-.504-.756-.35-1.359-.82-1.807-1.408a3.588 3.588 0 0 1-.715-1.955h2.964c.056.449.273.82.651 1.114.392.294.876.442 1.45.442.561 0 .995-.113 1.303-.337.322-.224.483-.511.483-.861 0-.379-.196-.659-.588-.841-.378-.196-.988-.406-1.828-.63-.869-.211-1.583-.428-2.144-.652a3.802 3.802 0 0 1-1.429-1.03c-.392-.462-.588-1.086-.588-1.87 0-.645.182-1.233.546-1.765.378-.533.911-.953 1.597-1.261.701-.309 1.52-.463 2.459-.463 1.387 0 2.494.351 3.32 1.051.827.687 1.282 1.618 1.366 2.795h-2.816c-.042-.462-.238-.826-.588-1.093-.336-.28-.792-.42-1.366-.42-.532 0-.946.098-1.24.294a.946.946 0 0 0-.42.82c0 .392.196.693.588.904.392.196 1.002.399 1.829.609.84.21 1.534.427 2.08.651a3.563 3.563 0 0 1 1.408 1.051c.406.463.617 1.079.631 1.85 0 .672-.19 1.275-.568 1.807-.364.532-.897.953-1.597 1.261-.687.294-1.492.441-2.417.441Z" fill="#5B5B5B"/><path d="M197.598 319.422v-24.805h-24.807v24.805h24.807Z" fill="#F3EDDF"/><path d="M213.736 294.27c0-.866.194-1.639.58-2.32a4.186 4.186 0 0 1 1.602-1.602c.681-.386 1.441-.58 2.282-.58.983 0 1.845.253 2.585.757s1.257 1.202 1.551 2.093h-2.03a2.096 2.096 0 0 0-.858-.946c-.361-.21-.782-.315-1.261-.315-.512 0-.971.122-1.374.366a2.459 2.459 0 0 0-.933 1.009c-.219.437-.328.949-.328 1.538 0 .58.109 1.093.328 1.538.227.437.538.778.933 1.022a2.68 2.68 0 0 0 1.374.353c.479 0 .9-.105 1.261-.316.37-.218.656-.538.858-.958h2.03c-.294.9-.811 1.601-1.551 2.106-.731.496-1.593.744-2.585.744-.841 0-1.601-.189-2.282-.568a4.296 4.296 0 0 1-1.602-1.601c-.386-.681-.58-1.454-.58-2.32Zm9.654.895c0-.706.138-1.332.416-1.879.286-.546.668-.966 1.147-1.261a3.091 3.091 0 0 1 1.627-.441c.521 0 .975.105 1.362.315.395.21.71.475.945.795v-.996h1.778v6.985h-1.778v-1.021a2.661 2.661 0 0 1-.945.819c-.395.211-.854.316-1.375.316a3.008 3.008 0 0 1-1.614-.454 3.25 3.25 0 0 1-1.147-1.274c-.278-.555-.416-1.189-.416-1.904Zm5.497.025c0-.428-.084-.794-.252-1.097a1.725 1.725 0 0 0-.681-.706 1.784 1.784 0 0 0-.92-.252c-.328 0-.631.08-.908.24a1.832 1.832 0 0 0-.681.706c-.168.302-.252.664-.252 1.084 0 .42.084.79.252 1.11.177.311.403.55.681.718.286.169.588.253.908.253.328 0 .634-.08.92-.24.286-.168.513-.403.681-.706.168-.311.252-.681.252-1.11Zm5.268-2.484a2.64 2.64 0 0 1 .933-.794 2.83 2.83 0 0 1 1.374-.328 3.023 3.023 0 0 1 2.762 1.702c.285.538.428 1.165.428 1.879 0 .715-.143 1.349-.428 1.904-.278.547-.66.971-1.148 1.274a2.964 2.964 0 0 1-1.614.454c-.513 0-.967-.105-1.362-.316a2.926 2.926 0 0 1-.945-.794v4.325h-1.766v-10.314h1.766v1.008Zm3.694 2.459c0-.42-.088-.782-.265-1.084a1.723 1.723 0 0 0-.68-.706 1.79 1.79 0 0 0-.908-.24 1.831 1.831 0 0 0-1.589.958c-.168.311-.252.677-.252 1.097 0 .421.084.786.252 1.097.176.311.403.551.681.719.286.16.588.24.908.24.327 0 .63-.084.908-.253.285-.168.512-.407.68-.718.177-.311.265-.681.265-1.11Z" fill="#5B5B5B"/><path d="M337.485 304.327H213.018v5.385h124.467v-5.385ZM337.485 316.618H213.018v5.385h124.467v-5.385Z" fill="#BCBCBC"/><path d="M195.955 292.562H173.89a3.15 3.15 0 0 0-3.152 3.152v22.062a3.15 3.15 0 0 0 3.152 3.152h22.065a3.152 3.152 0 0 0 3.152-3.152v-22.062a3.152 3.152 0 0 0-3.152-3.152Zm-5.359 22.063-5.673-5.673-5.674 5.673-2.207-2.207 5.674-5.673-5.674-5.673 2.207-2.206 5.674 5.673 5.673-5.673 2.207 2.206-5.674 5.673 5.674 5.673-2.207 2.207ZM195.955 336.687H173.89a3.15 3.15 0 0 0-3.152 3.152v22.062a3.15 3.15 0 0 0 3.152 3.152h22.065a3.152 3.152 0 0 0 3.152-3.152v-22.062a3.152 3.152 0 0 0-3.152-3.152Zm-5.359 22.062-5.673-5.673-5.674 5.673-2.207-2.206 5.674-5.673-5.674-5.673 2.207-2.207 5.674 5.674 5.673-5.674 2.207 2.207-5.674 5.673 5.674 5.673-2.207 2.206Z" fill="#DB0000"/><path d="M219.295 332.955v6.178c0 .858-.248 1.526-.744 2.005-.496.471-1.16.706-1.992.706-.841 0-1.522-.243-2.043-.731-.513-.488-.769-1.168-.769-2.043h1.765c.009.379.097.673.265.883.177.21.429.315.757.315.319 0 .563-.101.731-.302.168-.202.252-.48.252-.833v-6.178h1.778Zm8.553 5.157c0 .252-.017.479-.05.681h-5.107c.042.504.218.899.529 1.185.311.286.694.429 1.148.429.656 0 1.122-.282 1.4-.845h1.904a3.218 3.218 0 0 1-1.161 1.665c-.571.428-1.273.643-2.105.643a3.724 3.724 0 0 1-1.816-.442 3.238 3.238 0 0 1-1.248-1.273c-.295-.547-.442-1.177-.442-1.892 0-.723.147-1.357.442-1.904a3.087 3.087 0 0 1 1.235-1.261c.53-.294 1.139-.441 1.829-.441.664 0 1.256.143 1.778.429a2.96 2.96 0 0 1 1.223 1.223c.294.521.441 1.122.441 1.803Zm-1.828-.504c-.009-.454-.173-.816-.492-1.085-.319-.277-.71-.416-1.173-.416-.437 0-.807.135-1.109.404-.295.26-.475.626-.543 1.097h3.317Zm2.663.63c0-.706.138-1.332.416-1.879.286-.546.668-.966 1.147-1.261a3.091 3.091 0 0 1 1.627-.441c.521 0 .975.105 1.362.315.395.21.71.475.945.795v-.996h1.778v6.985h-1.778v-1.021a2.661 2.661 0 0 1-.945.819c-.395.211-.854.316-1.375.316a3.008 3.008 0 0 1-1.614-.454 3.25 3.25 0 0 1-1.147-1.274c-.278-.555-.416-1.189-.416-1.904Zm5.497.025c0-.428-.084-.794-.252-1.097a1.725 1.725 0 0 0-.681-.706 1.784 1.784 0 0 0-.92-.252c-.328 0-.631.08-.908.24a1.824 1.824 0 0 0-.681.706c-.168.302-.252.664-.252 1.084 0 .42.084.79.252 1.11.176.311.403.55.681.718.286.169.588.253.908.253.328 0 .634-.08.92-.24.286-.168.513-.403.681-.706.168-.311.252-.681.252-1.11Zm7.373-3.593c.833 0 1.505.264 2.018.794.513.521.769 1.253.769 2.194v4.098h-1.765v-3.858c0-.555-.139-.98-.416-1.274-.278-.303-.656-.454-1.135-.454-.488 0-.874.151-1.16.454-.278.294-.416.719-.416 1.274v3.858h-1.766v-6.985h1.766v.87c.235-.303.533-.538.895-.707a2.78 2.78 0 0 1 1.21-.264Zm7.139 7.2a3.743 3.743 0 0 1-1.538-.303 2.823 2.823 0 0 1-1.085-.845 2.152 2.152 0 0 1-.428-1.173h1.777a.98.98 0 0 0 .391.669c.236.176.526.265.87.265.337 0 .597-.068.782-.202.193-.135.29-.307.29-.517 0-.227-.118-.395-.353-.505-.227-.117-.593-.243-1.097-.378a9.568 9.568 0 0 1-1.286-.391 2.277 2.277 0 0 1-.858-.618c-.235-.277-.353-.651-.353-1.122 0-.386.11-.74.328-1.059.227-.319.547-.572.959-.757.42-.184.912-.277 1.475-.277.832 0 1.496.21 1.992.631.496.411.769.97.82 1.677h-1.69a.886.886 0 0 0-.353-.656c-.202-.168-.475-.252-.82-.252-.319 0-.567.059-.744.176a.568.568 0 0 0-.252.492c0 .235.118.416.353.542.236.118.601.24 1.097.366.505.126.921.256 1.249.391.328.134.609.344.845.63.243.278.369.647.378 1.11 0 .403-.114.765-.341 1.084-.218.32-.538.572-.958.757-.412.176-.895.265-1.45.265Z" fill="#5B5B5B"/><path d="M337.483 347.814H213.016v5.385h124.467v-5.385ZM337.483 360.104H213.016v5.384h124.467v-5.384Z" fill="#BCBCBC"/><path d="M195.955 379.761H173.89a3.15 3.15 0 0 0-3.152 3.152v22.062a3.15 3.15 0 0 0 3.152 3.152h22.065a3.152 3.152 0 0 0 3.152-3.152v-22.062a3.152 3.152 0 0 0-3.152-3.152Zm-5.359 22.062-5.673-5.673-5.674 5.673-2.207-2.206 5.674-5.673-5.674-5.673 2.207-2.206 5.674 5.673 5.673-5.673 2.207 2.206-5.674 5.673 5.674 5.673-2.207 2.206Z" fill="#DB0000"/><path d="M220.152 376.03v1.425h-2.345v7.377h-1.765v-7.377h-2.346v-1.425h6.456Zm6.66 3.556v1.488h-5.346v-1.488h5.346Zm5.019 5.334a4.231 4.231 0 0 1-1.665-.315 2.74 2.74 0 0 1-1.16-.908c-.286-.395-.433-.862-.441-1.4h1.891c.025.362.152.647.379.858.235.21.554.315.958.315.412 0 .735-.097.971-.29a.985.985 0 0 0 .353-.782.894.894 0 0 0-.24-.643 1.6 1.6 0 0 0-.605-.391 8.263 8.263 0 0 0-.984-.328 11.69 11.69 0 0 1-1.399-.492 2.597 2.597 0 0 1-.921-.744c-.252-.336-.378-.781-.378-1.336 0-.521.13-.975.391-1.362a2.447 2.447 0 0 1 1.097-.883c.471-.21 1.009-.315 1.614-.315.908 0 1.643.223 2.207.668.571.438.886 1.051.945 1.841h-1.942a.983.983 0 0 0-.39-.744c-.236-.201-.551-.302-.946-.302-.345 0-.622.088-.832.265-.202.176-.303.433-.303.769 0 .235.076.433.227.592.16.152.353.278.58.379.235.092.563.201.984.328.571.168 1.038.336 1.399.504.362.168.673.42.933.756.261.337.391.778.391 1.324 0 .471-.122.908-.366 1.312-.243.403-.601.727-1.071.971-.471.235-1.03.353-1.677.353Zm8.579-7.175c.529 0 1 .118 1.412.353.412.227.731.568.958 1.022.236.445.353.983.353 1.614v4.098h-1.765v-3.859c0-.555-.139-.979-.416-1.273-.278-.303-.656-.454-1.135-.454-.487 0-.874.151-1.16.454-.277.294-.416.718-.416 1.273v3.859h-1.765v-9.331h1.765v3.215c.227-.303.529-.538.908-.706a2.936 2.936 0 0 1 1.261-.265Zm5.297-.731a1.11 1.11 0 0 1-.781-.29 1.011 1.011 0 0 1-.303-.744c0-.294.101-.538.303-.732.21-.201.47-.302.781-.302.311 0 .568.101.769.302a.952.952 0 0 1 .316.732.99.99 0 0 1-.316.744c-.201.193-.458.29-.769.29Zm.87.832v6.986h-1.765v-6.986h1.765Zm3.51 1.084c.227-.369.521-.66.882-.87.37-.21.791-.315 1.261-.315v1.854h-.466c-.555 0-.975.13-1.261.391-.278.26-.416.714-.416 1.361v3.481h-1.766v-6.986h1.766v1.084Zm5.388.366v3.379c0 .236.054.408.164.517.117.101.311.152.58.152h.819v1.488h-1.109c-1.488 0-2.232-.723-2.232-2.169v-3.367h-.832v-1.45h.832v-1.727h1.778v1.727h1.563v1.45h-1.563Z" fill="#5B5B5B"/><path d="M337.483 391.302H213.016v5.385h124.467v-5.385ZM337.483 403.592H213.016v5.385h124.467v-5.385Z" fill="#BCBCBC"/><path d="M195.955 423.361H173.89a3.15 3.15 0 0 0-3.152 3.151v22.063c0 .836.332 1.637.924 2.228a3.147 3.147 0 0 0 2.228.924h22.065a3.15 3.15 0 0 0 3.152-3.152v-22.063a3.15 3.15 0 0 0-3.152-3.151Zm-5.359 22.062-5.673-5.673-5.674 5.673-2.207-2.206 5.674-5.673-5.674-5.674 2.207-2.206 5.674 5.673 5.673-5.673 2.207 2.206-5.674 5.674 5.674 5.673-2.207 2.206Z" fill="#DB0000"/><path d="M217.202 429.045a4.231 4.231 0 0 1-1.665-.315 2.74 2.74 0 0 1-1.16-.908c-.285-.395-.433-.862-.441-1.4h1.891c.026.362.152.647.379.858.235.21.555.315.958.315.412 0 .736-.097.971-.29a.985.985 0 0 0 .353-.782.894.894 0 0 0-.24-.643 1.592 1.592 0 0 0-.605-.391 8.3 8.3 0 0 0-.983-.328 11.651 11.651 0 0 1-1.4-.492 2.585 2.585 0 0 1-.92-.744c-.253-.336-.379-.781-.379-1.336 0-.521.131-.975.391-1.362a2.447 2.447 0 0 1 1.097-.883c.471-.21 1.009-.315 1.614-.315.908 0 1.644.223 2.207.668.571.438.887 1.051.945 1.841h-1.941a.984.984 0 0 0-.391-.744c-.236-.201-.551-.302-.946-.302-.345 0-.622.088-.832.265-.202.176-.303.433-.303.769 0 .235.076.433.227.592.16.152.353.278.58.379.236.092.563.201.984.328.571.168 1.038.336 1.399.504.362.168.673.42.933.756.261.337.391.778.391 1.324a2.5 2.5 0 0 1-.365 1.312c-.244.403-.601.727-1.072.971-.471.235-1.03.353-1.677.353Zm8.579-7.175c.53 0 1 .118 1.412.353.412.227.732.568.958 1.022.236.445.354.983.354 1.614v4.098h-1.766v-3.859c0-.555-.138-.979-.416-1.273-.277-.303-.656-.454-1.135-.454-.487 0-.874.151-1.16.454-.277.294-.416.718-.416 1.273v3.859h-1.765v-9.331h1.765v3.215a2.25 2.25 0 0 1 .908-.706 2.94 2.94 0 0 1 1.261-.265Zm7.504 7.2c-.672 0-1.278-.147-1.816-.441a3.309 3.309 0 0 1-1.273-1.274c-.303-.546-.454-1.177-.454-1.891 0-.715.155-1.345.466-1.892a3.3 3.3 0 0 1 1.299-1.261 3.719 3.719 0 0 1 1.829-.454c.672 0 1.282.152 1.828.454a3.21 3.21 0 0 1 1.286 1.261c.32.547.479 1.177.479 1.892 0 .714-.164 1.345-.492 1.891a3.345 3.345 0 0 1-1.311 1.274c-.546.294-1.16.441-1.841.441Zm0-1.538c.32 0 .618-.076.895-.227.286-.16.513-.395.681-.706.168-.311.252-.69.252-1.135 0-.664-.176-1.173-.529-1.526a1.692 1.692 0 0 0-1.274-.542 1.69 1.69 0 0 0-1.273.542c-.336.353-.505.862-.505 1.526s.164 1.177.492 1.538c.336.353.757.53 1.261.53Zm11.433-2.22c0 .253-.017.48-.05.681h-5.107c.042.505.218.9.529 1.186.311.285.694.428 1.148.428.655 0 1.122-.281 1.399-.844h1.904a3.208 3.208 0 0 1-1.16 1.664c-.571.429-1.273.643-2.105.643-.673 0-1.278-.147-1.816-.441a3.24 3.24 0 0 1-1.248-1.274c-.295-.546-.442-1.177-.442-1.891 0-.723.147-1.358.442-1.904a3.075 3.075 0 0 1 1.235-1.261c.53-.294 1.139-.442 1.829-.442.664 0 1.256.143 1.778.429.529.286.937.694 1.223 1.223.294.522.441 1.123.441 1.803Zm-1.828-.504c-.009-.454-.173-.815-.492-1.084-.32-.278-.71-.416-1.173-.416-.437 0-.807.134-1.109.403-.295.261-.475.626-.543 1.097h3.317Zm5.79 4.262a3.748 3.748 0 0 1-1.539-.303 2.818 2.818 0 0 1-1.084-.844 2.145 2.145 0 0 1-.429-1.173h1.778a.975.975 0 0 0 .391.668c.235.177.525.265.87.265.336 0 .597-.067.782-.202.193-.134.29-.307.29-.517 0-.227-.118-.395-.353-.504-.227-.118-.593-.244-1.097-.378a9.716 9.716 0 0 1-1.286-.391 2.299 2.299 0 0 1-.858-.618c-.235-.278-.353-.652-.353-1.122 0-.387.109-.74.328-1.06.227-.319.546-.571.958-.756.421-.185.912-.278 1.476-.278.832 0 1.496.211 1.992.631.496.412.769.971.819 1.677h-1.689a.888.888 0 0 0-.353-.656c-.202-.168-.475-.252-.82-.252-.319 0-.567.059-.744.177a.565.565 0 0 0-.252.491c0 .236.118.417.353.543.235.117.601.239 1.097.365.504.126.921.257 1.248.391.328.135.61.345.845.631.244.277.37.647.378 1.109 0 .404-.113.765-.34 1.085-.219.319-.538.571-.958.756-.412.177-.896.265-1.45.265Z" fill="#5B5B5B"/><path d="M337.483 434.79H213.016v5.384h124.467v-5.384ZM337.483 447.079H213.016v5.385h124.467v-5.385Z" fill="#BCBCBC"/></g><g filter="url(#b)"><rect x="145" y="54.602" width="300.498" height="67.238" rx="3.152" fill="#fff"/></g><path d="M427.109 74.038h-22.064a3.152 3.152 0 0 0-3.152 3.152v22.063a3.152 3.152 0 0 0 3.152 3.151h22.064a3.152 3.152 0 0 0 3.152-3.151V77.19a3.152 3.152 0 0 0-3.152-3.152Zm-5.358 22.063-5.674-5.673-5.674 5.673-2.206-2.207 5.673-5.673-5.673-5.673 2.206-2.206 5.674 5.673 5.674-5.673 2.206 2.206-5.674 5.673 5.674 5.673-2.206 2.207Z" fill="#DB0000"/><path d="M225.857 78.29h-3.798l-.628 1.817h-2.008l3.428-9.548h2.227l3.429 9.548h-2.022l-.628-1.817Zm-.519-1.53-1.38-3.988-1.38 3.989h2.76Zm6.363-3.046c.246-.4.564-.715.956-.942a2.717 2.717 0 0 1 1.366-.342v2.008h-.506c-.601 0-1.056.141-1.366.424-.3.282-.45.774-.45 1.475v3.77h-1.913V72.54h1.913v1.174Zm10.754-1.174v7.567h-1.926v-.956a2.57 2.57 0 0 1-.97.779 3.002 3.002 0 0 1-1.284.273c-.592 0-1.115-.123-1.571-.369a2.747 2.747 0 0 1-1.079-1.106c-.255-.492-.382-1.075-.382-1.749v-4.44h1.912v4.167c0 .601.15 1.065.451 1.393.3.319.71.478 1.229.478.528 0 .943-.159 1.243-.478.301-.328.451-.792.451-1.393V72.54h1.926Zm6.081-.11c.901 0 1.63.287 2.185.86.556.566.834 1.358.834 2.378v4.44h-1.913v-4.18c0-.602-.15-1.062-.451-1.38-.3-.328-.71-.492-1.229-.492-.528 0-.947.164-1.257.492-.3.318-.45.778-.45 1.38v4.18h-1.913V72.54h1.913v.942c.255-.328.578-.583.969-.765a3.006 3.006 0 0 1 1.312-.287Zm13.474 7.677-3.469-4.248v4.248h-1.913v-9.534h1.913v4.275l3.469-4.275h2.309l-3.934 4.726 4.043 4.808h-2.418Zm10.82-7.567v7.567h-1.926v-.956a2.57 2.57 0 0 1-.97.779 3.002 3.002 0 0 1-1.284.273c-.592 0-1.115-.123-1.571-.369A2.747 2.747 0 0 1 266 78.728c-.255-.492-.382-1.075-.382-1.749v-4.44h1.912v4.167c0 .601.15 1.065.451 1.393.3.319.71.478 1.229.478.529 0 .943-.159 1.243-.478.301-.328.451-.792.451-1.393V72.54h1.926Zm11.285-.11c.929 0 1.676.287 2.241.86.573.566.86 1.358.86 2.378v4.44h-1.912v-4.18c0-.593-.151-1.043-.451-1.353-.301-.319-.71-.478-1.229-.478-.52 0-.934.16-1.244.478-.3.31-.45.76-.45 1.352v4.18h-1.913v-4.18c0-.592-.15-1.042-.451-1.352-.3-.319-.71-.478-1.229-.478-.528 0-.947.16-1.257.478-.3.31-.45.76-.45 1.352v4.18h-1.913V72.54h1.913v.915c.245-.319.56-.57.942-.751a3.01 3.01 0 0 1 1.284-.274c.592 0 1.12.128 1.585.383.464.246.824.6 1.079 1.065a2.754 2.754 0 0 1 1.065-1.052 3.093 3.093 0 0 1 1.53-.396Zm4.424 3.866c0-.765.15-1.443.451-2.035.31-.592.724-1.047 1.243-1.366a3.345 3.345 0 0 1 1.762-.478c.565 0 1.057.114 1.475.341.428.228.77.515 1.025.86V72.54h1.926v7.567h-1.926v-1.106a2.884 2.884 0 0 1-1.025.888c-.428.227-.924.341-1.489.341a3.25 3.25 0 0 1-1.748-.492c-.519-.327-.933-.787-1.243-1.38-.301-.6-.451-1.288-.451-2.062Zm5.956.027c0-.464-.091-.86-.273-1.188a1.867 1.867 0 0 0-.738-.765 1.934 1.934 0 0 0-.997-.273 1.94 1.94 0 0 0-.984.26 1.99 1.99 0 0 0-.737.764c-.182.328-.273.72-.273 1.175 0 .455.091.856.273 1.202.191.337.437.597.737.779.31.182.638.273.984.273.355 0 .687-.087.997-.26.31-.182.556-.437.738-.765.182-.336.273-.737.273-1.202Zm5.706-2.609c.246-.4.565-.715.956-.942a2.717 2.717 0 0 1 1.366-.342v2.008h-.505c-.601 0-1.056.141-1.366.424-.301.282-.451.774-.451 1.475v3.77h-1.912V72.54h1.912v1.174ZM219.611 92.423h115.576v5.252H219.611zM219.611 105.03h84.055v5.252h-84.055z" fill="#5B5B5B"/><path fill-rule="evenodd" clip-rule="evenodd" d="M180.727 75.614a12.61 12.61 0 0 0-12.61 12.534 12.603 12.603 0 0 0 1.641 6.293 7.863 7.863 0 0 1 6.241-3.068h9.456a7.865 7.865 0 0 1 6.241 3.068 12.61 12.61 0 0 0-10.969-18.827Zm12.519 22.182a15.695 15.695 0 0 0 3.242-9.575c0-8.704-7.056-15.759-15.761-15.759-8.704 0-15.76 7.055-15.76 15.759a15.689 15.689 0 0 0 3.242 9.575l-.008.028.559.651a15.726 15.726 0 0 0 11.967 5.505 15.676 15.676 0 0 0 8.944-2.782 15.812 15.812 0 0 0 3.023-2.723l.56-.65-.008-.029Zm-12.519-19.03a4.728 4.728 0 1 0 0 9.456 4.728 4.728 0 0 0 0-9.456Z" fill="#5B5B5B"/><g filter="url(#c)"><rect x="194.383" y="129.194" width="300.498" height="67.238" rx="3.152" fill="#fff"/></g><path d="M476.49 148.631h-22.064a3.152 3.152 0 0 0-3.153 3.151v22.063a3.151 3.151 0 0 0 3.153 3.152h22.064a3.15 3.15 0 0 0 3.152-3.152v-22.063a3.15 3.15 0 0 0-3.152-3.151Zm-5.358 22.062-5.674-5.673-5.674 5.673-2.206-2.206 5.673-5.673-5.673-5.674 2.206-2.206 5.674 5.673 5.674-5.673 2.206 2.206-5.674 5.674 5.674 5.673-2.206 2.206Z" fill="#DB0000"/><path d="M272.255 154.796a4.577 4.577 0 0 1-1.803-.342 2.953 2.953 0 0 1-1.256-.983c-.31-.428-.469-.934-.479-1.517h2.049c.028.392.164.701.41.929.255.228.601.342 1.038.342.447 0 .797-.105 1.052-.315.255-.218.383-.5.383-.846a.97.97 0 0 0-.26-.697 1.744 1.744 0 0 0-.656-.424 9.14 9.14 0 0 0-1.065-.355 12.721 12.721 0 0 1-1.516-.532 2.814 2.814 0 0 1-.997-.806c-.274-.365-.41-.847-.41-1.448 0-.565.141-1.057.423-1.476.282-.419.679-.737 1.189-.956.51-.228 1.092-.341 1.748-.341.984 0 1.78.241 2.391.724.619.473.96 1.138 1.024 1.994h-2.104a1.062 1.062 0 0 0-.423-.806c-.255-.219-.596-.328-1.025-.328-.373 0-.673.096-.901.287-.219.191-.328.469-.328.833 0 .255.082.469.246.642.173.164.382.301.628.41.255.1.61.219 1.066.355.619.182 1.125.365 1.516.547.392.182.729.455 1.011.819.282.365.423.843.423 1.435 0 .51-.132.983-.396 1.42-.264.437-.651.788-1.161 1.052-.51.255-1.115.383-1.817.383Zm4.541-3.907c0-.765.15-1.444.45-2.036.31-.592.724-1.047 1.243-1.366a3.355 3.355 0 0 1 1.763-.478c.564 0 1.056.114 1.475.342a2.98 2.98 0 0 1 1.024.86v-1.079h1.927v7.568h-1.927v-1.107a2.866 2.866 0 0 1-1.024.888c-.428.228-.924.342-1.489.342-.637 0-1.22-.164-1.749-.492-.519-.328-.933-.788-1.243-1.38-.3-.601-.45-1.288-.45-2.062Zm5.955.027c0-.464-.091-.86-.273-1.188a1.87 1.87 0 0 0-.737-.765 1.936 1.936 0 0 0-.998-.273c-.355 0-.683.086-.983.259a1.986 1.986 0 0 0-.738.765c-.182.328-.273.719-.273 1.175 0 .455.091.856.273 1.202.191.337.437.596.738.778.31.183.637.274.983.274.356 0 .688-.087.998-.26.309-.182.555-.437.737-.765.182-.337.273-.737.273-1.202Zm7.988-3.893c.902 0 1.63.287 2.186.861.555.564.833 1.356.833 2.376v4.44h-1.913v-4.18c0-.601-.15-1.061-.45-1.38-.301-.328-.711-.491-1.23-.491-.528 0-.947.163-1.256.491-.301.319-.451.779-.451 1.38v4.18h-1.913v-7.568h1.913v.943c.255-.328.578-.583.97-.765.4-.191.837-.287 1.311-.287Zm5.807-.792c-.346 0-.633-.105-.86-.314a1.096 1.096 0 0 1-.328-.806c0-.319.109-.583.328-.793.227-.218.514-.328.86-.328.337 0 .615.11.834.328.218.21.327.474.327.793 0 .318-.109.587-.327.806-.219.209-.497.314-.834.314Zm.943 9.712c0 .838-.21 1.439-.629 1.803-.409.374-1.001.56-1.775.56h-.847v-1.625h.546c.292 0 .496-.06.615-.178.118-.109.177-.291.177-.546v-8.825h1.913v8.811Zm1.398-5.054c0-.765.15-1.444.45-2.036.31-.592.724-1.047 1.243-1.366a3.355 3.355 0 0 1 1.763-.478c.564 0 1.056.114 1.475.342a2.98 2.98 0 0 1 1.024.86v-1.079h1.926v7.568h-1.926v-1.107a2.875 2.875 0 0 1-1.024.888c-.428.228-.924.342-1.489.342-.638 0-1.22-.164-1.749-.492-.519-.328-.933-.788-1.243-1.38-.3-.601-.45-1.288-.45-2.062Zm5.955.027c0-.464-.091-.86-.273-1.188a1.87 1.87 0 0 0-.737-.765 1.94 1.94 0 0 0-.998-.273c-.355 0-.683.086-.983.259a1.986 1.986 0 0 0-.738.765c-.182.328-.273.719-.273 1.175 0 .455.091.856.273 1.202.191.337.437.596.738.778.309.183.637.274.983.274.355 0 .688-.087.998-.26.309-.182.555-.437.737-.765.182-.337.273-.737.273-1.202Zm11.034-3.784-4.685 11.147h-2.036l1.64-3.77-3.033-7.377h2.145l1.953 5.287 1.981-5.287h2.035Zm7.578 7.664c-.665 0-1.266-.114-1.803-.342a2.962 2.962 0 0 1-1.257-.983c-.309-.428-.469-.934-.478-1.517h2.049c.027.392.164.701.41.929.255.228.601.342 1.038.342.446 0 .797-.105 1.052-.315.255-.218.382-.5.382-.846a.97.97 0 0 0-.259-.697 1.752 1.752 0 0 0-.656-.424 9.14 9.14 0 0 0-1.065-.355 12.745 12.745 0 0 1-1.517-.532 2.822 2.822 0 0 1-.997-.806c-.273-.365-.41-.847-.41-1.448 0-.565.142-1.057.424-1.476.282-.419.678-.737 1.188-.956.51-.228 1.093-.341 1.749-.341.983 0 1.78.241 2.39.724.62.473.961 1.138 1.025 1.994h-2.104a1.062 1.062 0 0 0-.423-.806c-.255-.219-.597-.328-1.025-.328-.373 0-.674.096-.901.287-.219.191-.328.469-.328.833 0 .255.082.469.246.642.173.164.382.301.628.41.255.1.61.219 1.065.355.62.182 1.125.365 1.517.547.391.182.728.455 1.011.819.282.365.423.843.423 1.435 0 .51-.132.983-.396 1.42-.264.437-.651.788-1.161 1.052-.51.255-1.116.383-1.817.383Zm9.294-7.773c.574 0 1.084.127 1.53.382.446.246.792.615 1.038 1.107.255.483.383 1.065.383 1.748v4.44h-1.913v-4.18c0-.601-.15-1.061-.451-1.38-.3-.328-.71-.491-1.229-.491-.528 0-.947.163-1.257.491-.3.319-.451.779-.451 1.38v4.18h-1.912v-10.109h1.912v3.484c.246-.328.574-.583.984-.765.41-.191.865-.287 1.366-.287Zm4.277 3.866c0-.765.151-1.444.451-2.036.31-.592.724-1.047 1.243-1.366a3.352 3.352 0 0 1 1.762-.478c.565 0 1.057.114 1.476.342a2.98 2.98 0 0 1 1.024.86v-1.079h1.926v7.568h-1.926v-1.107a2.875 2.875 0 0 1-1.024.888c-.428.228-.925.342-1.489.342a3.25 3.25 0 0 1-1.749-.492c-.519-.328-.933-.788-1.243-1.38-.3-.601-.451-1.288-.451-2.062Zm5.956.027c0-.464-.091-.86-.273-1.188a1.866 1.866 0 0 0-.738-.765 1.933 1.933 0 0 0-.997-.273c-.355 0-.683.086-.983.259a1.986 1.986 0 0 0-.738.765c-.182.328-.273.719-.273 1.175 0 .455.091.856.273 1.202.191.337.437.596.738.778.309.183.637.274.983.274.355 0 .688-.087.997-.26.31-.182.556-.437.738-.765.182-.337.273-.737.273-1.202Zm5.707-2.609c.245-.401.564-.715.956-.943a2.72 2.72 0 0 1 1.366-.341v2.008h-.506c-.601 0-1.056.141-1.366.423-.3.283-.45.775-.45 1.476v3.77h-1.913v-7.568h1.913v1.175Zm13.008-1.284c.929 0 1.676.287 2.24.861.574.564.861 1.356.861 2.376v4.44h-1.913v-4.18c0-.592-.15-1.043-.45-1.352-.301-.319-.711-.478-1.23-.478s-.933.159-1.243.478c-.3.309-.451.76-.451 1.352v4.18h-1.912v-4.18c0-.592-.15-1.043-.451-1.352-.3-.319-.71-.478-1.229-.478-.528 0-.947.159-1.257.478-.3.309-.451.76-.451 1.352v4.18h-1.912v-7.568h1.912v.915c.246-.318.56-.569.943-.751a3.005 3.005 0 0 1 1.284-.273c.592 0 1.12.127 1.584.382.465.246.825.602 1.08 1.066a2.748 2.748 0 0 1 1.065-1.052 3.094 3.094 0 0 1 1.53-.396Zm4.424 3.866c0-.765.15-1.444.451-2.036.309-.592.724-1.047 1.243-1.366a3.35 3.35 0 0 1 1.762-.478c.564 0 1.056.114 1.475.342.428.227.77.514 1.025.86v-1.079h1.926v7.568h-1.926v-1.107a2.878 2.878 0 0 1-1.025.888c-.428.228-.924.342-1.489.342-.637 0-1.22-.164-1.748-.492a3.517 3.517 0 0 1-1.243-1.38c-.301-.601-.451-1.288-.451-2.062Zm5.956.027c0-.464-.091-.86-.274-1.188a1.87 1.87 0 0 0-.737-.765 1.936 1.936 0 0 0-.997-.273c-.356 0-.683.086-.984.259a2 2 0 0 0-.738.765c-.182.328-.273.719-.273 1.175 0 .455.091.856.273 1.202.192.337.438.596.738.778.31.183.638.274.984.274.355 0 .687-.087.997-.26.309-.182.555-.437.737-.765.183-.337.274-.737.274-1.202ZM268.984 167.016H384.56v5.252H268.984zM268.984 179.623h84.055v5.252h-84.055z" fill="#5B5B5B"/><path fill-rule="evenodd" clip-rule="evenodd" d="M230.106 150.206a12.61 12.61 0 0 0-12.61 12.535 12.598 12.598 0 0 0 1.641 6.292 7.868 7.868 0 0 1 6.241-3.068h9.456a7.868 7.868 0 0 1 6.241 3.068 12.61 12.61 0 0 0-.072-12.566 12.61 12.61 0 0 0-10.897-6.261Zm12.519 22.183a15.69 15.69 0 0 0 3.241-9.576c0-8.703-7.055-15.758-15.76-15.758-8.704 0-15.76 7.055-15.76 15.758a15.692 15.692 0 0 0 3.242 9.576l-.008.028.559.651a15.724 15.724 0 0 0 11.967 5.504 15.675 15.675 0 0 0 8.944-2.781 15.81 15.81 0 0 0 3.023-2.723l.559-.651-.007-.028Zm-12.519-19.031a4.727 4.727 0 1 0 0 9.454 4.727 4.727 0 0 0 0-9.454Z" fill="#5B5B5B"/><path d="m549.508 74.564-56.871 9.71-1.618 22.795 9.753-15.3 48.736-17.205Z" fill="#5BBC21"/><path d="m491.051 107.122-.033.022-.011.054.044-.076ZM549.508 74.564l-77.751.394 20.88 9.316 56.871-9.71Z" fill="#A0F171"/><path d="m500.771 91.769-9.753 15.3-.064.095.064-.021.032-.021 17.175-6.516-7.454-8.837Z" fill="#7FDF46"/><path d="M549.508 74.564 500.772 91.77l22.979 27.245 25.757-44.45Z" fill="#A0F171"/><path d="M441.528 408.306h-11.071v-78.602h11.071v78.602ZM460.505 408.307h-11.013V348.74h11.013v59.567ZM479.489 408.308h-11.012v-29.754h11.012v29.754ZM498.466 408.308h-11.013V361.51h11.013v46.798ZM517.503 408.308h-11.071v-64.662h11.071v64.662ZM536.481 408.306H525.41V333.16h11.071v75.146Z" fill="#878787"/><defs><filter id="a" x="111.701" y="207.264" width="311.399" height="293.514" filterUnits="userSpaceOnUse" color-interpolation-filters="sRGB"><feFlood flood-opacity="0" result="BackgroundImageFix"/><feColorMatrix in="SourceAlpha" values="0 0 0 0 0 0 0 0 0 0 0 0 0 0 0 0 0 0 127 0" result="hardAlpha"/><feOffset/><feGaussianBlur stdDeviation="10.508"/><feComposite in2="hardAlpha" operator="out"/><feColorMatrix values="0 0 0 0 0 0 0 0 0 0 0 0 0 0 0 0 0 0 0.25 0"/><feBlend in2="BackgroundImageFix" result="effect1_dropShadow_140_8144"/><feBlend in="SourceGraphic" in2="effect1_dropShadow_140_8144" result="shape"/></filter><filter id="b" x="123.984" y="33.587" width="342.529" height="109.269" filterUnits="userSpaceOnUse" color-interpolation-filters="sRGB"><feFlood flood-opacity="0" result="BackgroundImageFix"/><feColorMatrix in="SourceAlpha" values="0 0 0 0 0 0 0 0 0 0 0 0 0 0 0 0 0 0 127 0" result="hardAlpha"/><feOffset/><feGaussianBlur stdDeviation="10.508"/><feComposite in2="hardAlpha" operator="out"/><feColorMatrix values="0 0 0 0 0 0 0 0 0 0 0 0 0 0 0 0 0 0 0.25 0"/><feBlend in2="BackgroundImageFix" result="effect1_dropShadow_140_8144"/><feBlend in="SourceGraphic" in2="effect1_dropShadow_140_8144" result="shape"/></filter><filter id="c" x="173.367" y="108.179" width="342.529" height="109.269" filterUnits="userSpaceOnUse" color-interpolation-filters="sRGB"><feFlood flood-opacity="0" result="BackgroundImageFix"/><feColorMatrix in="SourceAlpha" values="0 0 0 0 0 0 0 0 0 0 0 0 0 0 0 0 0 0 127 0" result="hardAlpha"/><feOffset/><feGaussianBlur stdDeviation="10.508"/><feComposite in2="hardAlpha" operator="out"/><feColorMatrix values="0 0 0 0 0 0 0 0 0 0 0 0 0 0 0 0 0 0 0.25 0"/><feBlend in2="BackgroundImageFix" result="effect1_dropShadow_140_8144"/><feBlend in="SourceGraphic" in2="effect1_dropShadow_140_8144" result="shape"/></filter></defs></svg>