<svg width="160" height="48" viewBox="0 0 160 48" fill="none" xmlns="http://www.w3.org/2000/svg">
<path d="M154.074 47.4841H5.92593C2.66671 47.4841 0 44.8131 0 41.5486V5.93554C0 2.67098 2.66665 0 5.92593 0H154.074C157.333 0 160 2.67098 160 5.93554V41.5485C160 44.8131 157.333 47.4841 154.074 47.4841" fill="black"/>
<path d="M154.074 0H5.92593C2.66671 0 0 2.67098 0 5.93554V41.5485C0 44.8131 2.66665 47.4841 5.92593 47.4841H154.074C157.333 47.4841 160 44.8131 160 41.5486V5.93554C160 2.67098 157.333 0 154.074 0H154.074ZM154.074 0.949652C156.819 0.949652 159.052 3.18667 159.052 5.93554V41.5485C159.052 44.2979 156.819 46.5349 154.074 46.5349H5.92593C3.18155 46.5349 0.948158 44.2979 0.948158 41.5486V5.93554C0.948158 3.18667 3.18149 0.949705 5.92593 0.949705H154.074" fill="#A6A6A6"/>
<path d="M56.2016 12.16C56.2016 13.1545 55.9075 13.9465 55.3186 14.5374C54.6497 15.2399 53.7778 15.5914 52.7061 15.5914C51.6797 15.5914 50.807 15.2353 50.0894 14.522C49.3705 13.8093 49.0117 12.9255 49.0117 11.871C49.0117 10.8161 49.3705 9.93277 50.0894 9.21947C50.807 8.5068 51.6797 8.15015 52.7061 8.15015C53.2154 8.15015 53.7029 8.24991 54.1659 8.44886C54.6288 8.64829 55.0001 8.91301 55.2779 9.24454L54.6529 9.87099C54.1821 9.3076 53.5339 9.02612 52.7061 9.02612C51.9576 9.02612 51.3103 9.28957 50.764 9.81679C50.2177 10.3445 49.9446 11.0289 49.9446 11.871C49.9446 12.7132 50.2177 13.3975 50.764 13.9253C51.3103 14.4525 51.9575 14.7159 52.7061 14.7159C53.5002 14.7159 54.1622 14.4511 54.6922 13.9207C55.0363 13.5751 55.2352 13.0948 55.2885 12.478H52.706V11.6225H56.152C56.1853 11.8085 56.2015 11.987 56.2015 12.16" fill="white"/>
<path d="M56.1989 12.16H56.0804C56.0794 13.1319 55.796 13.8868 55.2321 14.4535L55.2309 14.4544L55.2304 14.4554C54.5827 15.1337 53.7501 15.4713 52.7034 15.4728C51.7044 15.4713 50.8682 15.13 50.17 14.4382C49.4734 13.7449 49.1289 12.8986 49.1276 11.8711C49.1289 10.8431 49.4734 9.99722 50.17 9.30446C50.8682 8.61212 51.7044 8.27035 52.7034 8.26891C53.1974 8.26891 53.6678 8.36547 54.1164 8.55786C54.5654 8.75174 54.9202 9.0058 55.1845 9.32121L55.2752 9.2446L55.1915 9.16067L54.5664 9.78755L54.6502 9.87105L54.7414 9.79507C54.2487 9.20378 53.5572 8.90571 52.7034 8.90747C51.9271 8.90651 51.2442 9.18436 50.6793 9.73159C50.109 10.2806 49.8225 11.0035 49.8234 11.8711C49.8225 12.7387 50.109 13.4616 50.6793 14.0106C51.2442 14.5578 51.9271 14.8356 52.7034 14.8347C53.5238 14.8361 54.2229 14.5574 54.7733 14.0046C55.1409 13.6355 55.3493 13.1241 55.404 12.4882L55.415 12.3593H52.8219V11.7412H56.1493V11.6225L56.0326 11.6434C56.065 11.8234 56.0803 11.9944 56.0803 12.16H56.3174C56.3174 11.9796 56.3007 11.7941 56.266 11.6013L56.2484 11.5038H52.5849V12.5968H55.2858V12.4781L55.1678 12.4679C55.1155 13.0652 54.9257 13.515 54.6058 13.8369C54.0965 14.345 53.4715 14.5958 52.7034 14.5973C51.9826 14.5963 51.3711 14.3477 50.8438 13.84C50.3216 13.3341 50.0618 12.6882 50.0605 11.8711C50.0618 11.054 50.3216 10.4081 50.8438 9.90215C51.3711 9.39441 51.9826 9.14584 52.7034 9.14488C53.5049 9.1468 54.11 9.41201 54.5596 9.9476L54.6429 10.0468L55.3591 9.32857L55.4359 9.25164L55.366 9.16852C55.0748 8.82083 54.6868 8.54484 54.21 8.33997C53.7322 8.13446 53.228 8.0315 52.7034 8.0315C51.6498 8.03059 50.7405 8.40154 50.003 9.13565C49.2628 9.86832 48.8896 10.7893 48.8906 11.8711C48.8896 12.9524 49.2627 13.8739 50.0035 14.607C50.7405 15.3406 51.6498 15.7111 52.7034 15.7102C53.8007 15.7111 54.7109 15.3461 55.4017 14.6195L55.3159 14.5374L55.3997 14.6214C56.0137 14.0069 56.3182 13.1769 56.3174 12.16H56.1989H56.1989ZM61.6618 9.18479H58.4234V11.4431H61.3438V12.299H58.4234V14.5574H61.6618V15.4324H57.5104V8.30978H61.6618V9.18479" fill="white"/>
<path d="M61.6605 9.18464V9.06593H58.3036V11.5617H61.224V12.1798L58.3035 12.1801V14.6759H61.5419V15.3135H57.6277V8.42833H61.5419V9.18464H61.6605V9.06593V9.18464H61.779V8.19092H57.3906V15.5509H61.779V14.4385H58.5406V12.4176H61.461V11.3243H58.5406V9.30334H61.779V9.18464H61.6605V9.18464ZM65.5137 15.4323H64.5994V9.18458H62.6132V8.30957H67.4999V9.18458H65.5137V15.4322" fill="white"/>
<path d="M65.5151 15.4323V15.3135H64.7192V9.06593H62.7331V8.42838H67.3827V9.06593H65.3966V15.4322H65.5151V15.3135V15.4322H65.6336V9.30334H67.6197V8.19092H62.4961V9.30329H64.4822V15.5509H65.6336V15.4322H65.5151V15.4323ZM71.0369 15.4323V8.30957H71.9503V15.4322H71.0369" fill="white"/>
<path d="M71.0365 15.4323H71.155V8.42833H71.8313V15.3135H71.0365V15.4322H71.155H71.0365V15.5509H72.0684V8.19092H70.918V15.5509H71.0365V15.4322V15.4323ZM76.0031 15.4323H75.0888V9.18458H73.1027V8.30957H77.9892V9.18458H76.0031V15.4322" fill="white"/>
<path d="M76.0033 15.4324V15.3136H75.2074V9.06603H73.2214V8.42848H77.8709V9.06603H75.8848V15.4323H76.0033V15.3136V15.4323H76.1218V9.30344H78.1079V8.19101H72.9844V9.30339H74.9704V15.551H76.1218V15.4323H76.0033V15.4324ZM82.7005 13.9156C83.2268 14.4493 83.8709 14.7159 84.6325 14.7159C85.3941 14.7159 86.0385 14.4493 86.564 13.9156C87.0908 13.3819 87.3547 12.6996 87.3547 11.871C87.3547 11.0425 87.0908 10.3602 86.564 9.82649C86.0385 9.29277 85.3941 9.02612 84.6325 9.02612C83.8709 9.02612 83.2268 9.29277 82.7005 9.82649C82.175 10.3602 81.9112 11.0424 81.9112 11.871C81.9112 12.6996 82.175 13.3819 82.7005 13.9156ZM87.2399 14.5119C86.5408 15.2319 85.6713 15.5914 84.6325 15.5914C83.5926 15.5914 82.7236 15.2319 82.026 14.5119C81.3264 13.7926 80.9783 12.9121 80.9783 11.871C80.9783 10.8299 81.3264 9.94931 82.026 9.23019C82.7236 8.50995 83.5926 8.15015 84.6325 8.15015C85.6659 8.15015 86.5329 8.51187 87.2353 9.23483C87.9366 9.95774 88.2876 10.8364 88.2876 11.871C88.2876 12.9121 87.9375 13.7926 87.2399 14.5119Z" fill="white"/>
<path d="M82.7001 13.9157L82.6158 13.9991C83.1617 14.5542 83.8427 14.8361 84.6321 14.8347C85.4209 14.8361 86.1028 14.5542 86.6478 13.9991C87.1973 13.4435 87.4736 12.7248 87.4728 11.8711C87.4736 11.0175 87.1973 10.2987 86.6478 9.74306C86.1028 9.18799 85.4209 8.90608 84.6321 8.90747C83.8427 8.90608 83.1617 9.18799 82.6158 9.74306C82.0677 10.2987 81.7908 11.0175 81.7922 11.8711C81.7908 12.7247 82.0677 13.4435 82.6158 13.9991L82.7001 13.9157L82.7844 13.8322C82.2816 13.3197 82.0302 12.6751 82.0293 11.8711C82.0302 11.0671 82.2816 10.4225 82.7843 9.90999C83.2917 9.39766 83.8977 9.14632 84.6321 9.14494C85.3658 9.14632 85.9732 9.39766 86.4793 9.90999C86.983 10.4225 87.2344 11.0671 87.2353 11.8711C87.2344 12.6751 86.983 13.3197 86.4793 13.8322C85.9732 14.3445 85.3658 14.5958 84.6321 14.5972C83.8977 14.5958 83.2917 14.3445 82.7843 13.8322L82.7001 13.9157ZM87.2394 14.5119L87.1547 14.4294C86.4751 15.1268 85.6441 15.4714 84.6321 15.4728C83.6196 15.4713 82.7885 15.1268 82.1102 14.4294L82.107 14.4257L82.1102 14.4294C81.432 13.7296 81.0974 12.8857 81.0964 11.8711C81.0974 10.8564 81.432 10.0125 82.1102 9.31278C82.7885 8.61532 83.6195 8.27035 84.6321 8.26896C85.6376 8.27035 86.4667 8.61676 87.1501 9.31785C87.8306 10.0209 88.1672 10.8634 88.1687 11.8711C88.1672 12.8857 87.8316 13.7296 87.1547 14.4294L87.2394 14.5119L87.3247 14.5944C88.0431 13.8553 88.4065 12.9385 88.4057 11.8711C88.4065 10.8097 88.0417 9.89479 87.3199 9.15241C86.5978 8.40709 85.6932 8.03022 84.6321 8.0315C83.5654 8.03022 82.658 8.40533 81.9404 9.14777V9.14723C81.2205 9.88684 80.8584 10.8036 80.8594 11.8711C80.8584 12.9385 81.2205 13.8553 81.9404 14.5949L81.9436 14.5982L81.9404 14.5944C82.658 15.3368 83.5654 15.7111 84.6321 15.7102C85.6982 15.7111 86.6056 15.3368 87.3247 14.5944L87.2394 14.5119V14.5119ZM89.5695 15.4324V8.30972H90.6816L94.1376 13.8506H94.177L94.1376 12.478V8.30972H95.052V15.4323H94.0982L90.4825 9.62291H90.4431L90.4825 10.996V15.4323H89.5695" fill="white"/>
<path d="M89.5693 15.4323H89.6879V8.42833H90.6157L94.0717 13.9692H94.2985L94.2559 12.4761V8.42838H94.9333V15.3135H94.1638L90.5481 9.50411H90.3213L90.3638 10.9978V15.3135H89.5694V15.4322H89.6879H89.5694V15.5509H90.6008V10.994L90.5615 9.61961L90.443 9.62281V9.74152H90.4823V9.62281L90.3818 9.68593L94.0323 15.5509H95.1703V8.19092H94.0189V12.4793L94.0583 13.8537L94.1768 13.8505V13.7318H94.1374V13.8505L94.2379 13.7875L90.7471 8.19092H89.4509V15.5509H89.5694V15.4322L89.5693 15.4323ZM126.738 35.613H128.949V20.7728H126.737L126.738 35.613ZM146.657 26.1186L144.122 32.5525H144.046L141.415 26.1185H139.033L142.978 35.1112L140.729 40.1133H143.036L149.116 26.1185L146.657 26.1186ZM134.115 33.9274C133.39 33.9274 132.38 33.5648 132.38 32.6671C132.38 31.5216 133.639 31.0825 134.724 31.0825C135.698 31.0825 136.154 31.2925 136.745 31.5792C136.573 32.9536 135.392 33.9274 134.115 33.9274V33.9274ZM134.382 25.7939C132.781 25.7939 131.123 26.5005 130.436 28.0661L132.399 28.8869C132.819 28.0661 133.6 27.7985 134.42 27.7985C135.564 27.7985 136.726 28.4862 136.745 29.7081V29.8607C136.345 29.6316 135.488 29.288 134.439 29.288C132.323 29.288 130.169 30.4523 130.169 32.629C130.169 34.6147 131.904 35.894 133.847 35.894C135.335 35.894 136.154 35.2257 136.669 34.4431H136.745V35.5884H138.88V29.8986C138.88 27.2644 136.917 25.7939 134.382 25.7939V25.7939ZM120.714 27.9251H117.569V22.8382H120.714C122.368 22.8382 123.306 24.2094 123.306 25.3816C123.306 26.5316 122.368 27.9251 120.714 27.9251ZM120.658 20.7728H115.359V35.613H117.569V29.9905H120.658C123.108 29.9905 125.518 28.213 125.518 25.3816C125.518 22.5502 123.108 20.7728 120.658 20.7728V20.7728ZM91.7615 33.9302C90.2337 33.9302 88.9545 32.6489 88.9545 30.8891C88.9545 29.1109 90.2337 27.8101 91.7615 27.8101C93.2699 27.8101 94.4536 29.1108 94.4536 30.8891C94.4536 32.6489 93.2699 33.9302 91.7615 33.9302H91.7615ZM94.3008 26.9495H94.2244C93.7282 26.3568 92.773 25.8213 91.5703 25.8213C89.0499 25.8213 86.7398 28.0397 86.7398 30.8891C86.7398 33.7197 89.0499 35.919 91.5703 35.919C92.773 35.919 93.7282 35.3834 94.2244 34.7718H94.3008V35.4984C94.3008 37.4303 93.2699 38.463 91.6087 38.463C90.2531 38.463 89.4129 37.4873 89.0689 36.6651L87.1407 37.4683C87.6944 38.807 89.1647 40.4519 91.6087 40.4519C94.2055 40.4519 96.4013 38.9215 96.4013 35.1924V26.1273H94.3008V26.9495ZM97.9286 35.613H100.143V20.7723H97.9286V35.613ZM103.409 30.7171C103.351 28.7662 104.917 27.772 106.043 27.772C106.922 27.772 107.667 28.2117 107.914 28.8433L103.409 30.7171ZM110.282 29.0343C109.863 27.9056 108.583 25.8213 105.967 25.8213C103.37 25.8213 101.213 27.8676 101.213 30.8702C101.213 33.7007 103.351 35.919 106.215 35.919C108.526 35.919 109.863 34.5037 110.416 33.6815L108.698 32.5339C108.125 33.3755 107.342 33.9302 106.215 33.9302C105.089 33.9302 104.287 33.4136 103.771 32.4003L110.511 29.6079L110.282 29.0343ZM56.5838 27.3705V29.5124H61.7008C61.548 30.7171 61.1471 31.5968 60.536 32.2088C59.7916 32.955 58.6268 33.7772 56.5837 33.7772C53.4332 33.7772 50.9703 31.2336 50.9703 28.0781C50.9703 24.9226 53.4332 22.3787 56.5838 22.3787C58.2832 22.3787 59.524 23.0482 60.4406 23.9088L61.949 22.3981C60.6698 21.1739 58.9703 20.2368 56.5838 20.2368C52.2684 20.2368 48.6406 23.7559 48.6406 28.0781C48.6406 32.4003 52.2684 35.919 56.5838 35.919C58.9134 35.919 60.6698 35.1544 62.0444 33.7197C63.4574 32.3044 63.8967 30.3156 63.8967 28.7093C63.8967 28.2117 63.8587 27.7531 63.7819 27.3705H56.5838ZM69.7143 33.9302C68.1865 33.9302 66.8689 32.6679 66.8689 30.8702C66.8689 29.0533 68.1865 27.8101 69.7143 27.8101C71.2415 27.8101 72.5591 29.0533 72.5591 30.8702C72.5591 32.6679 71.2415 33.9302 69.7143 33.9302ZM69.7143 25.8213C66.9263 25.8213 64.654 27.9441 64.654 30.8702C64.654 33.7772 66.9263 35.919 69.7143 35.919C72.5017 35.919 74.774 33.7772 74.774 30.8702C74.774 27.9441 72.5017 25.8213 69.7143 25.8213ZM80.7521 33.9302C79.225 33.9302 77.9072 32.6679 77.9072 30.8702C77.9072 29.0533 79.225 27.8101 80.7522 27.8101C82.2795 27.8101 83.5971 29.0533 83.5971 30.8702C83.5971 32.6679 82.2795 33.9302 80.7522 33.9302H80.7521ZM80.7521 25.8213C77.9643 25.8213 75.6925 27.9441 75.6925 30.8702C75.6925 33.7772 77.9643 35.919 80.7522 35.919C83.5397 35.919 85.812 33.7772 85.812 30.8702C85.812 27.9441 83.5397 25.8213 80.7522 25.8213H80.7521Z" fill="white"/>
<path d="M12.4555 9.0355C12.0577 9.39493 11.8203 9.99444 11.8203 10.7902V10.6103V36.8703V36.6974C11.8203 37.4323 12.024 37.9998 12.3688 38.3653L12.4568 38.4497V38.4501C12.736 38.7024 13.0939 38.8364 13.5041 38.8359C13.905 38.8359 14.3559 38.708 14.8319 38.4377L32.0351 28.6473L37.9443 25.284C38.6948 24.857 39.1161 24.3061 39.1865 23.7449V23.7426C39.1161 23.1802 38.6948 22.6297 37.9443 22.2026L32.0346 18.8397L14.8319 9.04937C14.355 8.77862 13.9037 8.65015 13.5018 8.65015C13.092 8.65015 12.7346 8.78368 12.4556 9.0355H12.4555Z" fill="#00C1FF"/>
<path d="M12.4569 38.4497L12.3688 38.3653C12.024 37.9998 11.8203 37.4322 11.8203 36.6973V36.8703V10.6168V10.7902C11.8203 9.9944 12.0577 9.3949 12.4555 9.03547L27.1397 23.7431L12.4569 38.4497Z" fill="url(#paint0_linear_333_35)"/>
<path d="M32.036 28.6472L27.1406 23.7431L32.0356 18.8397L37.9453 22.2025C38.6957 22.6297 39.117 23.1801 39.1874 23.7426V23.7448C39.117 24.306 38.6957 24.8569 37.9453 25.2839L32.0361 28.6472" fill="url(#paint1_linear_333_35)"/>
<path d="M13.5042 38.8359C13.094 38.8363 12.7361 38.7023 12.457 38.45V38.4497L27.1398 23.743L32.0352 28.6472L14.832 38.4376C14.356 38.7079 13.905 38.8359 13.5042 38.8359Z" fill="url(#paint2_linear_333_35)"/>
<path d="M27.1374 23.7429L12.4531 9.03532C12.7323 8.7835 13.0897 8.64996 13.4994 8.64996C13.9013 8.64996 14.3526 8.77838 14.8295 9.04919L32.0323 18.8396L27.1374 23.7429" fill="url(#paint3_linear_333_35)"/>
<path d="M13.5029 39.0098C13.0927 39.0098 12.7343 38.8757 12.4552 38.6235L12.4547 38.6239C12.4535 38.6228 12.4523 38.6217 12.451 38.6207L12.3747 38.546C12.3723 38.5437 12.37 38.541 12.3672 38.5382L12.4552 38.4501C12.7344 38.7023 13.0922 38.8363 13.5025 38.8358C13.9033 38.8358 14.3543 38.7079 14.8302 38.4376L32.0334 28.6472L32.1436 28.7576L32.032 28.8211L14.8301 38.611C14.3964 38.8572 13.9838 38.9857 13.6112 39.007C13.5751 39.0088 13.539 39.0097 13.5029 39.0097" fill="url(#paint4_linear_333_35)"/>
<path d="M12.3688 38.5381C12.024 38.1726 11.8203 37.6055 11.8203 36.8701V36.6971C11.8203 37.4321 12.024 37.9996 12.3688 38.3651L12.4568 38.4495L12.3688 38.5381" fill="url(#paint5_linear_333_35)"/>
<path d="M32.1454 28.7575L32.0352 28.6471L37.9443 25.2838C38.6948 24.8568 39.1161 24.3059 39.1866 23.7447C39.1866 23.9507 39.1407 24.1566 39.0496 24.3569C38.8657 24.7608 38.4973 25.1424 37.9444 25.4573L32.1454 28.7576" fill="url(#paint6_linear_333_35)"/>
<path d="M39.187 23.7427C39.1166 23.1802 38.6953 22.6298 37.9449 22.2026L32.0352 18.8398L32.1454 18.7294H32.1459L37.9449 22.0297C38.7722 22.5008 39.1866 23.1217 39.187 23.7427" fill="url(#paint7_linear_333_35)"/>
<path d="M11.8203 10.79V10.6086C11.8203 10.5432 11.8221 10.4793 11.8254 10.4172V10.4143C11.8254 10.4135 11.8254 10.4126 11.8258 10.4116V10.4046C11.8614 9.77162 12.0577 9.27785 12.3688 8.94814L12.4555 9.03526C12.0577 9.39474 11.8203 9.99425 11.8203 10.79Z" fill="url(#paint8_linear_333_35)"/>
<path d="M32.0329 18.8398L14.8302 9.04936C14.3533 8.7786 13.902 8.65019 13.5001 8.65019C13.0904 8.65019 12.7329 8.78372 12.4538 9.03554L12.3672 8.94837C12.3942 8.91967 12.4224 8.892 12.4515 8.86541C12.4524 8.86445 12.4538 8.86348 12.4547 8.86258C12.7316 8.61268 13.0853 8.47914 13.4914 8.47674H13.5001C13.902 8.47674 14.3533 8.60521 14.8302 8.87608L32.1436 18.729L32.1432 18.7294L32.0329 18.8398" fill="url(#paint9_linear_333_35)"/>
<defs>
<linearGradient id="paint0_linear_333_35" x1="21.2044" y1="10.3393" x2="8.54991" y2="23.0142" gradientUnits="userSpaceOnUse">
<stop stop-color="#00A0FF"/>
<stop offset="0.00657" stop-color="#00A1FF"/>
<stop offset="0.2601" stop-color="#00BEFF"/>
<stop offset="0.5122" stop-color="#00D2FF"/>
<stop offset="0.7604" stop-color="#00DFFF"/>
<stop offset="1" stop-color="#00E3FF"/>
</linearGradient>
<linearGradient id="paint1_linear_333_35" x1="40.1018" y1="23.6583" x2="11.4239" y2="23.6583" gradientUnits="userSpaceOnUse">
<stop stop-color="#FFE000"/>
<stop offset="0.4087" stop-color="#FFBD00"/>
<stop offset="0.7754" stop-color="#FFA500"/>
<stop offset="1" stop-color="#FF9C00"/>
</linearGradient>
<linearGradient id="paint2_linear_333_35" x1="29.4362" y1="28.4057" x2="7.99217" y2="49.7274" gradientUnits="userSpaceOnUse">
<stop stop-color="#FF3A44"/>
<stop offset="1" stop-color="#C31162"/>
</linearGradient>
<linearGradient id="paint3_linear_333_35" x1="8.66858" y1="6.85485" x2="18.2257" y2="16.3721" gradientUnits="userSpaceOnUse">
<stop stop-color="#32A071"/>
<stop offset="0.0685" stop-color="#2DA771"/>
<stop offset="0.4762" stop-color="#15CF74"/>
<stop offset="0.8009" stop-color="#06E775"/>
<stop offset="1" stop-color="#00F076"/>
</linearGradient>
<linearGradient id="paint4_linear_333_35" x1="29.4237" y1="31.8075" x2="12.2503" y2="49.0087" gradientUnits="userSpaceOnUse">
<stop stop-color="#CC2E36"/>
<stop offset="1" stop-color="#9C0E4E"/>
</linearGradient>
<linearGradient id="paint5_linear_333_35" x1="13.7765" y1="10.3391" x2="2.62802" y2="21.5057" gradientUnits="userSpaceOnUse">
<stop stop-color="#008DE0"/>
<stop offset="0.00657" stop-color="#008DE0"/>
<stop offset="0.2601" stop-color="#00A7E0"/>
<stop offset="0.5122" stop-color="#00B8E0"/>
<stop offset="0.7604" stop-color="#00C4E0"/>
<stop offset="1" stop-color="#00C7E0"/>
</linearGradient>
<linearGradient id="paint6_linear_333_35" x1="40.101" y1="23.7437" x2="11.423" y2="23.7437" gradientUnits="userSpaceOnUse">
<stop stop-color="#E0C500"/>
<stop offset="0.4087" stop-color="#E0A600"/>
<stop offset="0.7754" stop-color="#E09100"/>
<stop offset="1" stop-color="#E08900"/>
</linearGradient>
<linearGradient id="paint7_linear_333_35" x1="40.1014" y1="23.7438" x2="11.4235" y2="23.7438" gradientUnits="userSpaceOnUse">
<stop stop-color="#FFE840"/>
<stop offset="0.4087" stop-color="#FFCE40"/>
<stop offset="0.7754" stop-color="#FFBC40"/>
<stop offset="1" stop-color="#FFB540"/>
</linearGradient>
<linearGradient id="paint8_linear_333_35" x1="13.7644" y1="10.3593" x2="3.02645" y2="20.6487" gradientUnits="userSpaceOnUse">
<stop stop-color="#40B8FF"/>
<stop offset="0.00657" stop-color="#40B9FF"/>
<stop offset="0.2601" stop-color="#40CEFF"/>
<stop offset="0.5122" stop-color="#40DDFF"/>
<stop offset="0.7604" stop-color="#40E7FF"/>
<stop offset="1" stop-color="#40EAFF"/>
</linearGradient>
<linearGradient id="paint9_linear_333_35" x1="8.64783" y1="9.96545" x2="16.3165" y2="17.6466" gradientUnits="userSpaceOnUse">
<stop stop-color="#65B895"/>
<stop offset="0.0685" stop-color="#62BD95"/>
<stop offset="0.4762" stop-color="#50DB97"/>
<stop offset="0.8009" stop-color="#44ED98"/>
<stop offset="1" stop-color="#40F498"/>
</linearGradient>
</defs>
</svg>
