<svg width="26" height="26" viewBox="0 0 26 26" fill="none" xmlns="http://www.w3.org/2000/svg">
<path fill-rule="evenodd" clip-rule="evenodd" d="M11.6995 17.2252L16.7586 13.4335C17.0511 13.2169 17.0511 12.7835 16.7586 12.5669L11.6995 8.77519C11.342 8.50435 10.8328 8.76436 10.8328 9.20852L10.8328 16.7919C10.8328 17.236 11.342 17.496 11.6995 17.2252ZM12.9993 2.16699C7.01935 2.16699 2.16602 7.02033 2.16602 13.0003C2.16602 18.9803 7.01935 23.8337 12.9993 23.8337C18.9793 23.8337 23.8327 18.9803 23.8327 13.0003C23.8327 7.02033 18.9793 2.16699 12.9993 2.16699ZM12.9995 21.6671C8.22197 21.6671 4.3328 17.7779 4.3328 13.0004C4.3328 8.22295 8.22197 4.33378 12.9995 4.33378C17.777 4.33378 21.6661 8.22295 21.6661 13.0004C21.6661 17.7779 17.777 21.6671 12.9995 21.6671Z" fill="#6DB013"/>
</svg>
