<svg width="160" height="48" viewBox="0 0 160 48" fill="none" xmlns="http://www.w3.org/2000/svg">
<path d="M158.94 41.811C158.94 42.4077 158.822 42.9985 158.594 43.5497C158.365 44.1009 158.03 44.6017 157.608 45.0234C157.186 45.445 156.684 45.7794 156.133 46.0073C155.581 46.2352 154.99 46.3522 154.393 46.3516H5.60784C4.40193 46.3528 3.24489 45.8752 2.39118 45.0237C1.53747 44.1722 1.05699 43.0166 1.05542 41.811V5.60165C1.05699 4.39551 1.53728 3.23929 2.39082 2.38687C3.24436 1.53444 4.40138 1.05549 5.60784 1.05518H154.392C154.989 1.05518 155.581 1.17278 156.132 1.40128C156.684 1.62977 157.185 1.96468 157.607 2.38688C158.03 2.80907 158.365 3.31028 158.593 3.86188C158.821 4.41348 158.939 5.00465 158.939 5.60165L158.94 41.811Z" fill="white"/>
<path d="M154.393 47.4078H5.60781C4.12227 47.4075 2.69752 46.818 1.64619 45.7688C0.594858 44.7195 0.00282659 43.2961 0 41.811L0 5.60277C0.00219765 4.11688 0.593838 2.69253 1.64513 1.64218C2.69643 0.591834 4.12153 0.00125415 5.60781 0L154.392 0C155.878 0.00187994 157.303 0.592661 158.354 1.64288C159.405 2.69309 159.997 4.11708 160 5.60277V41.811C160.002 44.8981 157.482 47.4078 154.393 47.4078V47.4078Z" fill="#A6A6A6"/>
<path d="M158.94 41.811C158.94 42.4077 158.822 42.9985 158.594 43.5497C158.365 44.1009 158.03 44.6017 157.608 45.0234C157.186 45.445 156.684 45.7794 156.133 46.0073C155.581 46.2352 154.99 46.3522 154.393 46.3516H5.60784C4.40193 46.3528 3.24489 45.8752 2.39118 45.0237C1.53747 44.1722 1.05699 43.0166 1.05542 41.811V5.60165C1.05699 4.39551 1.53728 3.23929 2.39082 2.38687C3.24436 1.53444 4.40138 1.05549 5.60784 1.05518H154.392C154.989 1.05518 155.581 1.17278 156.132 1.40128C156.684 1.62977 157.185 1.96468 157.607 2.38688C158.03 2.80907 158.365 3.31028 158.593 3.86188C158.821 4.41348 158.939 5.00465 158.939 5.60165L158.94 41.811Z" fill="black"/>
<path d="M35.7267 23.4543C35.6923 19.6334 38.8561 17.7745 39.0008 17.688C37.209 15.0762 34.4318 14.7194 33.4558 14.691C31.1233 14.4456 28.8607 16.0863 27.6725 16.0863C26.4606 16.0863 24.6308 14.7147 22.6588 14.755C20.1211 14.7941 17.7471 16.263 16.445 18.5439C13.7579 23.1947 15.762 30.0292 18.3364 33.7885C19.6242 35.6308 21.1291 37.6853 23.0987 37.613C25.0257 37.5348 25.7455 36.386 28.0709 36.386C30.375 36.386 31.0509 37.613 33.0598 37.5668C35.1278 37.5348 36.4299 35.7174 37.6726 33.8596C39.1609 31.7506 39.7585 29.6712 39.7823 29.5645C39.7348 29.5479 35.767 28.0328 35.7267 23.4543V23.4543ZM31.932 12.218C32.9684 10.9222 33.6776 9.15931 33.4807 7.37036C31.9806 7.43675 30.1047 8.40769 29.0244 9.67501C28.0686 10.7918 27.2148 12.6222 27.4353 14.3436C29.1204 14.4693 30.8505 13.4936 31.932 12.218V12.218Z" fill="white"/>
<path d="M63.6378 37.3486H60.9448L59.4696 32.7144H54.342L52.9368 37.3486H50.3149L55.3962 21.5717H58.534L63.6378 37.3486V37.3486ZM59.0249 30.7701L57.6908 26.6505C57.5497 26.2296 57.2841 25.2385 56.8951 23.6784H56.8477C56.6912 24.3494 56.441 25.3405 56.0983 26.6505L54.7867 30.7701H59.0249ZM76.6796 31.5206C76.6796 33.4553 76.1543 34.9847 75.1025 36.1074C74.1609 37.1068 72.9905 37.6059 71.5948 37.6059C70.0876 37.6059 69.0037 37.0688 68.3456 35.9924V41.9615H65.8174V29.7115C65.8174 28.4963 65.7853 27.2503 65.7237 25.9723H67.9471L68.0882 27.7755H68.1357C68.9788 26.4169 70.2583 25.7376 71.9754 25.7376C73.3178 25.7376 74.4384 26.2675 75.3349 27.3286C76.2302 28.392 76.6796 29.7885 76.6796 31.5206ZM74.104 31.613C74.104 30.5058 73.855 29.5929 73.3545 28.8733C72.8079 28.1252 72.0738 27.7506 71.1536 27.7506C70.5299 27.7506 69.963 27.9593 69.4567 28.3706C68.9492 28.7856 68.6171 29.3274 68.4618 29.9984C68.3924 30.2493 68.353 30.5076 68.3444 30.7678V32.6658C68.3444 33.4921 68.5981 34.1904 69.1057 34.7618C69.6132 35.3308 70.2725 35.6166 71.0837 35.6166C72.0359 35.6166 72.777 35.2479 73.3071 34.5164C73.8384 33.7826 74.104 32.8152 74.104 31.613V31.613ZM89.7677 31.5206C89.7677 33.4553 89.2424 34.9847 88.1905 36.1074C87.2478 37.1068 86.0785 37.6059 84.6816 37.6059C83.1744 37.6059 82.0906 37.0688 81.4324 35.9924V41.9615H78.9042V29.7115C78.9042 28.4963 78.8722 27.2503 78.8106 25.9723H81.034L81.1751 27.7755H81.2226C82.0645 26.4169 83.344 25.7376 85.0623 25.7376C86.4035 25.7376 87.5241 26.2675 88.4229 27.3286C89.3171 28.392 89.7677 29.7885 89.7677 31.5206V31.5206ZM87.1909 31.613C87.1909 30.5058 86.9406 29.5929 86.4402 28.8733C85.8935 28.1252 85.1619 27.7506 84.2417 27.7506C83.6179 27.7506 83.0511 27.9593 82.5424 28.3706C82.0348 28.7856 81.704 29.3274 81.5486 29.9984C81.4716 30.3113 81.4301 30.5662 81.4301 30.7678V32.6658C81.4301 33.4921 81.685 34.1904 82.1902 34.7618C82.6977 35.3297 83.3571 35.6166 84.1705 35.6166C85.1239 35.6166 85.8651 35.2479 86.394 34.5164C86.9252 33.7826 87.1909 32.8152 87.1909 31.613V31.613ZM104.401 32.923C104.401 34.2662 103.931 35.3581 102.998 36.201C101.971 37.121 100.537 37.5821 98.6994 37.5821C97.0013 37.5821 95.6399 37.2549 94.613 36.5993L95.1976 34.4927C96.3064 35.1495 97.5242 35.4767 98.85 35.4767C99.8034 35.4767 100.545 35.2609 101.073 34.8329C101.603 34.4038 101.871 33.83 101.871 33.1139C101.871 32.4725 101.65 31.9355 101.215 31.4981C100.777 31.0618 100.054 30.6551 99.0373 30.2817C96.2744 29.2515 94.8917 27.7447 94.8917 25.7625C94.8917 24.4679 95.3802 23.4081 96.355 22.5794C97.3297 21.7519 98.6223 21.3381 100.23 21.3381C101.666 21.3381 102.863 21.5883 103.813 22.0874L103.178 24.1478C102.284 23.6641 101.275 23.4223 100.146 23.4223C99.2544 23.4223 98.5547 23.6416 98.0543 24.0779C97.6333 24.4679 97.4199 24.9433 97.4199 25.5076C97.4199 26.13 97.663 26.6469 98.1468 27.0523C98.5666 27.4258 99.3326 27.8324 100.44 28.2687C101.799 28.8164 102.798 29.4542 103.437 30.1869C104.081 30.9195 104.401 31.8336 104.401 32.923ZM112.781 27.8692H109.994V33.3925C109.994 34.7974 110.485 35.498 111.47 35.498C111.921 35.498 112.296 35.4601 112.593 35.3806L112.663 37.3C112.165 37.4861 111.509 37.5798 110.696 37.5798C109.698 37.5798 108.918 37.2751 108.354 36.6657C107.794 36.0564 107.511 35.0356 107.511 33.5988V27.8644H105.851V25.9676H107.511V23.8846L109.994 23.1354V25.9676H112.781V27.8692V27.8692ZM125.33 31.5668C125.33 33.3155 124.829 34.7511 123.831 35.8738C122.786 37.0297 121.396 37.6059 119.664 37.6059C117.992 37.6059 116.662 37.0522 115.671 35.9461C114.68 34.8377 114.184 33.4411 114.184 31.7565C114.184 29.9936 114.696 28.5497 115.717 27.427C116.741 26.3031 118.119 25.7412 119.851 25.7412C121.521 25.7412 122.862 26.296 123.877 27.4033C124.847 28.4773 125.33 29.8644 125.33 31.5668ZM122.709 31.6249C122.709 30.5828 122.484 29.6889 122.032 28.9409C121.502 28.0375 120.743 27.5858 119.76 27.5858C118.747 27.5858 117.97 28.0375 117.442 28.9409C116.989 29.6889 116.763 30.5982 116.763 31.6723C116.763 32.7156 116.989 33.6118 117.442 34.3575C117.988 35.2609 118.751 35.7126 119.738 35.7126C120.705 35.7126 121.463 35.2514 122.011 34.335C122.475 33.5692 122.709 32.6693 122.709 31.6249ZM133.551 28.1952C133.288 28.1477 133.021 28.1243 132.754 28.1252C131.865 28.1252 131.177 28.4596 130.693 29.1329C130.273 29.7257 130.062 30.4749 130.062 31.3795V37.3486H127.534V29.555C127.536 28.3608 127.512 27.1666 127.461 25.9735H129.663L129.755 28.1501H129.825C130.093 27.4021 130.513 26.7986 131.089 26.347C131.617 25.9523 132.258 25.7385 132.917 25.7376C133.15 25.7376 133.361 25.7542 133.549 25.7838L133.551 28.1952V28.1952ZM144.858 31.1222C144.864 31.5065 144.833 31.8904 144.766 32.2686H137.181C137.209 33.3925 137.577 34.2532 138.281 34.846C138.921 35.3747 139.747 35.6403 140.762 35.6403C141.885 35.6403 142.91 35.4624 143.831 35.1032L144.227 36.8566C143.15 37.3261 141.879 37.5596 140.412 37.5596C138.648 37.5596 137.263 37.0404 136.255 36.0042C135.249 34.9669 134.745 33.5727 134.745 31.8264C134.745 30.1122 135.214 28.6836 136.152 27.5443C137.133 26.328 138.46 25.7198 140.13 25.7198C141.77 25.7198 143.012 26.328 143.855 27.5443C144.522 28.5082 144.858 29.7032 144.858 31.1222V31.1222ZM142.447 30.4666C142.465 29.7162 142.299 29.0701 141.956 28.5236C141.519 27.8194 140.845 27.4685 139.943 27.4685C139.116 27.4685 138.443 27.8111 137.93 28.4987C137.509 29.0452 137.259 29.702 137.182 30.4643L142.447 30.4666Z" fill="white"/>
<path d="M53.6126 15.9937C52.9094 15.9937 52.301 15.9593 51.7947 15.9012V8.27359C52.5029 8.16422 53.2185 8.11031 53.9351 8.11236C56.8345 8.11236 58.1697 9.53854 58.1697 11.8633C58.1697 14.545 56.5926 15.9937 53.6126 15.9937ZM54.0371 9.09041C53.6458 9.09041 53.3125 9.11412 53.0362 9.17103V14.9694C53.1857 14.9931 53.4726 15.0038 53.8758 15.0038C55.7755 15.0038 56.857 13.9226 56.857 11.8977C56.857 10.0922 55.8787 9.09041 54.0371 9.09041V9.09041ZM62.3308 16.0518C60.6967 16.0518 59.6378 14.8319 59.6378 13.1757C59.6378 11.4496 60.7193 10.219 62.4233 10.219C64.0337 10.219 65.1163 11.3808 65.1163 13.0844C65.1163 14.8319 64.0005 16.0518 62.3308 16.0518ZM62.3783 11.1271C61.4806 11.1271 60.9054 11.9665 60.9054 13.1402C60.9054 14.2913 61.4924 15.1306 62.3664 15.1306C63.2404 15.1306 63.8273 14.2332 63.8273 13.1164C63.8273 11.9783 63.2522 11.1271 62.3783 11.1271ZM74.4346 10.334L72.6855 15.9249H71.5459L70.8214 13.497C70.6412 12.9031 70.4912 12.3005 70.372 11.6914H70.3483C70.2569 12.3008 70.0838 12.9113 69.9 13.497L69.1292 15.9249H67.9778L66.3318 10.334H67.609L68.2422 12.992C68.3916 13.625 68.5173 14.2225 68.6217 14.7868H68.6454C68.7367 14.3162 68.8861 13.7282 69.1055 13.0038L69.9 10.3352H70.9127L71.6728 12.9469C71.8566 13.58 72.006 14.2012 72.1223 14.788H72.1555C72.2361 14.213 72.363 13.6025 72.5349 12.9469L73.2144 10.3352L74.4346 10.334V10.334ZM80.8737 15.9249H79.631V12.7145C79.631 11.7258 79.2515 11.2303 78.5032 11.2303C77.7668 11.2303 77.2605 11.8633 77.2605 12.5996V15.9249H76.0177V11.9321C76.0177 11.4377 76.0059 10.9078 75.9715 10.3328H77.0648L77.1229 11.1959H77.1573C77.4917 10.5984 78.17 10.219 78.9301 10.219C80.1041 10.219 80.8749 11.1165 80.8749 12.577L80.8737 15.9249V15.9249ZM84.3008 15.9249H83.0568V7.76855H84.3008V15.9249ZM88.8319 16.0518C87.199 16.0518 86.1388 14.8319 86.1388 13.1757C86.1388 11.4496 87.2203 10.219 88.9232 10.219C90.5347 10.219 91.6162 11.3808 91.6162 13.0844C91.6174 14.8319 90.5003 16.0518 88.8319 16.0518ZM88.8781 11.1271C87.9804 11.1271 87.4053 11.9665 87.4053 13.1402C87.4053 14.2913 87.9935 15.1306 88.8651 15.1306C89.7402 15.1306 90.326 14.2332 90.326 13.1164C90.3272 11.9783 89.7533 11.1271 88.8781 11.1271V11.1271ZM96.5161 15.9249L96.426 15.2812H96.3928C96.0133 15.7993 95.4595 16.0518 94.7575 16.0518C93.7554 16.0518 93.0439 15.35 93.0439 14.4063C93.0439 13.0263 94.2405 12.3127 96.3121 12.3127V12.2095C96.3121 11.4733 95.922 11.1046 95.1512 11.1046C94.5998 11.1046 94.1159 11.2433 93.6902 11.5195L93.4376 10.7027C93.9547 10.3803 94.5998 10.219 95.3575 10.219C96.8185 10.219 97.5561 10.9896 97.5561 12.532V14.5912C97.5561 15.1555 97.581 15.593 97.6367 15.9261L96.5161 15.9249V15.9249ZM96.3453 13.1402C94.965 13.1402 94.2725 13.4745 94.2725 14.2676C94.2725 14.8544 94.6294 15.1413 95.1251 15.1413C95.7571 15.1413 96.3453 14.6588 96.3453 14.0032V13.1402V13.1402ZM103.591 15.9249L103.533 15.0275H103.498C103.141 15.7056 102.541 16.0518 101.703 16.0518C100.355 16.0518 99.3562 14.8663 99.3562 13.1982C99.3562 11.4496 100.391 10.2178 101.805 10.2178C102.553 10.2178 103.083 10.4704 103.382 10.9778H103.407V7.76855H104.651V14.4181C104.651 14.9587 104.664 15.465 104.697 15.9249H103.591ZM103.407 12.6351C103.407 11.8527 102.889 11.1852 102.098 11.1852C101.176 11.1852 100.613 12.0021 100.613 13.152C100.613 14.2794 101.198 15.0512 102.073 15.0512C102.854 15.0512 103.407 14.3719 103.407 13.5669V12.6351ZM112.538 16.0518C110.905 16.0518 109.846 14.8319 109.846 13.1757C109.846 11.4496 110.928 10.219 112.63 10.219C114.242 10.219 115.323 11.3808 115.323 13.0844C115.325 14.8319 114.209 16.0518 112.538 16.0518ZM112.584 11.1271C111.688 11.1271 111.113 11.9665 111.113 13.1402C111.113 14.2913 111.7 15.1306 112.572 15.1306C113.447 15.1306 114.033 14.2332 114.033 13.1164C114.036 11.9783 113.46 11.1271 112.584 11.1271ZM122.007 15.9249H120.763V12.7145C120.763 11.7258 120.383 11.2303 119.635 11.2303C118.899 11.2303 118.394 11.8633 118.394 12.5996V15.9249H117.15V11.9321C117.15 11.4377 117.138 10.9078 117.103 10.3328H118.197L118.255 11.1959H118.289C118.622 10.5984 119.302 10.2178 120.061 10.2178C121.235 10.2178 122.007 11.1153 122.007 12.5758V15.9249ZM130.368 11.2658H129.001V13.9807C129.001 14.6718 129.24 15.0168 129.724 15.0168C129.944 15.0168 130.127 14.9931 130.276 14.9587L130.31 15.9024C130.069 15.9949 129.747 16.0411 129.346 16.0411C128.366 16.0411 127.781 15.5005 127.781 14.085V11.2658H126.965V10.334H127.781V9.30973L129.001 8.94103V10.3328H130.368V11.2658V11.2658ZM136.947 15.9249H135.706V12.7383C135.706 11.7377 135.327 11.2315 134.578 11.2315C133.934 11.2315 133.334 11.6689 133.334 12.5545V15.9249H132.092V7.76855H133.334V11.1271H133.359C133.75 10.5178 134.317 10.2178 135.04 10.2178C136.224 10.2178 136.947 11.1378 136.947 12.5996V15.9249V15.9249ZM143.687 13.4282H139.958C139.982 14.4869 140.683 15.0844 141.72 15.0844C142.272 15.0844 142.779 14.9919 143.227 14.82L143.421 15.6831C142.892 15.9131 142.269 16.0281 141.545 16.0281C139.795 16.0281 138.76 14.9232 138.76 13.2101C138.76 11.4958 139.82 10.2072 141.405 10.2072C142.834 10.2072 143.73 11.2658 143.73 12.8651C143.738 13.0538 143.724 13.2429 143.687 13.4282V13.4282ZM142.548 12.5426C142.548 11.6796 142.113 11.0702 141.318 11.0702C140.604 11.0702 140.04 11.6914 139.959 12.5426H142.548V12.5426Z" fill="white"/>
</svg>
