<svg width="16" height="18" viewBox="0 0 16 18" fill="none" xmlns="http://www.w3.org/2000/svg">
<g clip-path="url(#clip0_338_2)">
<path d="M6.23329 17.0528H3.61422C3.00277 17.0528 2.69705 17.0528 2.44802 16.9783C1.8749 16.8069 1.42654 16.3585 1.25514 15.7854C1.18066 15.5364 1.18066 15.2307 1.18066 14.6192V3.38106C1.18066 2.76962 1.18066 2.4639 1.25514 2.21487C1.42654 1.64175 1.8749 1.19339 2.44802 1.02198C2.69705 0.94751 3.00277 0.94751 3.61422 0.94751H12.405C13.0165 0.94751 13.3222 0.94751 13.5712 1.02198C14.1443 1.19339 14.5927 1.64175 14.7641 2.21487C14.8386 2.4639 14.8386 2.76962 14.8386 3.38106V11.6844" stroke="#1A1A1A" stroke-width="1.30263" stroke-linecap="round"/>
<path fill-rule="evenodd" clip-rule="evenodd" d="M13.9422 15.2206V13.8518C13.9414 13.2302 13.7261 12.6272 13.3315 12.1414C12.9368 11.6557 12.3862 11.3159 11.7696 11.1776C11.7432 11.033 11.6663 10.9019 11.5521 10.8071C11.4379 10.7122 11.2937 10.6595 11.1442 10.658C10.9955 10.6597 10.8522 10.7127 10.7391 10.8076C10.626 10.9026 10.5503 11.0335 10.5253 11.1776C9.90858 11.3156 9.35772 11.6553 8.96303 12.1411C8.56833 12.6269 8.35312 13.2301 8.35268 13.8518V15.227C8.06867 15.4439 7.87403 15.7545 7.80471 16.1015C7.78407 16.1995 7.77329 16.2992 7.77246 16.3993C7.77297 16.5672 7.84107 16.7281 7.96186 16.8468C8.08265 16.9656 8.24634 17.0325 8.41715 17.033H10.4995V17.09C10.4995 17.2581 10.5675 17.4193 10.6884 17.5381C10.8093 17.657 10.9733 17.7237 11.1442 17.7237C11.3152 17.7237 11.4792 17.657 11.6001 17.5381C11.721 17.4193 11.7889 17.2581 11.7889 17.09V17.033H13.8778C14.0486 17.0325 14.2123 16.9656 14.3331 16.8468C14.4539 16.7281 14.5219 16.5672 14.5225 16.3993C14.5223 16.1726 14.47 15.9488 14.3695 15.7447C14.2691 15.5406 14.123 15.3615 13.9422 15.2206ZM9.70667 15.7592V13.6868C9.71326 13.3053 9.99088 12.5144 11.0488 12.4039C12.1067 12.2934 12.529 13.2131 12.608 13.6868V15.7592H9.70667Z" fill="#5BBC21"/>
<path d="M12.3125 2.96069H6.98355C6.61294 2.96069 6.3125 3.26113 6.3125 3.63175C6.3125 4.00236 6.61294 4.3028 6.98355 4.3028H12.3125C12.6831 4.3028 12.9836 4.00236 12.9836 3.63175C12.9836 3.26113 12.6831 2.96069 12.3125 2.96069Z" fill="#5BBC21"/>
<path d="M3.90455 4.50003C4.38417 4.50003 4.77297 4.11122 4.77297 3.6316C4.77297 3.15199 4.38417 2.76318 3.90455 2.76318C3.42494 2.76318 3.03613 3.15199 3.03613 3.6316C3.03613 4.11122 3.42494 4.50003 3.90455 4.50003Z" fill="#5BBC21"/>
<path d="M12.3125 5.72363H6.98355C6.61294 5.72363 6.3125 6.02407 6.3125 6.39469C6.3125 6.7653 6.61294 7.06574 6.98355 7.06574H12.3125C12.6831 7.06574 12.9836 6.7653 12.9836 6.39469C12.9836 6.02407 12.6831 5.72363 12.3125 5.72363Z" fill="#1A1A1A"/>
<path d="M3.90455 7.26321C4.38417 7.26321 4.77297 6.8744 4.77297 6.39479C4.77297 5.91517 4.38417 5.52637 3.90455 5.52637C3.42494 5.52637 3.03613 5.91517 3.03613 6.39479C3.03613 6.8744 3.42494 7.26321 3.90455 7.26321Z" fill="#1A1A1A"/>
<path d="M12.3125 8.48682H6.98355C6.61294 8.48682 6.3125 8.78726 6.3125 9.15787C6.3125 9.52848 6.61294 9.82892 6.98355 9.82892H12.3125C12.6831 9.82892 12.9836 9.52848 12.9836 9.15787C12.9836 8.78726 12.6831 8.48682 12.3125 8.48682Z" fill="#1A1A1A"/>
<path d="M3.90455 10.0264C4.38417 10.0264 4.77297 9.63759 4.77297 9.15797C4.77297 8.67836 4.38417 8.28955 3.90455 8.28955C3.42494 8.28955 3.03613 8.67836 3.03613 9.15797C3.03613 9.63759 3.42494 10.0264 3.90455 10.0264Z" fill="#1A1A1A"/>
</g>
<defs>
<clipPath id="clip0_338_2">
<rect width="15" height="17.4474" fill="white" transform="translate(0.5 0.276367)"/>
</clipPath>
</defs>
</svg>
