<svg width="17" height="11" viewBox="0 0 17 11" fill="none" xmlns="http://www.w3.org/2000/svg">
<g clip-path="url(#clip0_27_18)">
<path fill-rule="evenodd" clip-rule="evenodd" d="M10.8775 6.24701C11.0243 5.91427 11.1064 5.54393 11.1064 5.37729C11.1064 3.93286 9.98414 2.76172 8.60001 2.76172C7.21595 2.76172 6.09375 3.93286 6.09375 5.37729C6.09375 6.82166 7.34691 7.76929 8.60001 7.76929C9.40161 7.76929 10.1151 7.37723 10.5728 6.76677C10.6927 6.60713 10.7955 6.4328 10.8775 6.24701ZM8.60001 6.46153C8.91331 6.46153 9.19971 6.34147 9.41995 6.14289C9.68555 5.90344 9.80248 5.54904 9.80248 5.37729C9.80248 4.65507 9.29269 4.06947 8.60001 4.06947C7.9074 4.06947 7.34094 4.65409 7.34094 5.3763C7.34094 5.87501 7.9074 6.46153 8.60001 6.46153Z" fill="white"/>
<path fill-rule="evenodd" clip-rule="evenodd" d="M0.628955 5.54293C0.638746 5.55567 0.619164 5.53081 0.628955 5.54293C0.552352 5.43813 0.55428 5.31352 0.6293 5.20749C0.634795 5.19973 0.640395 5.19167 0.646069 5.18342C2.89904 1.89419 5.69291 0.144531 8.581 0.144531C11.4661 0.144531 14.2575 1.88948 16.508 5.1721C16.5507 5.23438 16.5723 5.29838 16.5723 5.37499C16.5723 5.45536 16.5472 5.52293 16.5023 5.58829C14.2524 8.86465 11.4635 10.6061 8.581 10.6061C5.68557 10.6061 2.88437 8.8481 0.628955 5.54293ZM2.38094 4.97684C2.19571 5.20712 2.19571 5.54281 2.38093 5.77315C4.31022 8.17179 6.48254 9.29832 8.581 9.29832C10.6795 9.29832 12.8518 8.17179 14.7811 5.77315C14.9664 5.54281 14.9664 5.20712 14.7811 4.97684C12.8518 2.57822 10.6795 1.4523 8.581 1.4523C6.48254 1.4523 4.31022 2.57822 2.38094 4.97684Z" fill="white"/>
</g>
<defs>
<clipPath id="clip0_27_18">
<rect width="17" height="11" fill="white"/>
</clipPath>
</defs>
</svg>
