<svg width="16" height="16" viewBox="0 0 16 16" fill="none" xmlns="http://www.w3.org/2000/svg">
<path d="M13.1429 8.85714H8.8572V13.1429C8.8572 13.3702 8.7669 13.5882 8.60615 13.7489C8.44541 13.9097 8.22739 14 8.00006 14C7.77273 14 7.55472 13.9097 7.39397 13.7489C7.23322 13.5882 7.14292 13.3702 7.14292 13.1429V8.85714H2.8572C2.62988 8.85714 2.41186 8.76684 2.25111 8.60609C2.09037 8.44535 2.00006 8.22733 2.00006 8C2.00006 7.77267 2.09037 7.55465 2.25111 7.39391C2.41186 7.23316 2.62988 7.14286 2.8572 7.14286H7.14292V2.85714C7.14292 2.62981 7.23322 2.4118 7.39397 2.25105C7.55472 2.09031 7.77273 2 8.00006 2C8.22739 2 8.44541 2.09031 8.60615 2.25105C8.7669 2.4118 8.8572 2.62981 8.8572 2.85714V7.14286H13.1429C13.3702 7.14286 13.5883 7.23316 13.749 7.39391C13.9098 7.55465 14.0001 7.77267 14.0001 8C14.0001 8.22733 13.9098 8.44535 13.749 8.60609C13.5883 8.76684 13.3702 8.85714 13.1429 8.85714Z" fill="#1A1A1A"/>
</svg>
