<svg width="22" height="22" fill="none" xmlns="http://www.w3.org/2000/svg"><path d="M19.25 11.202c0-5.033-3.905-8.452-8.25-8.452-4.299 0-8.25 3.346-8.25 8.507-.55.311-.917.898-.917 1.576v1.834c0 1.008.826 1.833 1.834 1.833h.917v-5.592A6.412 6.412 0 0 1 11 4.492a6.412 6.412 0 0 1 6.417 6.416v6.509h-7.334v1.833h7.334a1.839 1.839 0 0 0 1.833-1.833v-1.119c.541-.284.917-.843.917-1.503v-2.108c0-.642-.376-1.201-.917-1.485Z" fill="#000"/><path d="M8.25 12.833a.917.917 0 1 0 0-1.833.917.917 0 0 0 0 1.833ZM13.75 12.833a.917.917 0 1 0 0-1.833.917.917 0 0 0 0 1.833Z" fill="#000"/><path d="M16.5 10.11a5.536 5.536 0 0 0-5.454-4.61c-2.778 0-5.766 2.3-5.528 5.912a7.402 7.402 0 0 0 4.455-5.399 7.367 7.367 0 0 0 6.527 4.098Z" fill="#000"/></svg>