<svg width="17" height="17" fill="none" xmlns="http://www.w3.org/2000/svg"><g clip-path="url(#a)"><path fill="#fff" d="M.5.5h16v16H.5z"/><path d="M15.773.5H1.227a.727.727 0 0 0-.727.727v14.546a.727.727 0 0 0 .727.727h14.546a.727.727 0 0 0 .727-.727V1.227A.728.728 0 0 0 15.773.5ZM1.955 1.955h5.818v5.818H1.955V1.955Zm0 13.09V9.228h5.818v5.819H1.955Zm13.09 0H9.228V1.956h5.819v13.09Z" fill="#fff"/><path d="M1.955 1.955h5.818v5.818H1.955V1.955ZM15.046 15.046H9.227V1.955h5.819v13.09ZM1.955 15.046V9.227h5.818v5.819H1.955Z" fill="#3E464A"/></g><defs><clipPath id="a"><path fill="#fff" transform="translate(.5 .5)" d="M0 0h16v16H0z"/></clipPath></defs></svg>