<svg width="30" height="30" viewBox="0 0 30 30" fill="none" xmlns="http://www.w3.org/2000/svg">
<circle cx="15" cy="15" r="15" fill="#EEEDED"/>
<g clip-path="url(#clip0_602_1031)">
<path d="M14.9093 15.5056C13.9935 15.5056 13.1215 15.0632 12.4537 14.2602C11.8407 13.523 11.4889 12.5741 11.4889 11.6571C11.4889 10.7353 11.8493 9.85121 12.4907 9.1994C13.1322 8.54758 14.0022 8.1814 14.9093 8.1814C15.8165 8.1814 16.6864 8.54758 17.3279 9.1994C17.9693 9.85121 18.3297 10.7353 18.3297 11.6571C18.3297 12.5741 17.978 13.523 17.3649 14.2602C16.6971 15.0632 15.8251 15.5056 14.9093 15.5056ZM14.9093 9.51307C14.3499 9.51371 13.8136 9.7398 13.4181 10.1417C13.0225 10.5437 12.8 11.0886 12.7994 11.6571C12.7994 12.2555 13.0442 12.9072 13.4547 13.4005C13.8693 13.8993 14.3859 14.1729 14.9093 14.1729C15.4327 14.1729 15.9493 13.8983 16.364 13.4005C16.7744 12.9072 17.0192 12.2553 17.0192 11.6571C17.0186 11.0886 16.7961 10.5437 16.4005 10.1417C16.005 9.7398 15.4687 9.51371 14.9093 9.51307Z" fill="#1A1A1A"/>
<path d="M20.5969 21.8178C20.4231 21.8178 20.2564 21.7476 20.1335 21.6227C20.0106 21.4979 19.9416 21.3285 19.9416 21.1519V19.625C19.9416 18.3162 19.1406 17.5031 17.8514 17.5031H12.1507C10.8615 17.5031 10.0605 18.3162 10.0605 19.625V21.1519C10.0605 21.3285 9.99146 21.4979 9.86858 21.6227C9.74569 21.7476 9.57903 21.8178 9.40525 21.8178C9.23146 21.8178 9.0648 21.7476 8.94192 21.6227C8.81903 21.4979 8.75 21.3285 8.75 21.1519V19.625C8.75 18.6201 9.07657 17.7575 9.69355 17.1303C10.3105 16.503 11.1613 16.1715 12.1497 16.1715H17.8503C18.8395 16.1715 19.6887 16.503 20.3064 17.1303C20.9242 17.7575 21.25 18.6201 21.25 19.625V21.1519C21.25 21.3281 21.1813 21.4972 21.0588 21.622C20.9364 21.7468 20.7703 21.8172 20.5969 21.8178Z" fill="#1A1A1A"/>
</g>
<defs>
<clipPath id="clip0_602_1031">
<rect width="13.6364" height="13.6364" fill="white" transform="translate(8.18359 8.18164)"/>
</clipPath>
</defs>
</svg>
