<svg width="30" height="30" viewBox="0 0 30 30" fill="none" xmlns="http://www.w3.org/2000/svg">
<path d="M15.002 2.49969C21.9057 2.49969 27.502 8.09595 27.502 14.9997C27.502 21.9034 21.9057 27.4997 15.002 27.4997C12.7929 27.5033 10.6228 26.9187 8.71447 25.8059L2.50697 27.4997L4.19697 21.2897C3.08334 19.3808 2.49828 17.2097 2.50197 14.9997C2.50197 8.09595 8.09822 2.49969 15.002 2.49969ZM10.742 9.12469L10.492 9.1347C10.3301 9.14455 10.1719 9.18707 10.027 9.2597C9.89137 9.33648 9.76759 9.43248 9.65947 9.54469C9.50947 9.68595 9.42447 9.80844 9.33322 9.92719C8.87087 10.5283 8.62194 11.2663 8.62572 12.0247C8.62822 12.6372 8.78822 13.2334 9.03822 13.7909C9.54947 14.9184 10.3907 16.1122 11.5007 17.2184C11.7682 17.4847 12.0307 17.7522 12.3132 18.0009C13.6925 19.2153 15.336 20.091 17.1132 20.5584L17.8232 20.6672C18.0545 20.6797 18.2857 20.6622 18.5182 20.6509C18.8823 20.6322 19.2377 20.5336 19.5595 20.3622C19.7232 20.2779 19.8829 20.1861 20.0382 20.0872C20.0382 20.0872 20.092 20.0522 20.1945 19.9747C20.3632 19.8497 20.467 19.7609 20.607 19.6147C20.7107 19.5072 20.8007 19.3809 20.8695 19.2372C20.967 19.0334 21.0645 18.6447 21.1045 18.3209C21.1345 18.0734 21.1257 17.9384 21.122 17.8547C21.117 17.7209 21.0057 17.5822 20.8845 17.5234L20.157 17.1972C20.157 17.1972 19.0695 16.7234 18.4045 16.4209C18.3349 16.3906 18.2603 16.3732 18.1845 16.3697C18.0989 16.3609 18.0125 16.3705 17.931 16.3979C17.8495 16.4253 17.7748 16.4698 17.712 16.5284C17.7057 16.5259 17.622 16.5972 16.7182 17.6922C16.6663 17.7619 16.5949 17.8146 16.513 17.8435C16.4311 17.8725 16.3424 17.8763 16.2582 17.8547C16.1768 17.8329 16.097 17.8053 16.0195 17.7722C15.8645 17.7072 15.8107 17.6822 15.7045 17.6372C14.9871 17.3241 14.3228 16.9011 13.7357 16.3834C13.5782 16.2459 13.432 16.0959 13.282 15.9509C12.7902 15.48 12.3616 14.9472 12.007 14.3659L11.9332 14.2472C11.8802 14.1674 11.8374 14.0813 11.8057 13.9909C11.7582 13.8072 11.882 13.6597 11.882 13.6597C11.882 13.6597 12.1857 13.3272 12.327 13.1472C12.4645 12.9722 12.5807 12.8022 12.6557 12.6809C12.8032 12.4434 12.8495 12.1997 12.772 12.0109C12.422 11.1559 12.0595 10.3047 11.687 9.45969C11.6132 9.29219 11.3945 9.17219 11.1957 9.14844C11.1282 9.14094 11.0607 9.13344 10.9932 9.12844C10.8254 9.1201 10.6571 9.12177 10.4895 9.13344L10.742 9.12469Z" fill="white"/>
</svg>
