<svg width="16" height="20" viewBox="0 0 16 20" fill="none" xmlns="http://www.w3.org/2000/svg">
<path d="M13.986 9.74386L8.37193 15.3579C8.15439 15.5789 7.86667 15.6877 7.57895 15.6877C7.29123 15.6877 7.00421 15.5781 6.78527 15.3588L1.17123 9.74474C0.732636 9.30614 0.732636 8.59561 1.17123 8.15702C1.60983 7.71842 2.32036 7.71842 2.75895 8.15702L6.45614 11.8561V1.09123C6.45614 0.470526 6.95895 0 7.54737 0C8.13579 0 8.70176 0.470526 8.70176 1.09123V11.8561L12.4 8.15789C12.8386 7.7193 13.5491 7.7193 13.9877 8.15789C14.4263 8.59649 14.4246 9.30526 13.986 9.74386Z" fill="#1A1A1A"/>
<rect y="17.3721" width="16" height="2.52632" rx="1.26316" fill="#1A1A1A"/>
</svg>
