<svg width="11" height="14" viewBox="0 0 11 14" fill="none" xmlns="http://www.w3.org/2000/svg">
<path d="M9.61514 6.6989L5.75549 10.5586C5.60593 10.7105 5.40812 10.7853 5.21032 10.7853C5.01251 10.7853 4.81518 10.7099 4.66466 10.5592L0.805009 6.69951C0.503474 6.39797 0.503474 5.90948 0.805009 5.60795C1.10654 5.30641 1.59503 5.30641 1.89657 5.60795L4.43839 8.1511V0.750219C4.43839 0.323487 4.78407 0 5.18861 0C5.59314 0 5.98225 0.323487 5.98225 0.750219V8.1511L8.52479 5.60855C8.82632 5.30702 9.31481 5.30702 9.61635 5.60855C9.91788 5.91009 9.91668 6.39737 9.61514 6.6989Z" fill="#4F5B79"/>
<rect y="11.9432" width="11" height="1.73684" rx="0.868421" fill="#4F5B79"/>
</svg>
