<svg width="26" height="25" viewBox="0 0 26 25" fill="none" xmlns="http://www.w3.org/2000/svg">
<path d="M25.2182 9.67673L25.2187 9.67845C25.2574 9.79757 25.2603 9.92553 25.2271 10.0463C25.1938 10.1671 25.1261 10.2751 25.0326 10.357L25.0315 10.3579L19.3592 15.3483L19.0248 15.6425L19.1231 16.0769L20.7957 23.4697L20.7958 23.4701C20.8235 23.5924 20.8148 23.7201 20.7708 23.8374C20.7268 23.9546 20.6496 24.0558 20.5491 24.1288L20.5487 24.1291C20.3432 24.2785 20.0728 24.2895 19.8585 24.1601L19.8567 24.159L13.3859 20.2772L13.0002 20.0458L12.6144 20.2771L6.14124 24.1589L6.14102 24.1591C6.03825 24.2208 5.92782 24.25 5.81855 24.25C5.69099 24.25 5.56252 24.2104 5.44951 24.1285C5.24484 23.98 5.14655 23.7229 5.20341 23.4694C5.20345 23.4693 5.20349 23.4691 5.20353 23.4689L6.87603 16.0769L6.97431 15.6425L6.63997 15.3483L0.967566 10.357L0.966146 10.3557C0.77615 10.1894 0.702074 9.92346 0.781513 9.67832L0.781763 9.67754C0.820141 9.55867 0.892325 9.45409 0.988977 9.37656C1.08553 9.2991 1.20232 9.25197 1.32484 9.24066C1.32492 9.24065 1.32501 9.24064 1.32509 9.24064L8.82999 8.557L9.27635 8.51634L9.45198 8.10397L12.419 1.13719C12.4191 1.13703 12.4192 1.13687 12.4192 1.13672C12.5211 0.898966 12.7494 0.75 13.0001 0.75C13.251 0.75 13.4794 0.899142 13.5812 1.1359C13.5813 1.13614 13.5814 1.13638 13.5815 1.13662L16.5482 8.10387L16.7238 8.51628L17.1702 8.55695L24.6745 9.24069L24.6755 9.24078C24.798 9.25178 24.9148 9.29871 25.0113 9.37608C25.1079 9.45347 25.18 9.55796 25.2182 9.67673Z" stroke="#1A1A1A" stroke-width="1.5"/>
</svg>
