<svg width="18" height="18" viewBox="0 0 18 18" fill="none" xmlns="http://www.w3.org/2000/svg">
<path d="M3.58349 16.127C3.54307 16.3053 3.61221 16.4879 3.76006 16.5944C3.84161 16.6531 3.93501 16.6818 4.02822 16.6818C4.1081 16.6818 4.18861 16.6605 4.2629 16.6162L8.7443 13.9483L9.0001 13.7961L9.2559 13.9484L13.7357 16.6162L13.7369 16.617C13.8927 16.7104 14.0901 16.7021 14.239 16.5946C14.3116 16.5422 14.3668 16.47 14.3982 16.3871C14.4296 16.3042 14.4356 16.2137 14.4159 16.1274L13.258 11.0466L13.1916 10.7553L13.4166 10.5589L17.3443 7.1285C17.4117 7.06989 17.46 6.99308 17.4837 6.90776C17.5073 6.82246 17.5052 6.73216 17.4778 6.64799L17.4774 6.64684C17.4502 6.56287 17.3987 6.48843 17.329 6.43298C17.2592 6.3775 17.1737 6.34348 17.0844 6.33551L11.8891 5.8656L11.5922 5.83874L11.4747 5.56473L9.4205 0.77568M3.58349 16.127C3.5835 16.127 3.58348 16.127 3.58349 16.127ZM3.58349 16.127L4.7414 11.0466L4.80776 10.7554L4.58284 10.5589L0.65579 7.12847L0.65484 7.12764C0.51807 7.00877 0.46608 6.82049 0.52242 6.6479C0.54975 6.56387 0.6015 6.48886 0.67125 6.43331C0.74101 6.37776 0.82582 6.34365 0.91521 6.33548M0.91521 6.33548C0.91523 6.33548 0.91519 6.33548 0.91521 6.33548ZM0.91521 6.33548L6.111 5.86563L6.40792 5.83878L6.52547 5.56479L8.5796 0.7767M8.5796 0.7767C8.5797 0.77653 8.5795 0.77687 8.5796 0.7767ZM8.5796 0.7767C8.6522 0.6086 8.8167 0.5 9.0001 0.5C9.1836 0.5 9.3479 0.60823 9.4205 0.77568M9.4205 0.77568C9.4206 0.77589 9.4204 0.77547 9.4205 0.77568Z" stroke="#595959"/>
</svg>
