<svg width="31" height="31" viewBox="0 0 31 31" fill="none" xmlns="http://www.w3.org/2000/svg">
<g clip-path="url(#clip0_1101_7)">
<path d="M0.13702 6.03712C0.13702 2.80107 2.76036 0.177734 5.99641 0.177734H30.137V24.3185C30.137 27.5545 27.5137 30.1779 24.2776 30.1779H0.13702V6.03712Z" fill="#5BBC21"/>
<path d="M30.1663 0.148438C24.7874 15.6759 7.90559 26.6378 0.137032 30.1779V5.91995C0.512032 1.39649 4.09211 0.207032 5.83527 0.177735L30.1663 0.148438Z" fill="#5BBC21"/>
<path d="M12.0609 10.1387C12.0609 7.33949 14.3301 5.07031 17.1292 5.07031V5.07031V30.1778H12.0609V10.1387Z" fill="white"/>
<path d="M20.5862 7.50391C20.5862 4.70473 22.8554 2.43555 25.6546 2.43555V2.43555V29.2423C25.6546 29.7601 25.2349 30.1798 24.7171 30.1798H20.5862V7.50391Z" fill="white"/>
<path d="M3.53547 12.9512C3.53547 10.152 5.80465 7.88281 8.60382 7.88281V7.88281V30.1778H3.53547V12.9512Z" fill="white"/>
</g>
<path d="M30.137 0.177734C24.5413 15.6173 6.91925 26.9845 0.13702 30.1779H24.3509C27.764 30.1046 29.1435 27.6838 29.5071 26.9845C30.0784 25.8859 30.137 24.9484 30.137 24.3185V0.177734Z" fill="#1A1A1A"/>
<defs>
<clipPath id="clip0_1101_7">
<path d="M0.13702 6.03712C0.13702 2.80107 2.76036 0.177734 5.99641 0.177734H30.137V24.3185C30.137 27.5545 27.5137 30.1779 24.2776 30.1779H0.13702V6.03712Z" fill="white"/>
</clipPath>
</defs>
</svg>
