<svg width="160" height="47" viewBox="0 0 160 47" fill="none" xmlns="http://www.w3.org/2000/svg">
<path d="M153.694 0H6.30571C2.78995 0 0 2.53853 0 5.57905V41.3408C0 44.3813 2.78995 46.9198 6.30571 46.9198H153.694C157.21 46.9198 160 44.3813 160 41.3408V5.57905C160 2.53853 157.21 0 153.694 0ZM153.694 1.10884C156.396 1.10884 158.607 3.12043 158.607 5.57905V41.3408C158.607 43.7994 156.396 45.811 153.694 45.811H6.30571C3.60358 45.811 1.39275 43.7994 1.39275 41.3408V5.57905C1.39275 3.12043 3.60358 1.10884 6.30571 1.10884H153.694Z" fill="#A6A6A6"/>
<path d="M154.052 46.0103H5.99764C3.28331 46.0103 1.0625 43.9821 1.0625 41.5031V5.44478C1.0625 2.96578 3.28331 0.9375 5.99764 0.9375H154.052C156.766 0.9375 158.987 2.96578 158.987 5.44478V41.5031C158.987 43.9821 156.766 46.0103 154.052 46.0103Z" fill="black"/>
<path d="M21.4769 33.8986L11.4055 32.4438V23.9391H21.4769V33.8986ZM21.4769 23.1557H11.4055V15.0986L21.4769 13.6438V23.1557ZM35.2412 35.801L22.2603 33.8986V23.9391H35.2412V35.801ZM35.2412 23.1557H22.2603V13.6438L35.2412 11.7415V23.1557Z" fill="white"/>
<path d="M52.5868 18.1197C52.1392 18.3435 51.132 18.5674 50.013 18.5674C48.782 18.5674 47.663 18.2316 46.8796 17.4483C46.2082 16.7769 45.7606 15.6578 45.7606 14.315C45.7606 11.8531 47.4392 9.95068 50.2368 9.95068C51.2439 9.95068 51.9153 10.1745 52.363 10.2864L52.1392 11.1816C51.6915 10.9578 51.132 10.8459 50.3487 10.8459C48.3344 10.8459 46.9915 12.0769 46.9915 14.2031C46.9915 16.3293 48.2225 17.5602 50.2368 17.5602C50.9082 17.5602 51.4677 17.4483 51.6915 17.3364V14.8745H50.013V13.9793H52.6987V18.1197H52.5868ZM54.8249 15.6578C54.8249 17.1126 55.832 17.784 56.8392 17.784C57.6225 17.784 58.0701 17.6721 58.5177 17.4483L58.7415 18.2316C58.4058 18.4554 57.7344 18.5674 56.7273 18.5674C54.9368 18.5674 53.8177 17.3364 53.8177 15.5459C53.8177 13.7554 54.8249 12.3007 56.6154 12.3007C58.5177 12.3007 59.0773 13.9793 59.0773 15.0983C59.0773 15.3221 59.0773 15.5459 59.0773 15.6578H54.8249ZM58.0701 14.8745C58.0701 14.2031 57.7344 13.084 56.6154 13.084C55.4963 13.084 55.0487 14.0912 54.9368 14.8745H58.0701ZM61.763 10.734V12.4126H63.3296V13.1959H61.763V16.4412C61.763 17.2245 61.9868 17.5602 62.5463 17.5602C62.882 17.5602 62.9939 17.5602 63.2177 17.4483V18.2316C62.9939 18.3435 62.6582 18.3435 62.2106 18.3435C61.6511 18.3435 61.3154 18.2316 61.0915 17.8959C60.7558 17.5602 60.6439 17.0007 60.6439 16.3293V13.084H59.7487V12.3007H60.6439V10.8459L61.763 10.734ZM68.3654 10.734C68.3654 11.0697 68.1415 11.4054 67.6939 11.4054C67.3582 11.4054 67.0225 11.0697 67.0225 10.734C67.0225 10.3983 67.3582 10.0626 67.6939 10.0626C68.0296 10.0626 68.3654 10.3983 68.3654 10.734ZM67.1344 18.4554V12.4126H68.2534V18.4554H67.1344ZM71.2749 10.734V12.4126H72.8415V13.1959H71.2749V16.4412C71.2749 17.2245 71.4987 17.5602 72.0582 17.5602C72.3939 17.5602 72.5058 17.5602 72.7296 17.4483V18.2316C72.5058 18.3435 72.1701 18.3435 71.7225 18.3435C71.163 18.3435 70.8273 18.2316 70.6034 17.8959C70.2677 17.5602 70.1558 17.0007 70.1558 16.3293V13.084H69.2606V12.3007H70.1558V10.8459L71.2749 10.734ZM82.0177 15.434C82.0177 17.6721 80.4511 18.6793 78.9963 18.6793C77.4296 18.6793 76.0868 17.4483 76.0868 15.5459C76.0868 13.5316 77.4296 12.3007 78.9963 12.3007C80.8987 12.3007 82.0177 13.5316 82.0177 15.434ZM77.3177 15.434C77.3177 16.7769 78.1011 17.784 79.1082 17.784C80.1154 17.784 80.8987 16.7769 80.8987 15.434C80.8987 14.4269 80.3392 13.084 79.1082 13.084C77.8773 13.084 77.3177 14.315 77.3177 15.434ZM83.3606 14.0912C83.3606 13.4197 83.3606 12.9721 83.3606 12.4126H84.3677L84.4796 13.4197C84.8154 12.8602 85.4868 12.3007 86.4939 12.3007C87.2773 12.3007 88.6201 12.7483 88.6201 14.8745V18.4554H87.5011V14.9864C87.5011 13.9793 87.1654 13.1959 86.1582 13.1959C85.4868 13.1959 84.9273 13.7554 84.7034 14.315C84.7034 14.4269 84.5915 14.6507 84.5915 14.8745V18.4554H83.4725V14.0912H83.3606ZM48.6701 36.584L45.6487 24.3864H47.3273L48.782 30.5412C49.1177 32.1078 49.4534 33.5626 49.6773 34.7935C49.9011 33.5626 50.2368 32.1078 50.6844 30.5412L52.2511 24.3864H53.9296L55.3844 30.5412C55.7201 31.9959 56.0558 33.4507 56.2796 34.6816C56.5034 33.3388 56.8392 31.9959 57.2868 30.4293L58.8534 24.2745H60.4201L56.9511 36.4721H55.2725L53.7058 30.0935C53.3701 28.5269 53.0344 27.2959 52.9225 26.065C52.6987 27.2959 52.4749 28.415 52.0273 30.0935L50.3487 36.4721H48.6701V36.584ZM63.2177 25.2816C63.2177 25.8412 62.882 26.2888 62.2106 26.2888C61.6511 26.2888 61.2034 25.8412 61.2034 25.2816C61.2034 24.7221 61.6511 24.2745 62.2106 24.2745C62.882 24.3864 63.2177 24.7221 63.2177 25.2816ZM61.4273 36.584V27.8554H62.9939V36.584H61.4273ZM65.0082 30.2054C65.0082 29.3102 65.0082 28.5269 64.8963 27.8554H66.3511L66.463 29.3102C66.9106 28.5269 67.9177 27.6316 69.3725 27.6316C70.6034 27.6316 72.3939 28.3031 72.3939 31.3245V36.584H70.8273V31.5483C70.8273 30.0935 70.2677 28.9745 68.813 28.9745C67.8058 28.9745 66.9106 29.7578 66.6868 30.6531C66.5749 30.8769 66.5749 31.1007 66.5749 31.4364V36.6959H65.0082V30.2054ZM82.3534 23.715V34.3459C82.3534 35.1293 82.3534 36.0245 82.4654 36.584H81.0106L80.8987 35.0174C80.4511 36.0245 79.332 36.6959 77.9892 36.6959C75.863 36.6959 74.2963 34.9054 74.2963 32.2197C74.2963 29.3102 76.0868 27.5197 78.213 27.5197C79.5558 27.5197 80.4511 28.1912 80.7868 28.8626V23.6031H82.3534V23.715ZM80.7868 31.3245C80.7868 31.1007 80.7868 30.8769 80.6749 30.6531C80.4511 29.6459 79.5558 28.8626 78.4368 28.8626C76.7582 28.8626 75.863 30.3174 75.863 32.2197C75.863 34.0102 76.7582 35.465 78.4368 35.465C79.4439 35.465 80.4511 34.7935 80.7868 33.5626C80.7868 33.3388 80.8987 33.115 80.8987 32.8912V31.3245H80.7868ZM92.313 32.1078C92.313 35.3531 90.0749 36.8078 87.9487 36.8078C85.5987 36.8078 83.8082 35.0174 83.8082 32.3316C83.8082 29.4221 85.7106 27.6316 88.1725 27.6316C90.6344 27.6316 92.313 29.4221 92.313 32.1078ZM85.4868 32.2197C85.4868 34.1221 86.6058 35.5769 88.1725 35.5769C89.6273 35.5769 90.8582 34.1221 90.8582 32.2197C90.8582 30.765 90.0749 28.8626 88.2844 28.8626C86.2701 28.7507 85.4868 30.5412 85.4868 32.2197ZM94.3273 27.7435L95.4463 32.2197C95.6701 33.2269 95.8939 34.1221 96.1177 35.0174C96.3415 34.1221 96.5654 33.2269 96.9011 32.2197L98.3558 27.7435H99.6987L101.042 32.1078C101.377 33.115 101.601 34.1221 101.825 35.0174C101.937 34.1221 102.161 33.2269 102.496 32.2197L103.727 27.8554H105.294L102.496 36.584H101.042L99.6987 32.4435C99.363 31.4364 99.1392 30.6531 98.9154 29.534C98.6915 30.5412 98.4677 31.4364 98.132 32.4435L96.6773 36.584H95.3344L92.7606 27.8554H94.3273V27.7435ZM106.525 34.9054C106.973 35.2412 107.868 35.5769 108.651 35.5769C109.77 35.5769 110.33 35.0174 110.33 34.234C110.33 33.4507 109.882 33.0031 108.763 32.6674C107.196 32.1078 106.413 31.2126 106.413 30.2054C106.413 28.7507 107.532 27.6316 109.434 27.6316C110.33 27.6316 111.113 27.8554 111.561 28.1912L111.113 29.3102C110.777 29.0864 110.106 28.7507 109.322 28.7507C108.427 28.7507 107.868 29.3102 107.868 29.9816C107.868 30.6531 108.427 30.9888 109.546 31.4364C111.001 31.9959 111.784 32.7793 111.784 34.1221C111.784 35.6888 110.553 36.6959 108.539 36.6959C107.532 36.6959 106.749 36.4721 106.077 36.1364L106.525 34.9054Z" fill="white"/>
</svg>
