<svg width="18" height="18" viewBox="0 0 18 18" fill="none" xmlns="http://www.w3.org/2000/svg">
<path fill-rule="evenodd" clip-rule="evenodd" d="M10.7095 1.61302C10.432 1.49902 10.0795 1.49902 9.37524 1.49902C8.67099 1.49902 8.31924 1.49902 8.04099 1.61302C7.67158 1.76468 7.37752 2.05685 7.22349 2.42527C7.15299 2.59252 7.12599 2.78827 7.11474 3.07252C7.10974 3.27848 7.05229 3.47975 6.94782 3.65731C6.84336 3.83488 6.69533 3.98286 6.51774 4.08727C6.3368 4.18785 6.1334 4.24113 5.92638 4.24218C5.71937 4.24323 5.51544 4.19201 5.33349 4.09327C5.07999 3.95977 4.89624 3.88627 4.71474 3.86227C4.31765 3.81014 3.91604 3.91687 3.59724 4.15927C3.35874 4.34077 3.18249 4.64377 2.83074 5.24902C2.47824 5.85427 2.30274 6.15652 2.26299 6.45277C2.21049 6.84727 2.31849 7.24627 2.56299 7.56202C2.67399 7.70602 2.83074 7.82677 3.07299 7.97827C3.43074 8.20102 3.66024 8.58052 3.66024 8.99902C3.66024 9.41752 3.43074 9.79702 3.07374 10.019C2.83074 10.1713 2.67399 10.292 2.56224 10.436C2.44155 10.592 2.35296 10.7703 2.3016 10.9607C2.25024 11.1511 2.23711 11.3498 2.26299 11.5453C2.30274 11.8408 2.47824 12.1438 2.83074 12.749C3.18324 13.3543 3.35874 13.6565 3.59724 13.8388C3.91524 14.081 4.31724 14.1875 4.71474 14.1358C4.89624 14.1118 5.07999 14.0383 5.33349 13.9048C5.51553 13.8059 5.7196 13.7546 5.92676 13.7557C6.13392 13.7567 6.33745 13.8101 6.51849 13.9108C6.88299 14.1208 7.09899 14.507 7.11474 14.9255C7.12599 15.2105 7.15299 15.4055 7.22349 15.5728C7.37649 15.9403 7.67049 16.2328 8.04099 16.385C8.31849 16.499 8.67099 16.499 9.37524 16.499C10.0795 16.499 10.432 16.499 10.7095 16.385C11.0789 16.2334 11.373 15.9412 11.527 15.5728C11.5975 15.4055 11.6245 15.2105 11.6357 14.9255C11.6507 14.507 11.8675 14.12 12.2327 13.9108C12.4137 13.8102 12.6171 13.7569 12.8241 13.7559C13.0311 13.7548 13.235 13.806 13.417 13.9048C13.6705 14.0383 13.8542 14.1118 14.0357 14.1358C14.4332 14.1883 14.8352 14.081 15.1532 13.8388C15.3917 13.6573 15.568 13.3543 15.9197 12.749C16.2722 12.1438 16.4477 11.8415 16.4875 11.5453C16.5133 11.3497 16.5 11.151 16.4485 10.9606C16.397 10.7702 16.3083 10.5919 16.1875 10.436C16.0765 10.292 15.9197 10.1713 15.6775 10.0198C15.3197 9.79702 15.0902 9.41752 15.0902 8.99902C15.0902 8.58052 15.3197 8.20102 15.6767 7.97902C15.9197 7.82677 16.0765 7.70602 16.1882 7.56202C16.3089 7.40607 16.3975 7.22774 16.4489 7.03735C16.5002 6.84695 16.5134 6.64827 16.4875 6.45277C16.4477 6.15727 16.2722 5.85427 15.9197 5.24902C15.5672 4.64377 15.3917 4.34152 15.1532 4.15927C14.8344 3.91687 14.4328 3.81014 14.0357 3.86227C13.8542 3.88627 13.6705 3.95977 13.417 4.09327C13.2349 4.19215 13.0309 4.24344 12.8237 4.24239C12.6166 4.24134 12.413 4.18798 12.232 4.08727C12.0545 3.98277 11.9067 3.83474 11.8023 3.65719C11.698 3.47963 11.6407 3.2784 11.6357 3.07252C11.6245 2.78752 11.5975 2.59252 11.527 2.42527C11.4508 2.24283 11.3393 2.07719 11.199 1.93782C11.0588 1.79845 10.8924 1.68808 10.7095 1.61302ZM9.37524 11.249C10.6277 11.249 11.6425 10.2418 11.6425 8.99902C11.6425 7.75627 10.627 6.74902 9.37524 6.74902C8.12274 6.74902 7.10799 7.75627 7.10799 8.99902C7.10799 10.2418 8.12349 11.249 9.37524 11.249Z" fill="white"/>
</svg>
