<svg width="22" height="22" viewBox="0 0 22 22" fill="none" xmlns="http://www.w3.org/2000/svg">
<rect x="2" width="14" height="19" rx="0.5" fill="#1A1A1A"/>
<path d="M17 3H18.5C18.7761 3 19 3.22386 19 3.5V21.5C19 21.7761 18.7761 22 18.5 22H17V3Z" fill="#1A1A1A"/>
<path d="M4 20H18V22H4.5C4.22386 22 4 21.7761 4 21.5V20Z" fill="#1A1A1A"/>
<rect x="4" y="3" width="5.5" height="1.5" rx="0.75" fill="white"/>
<rect x="4" y="9" width="9.5" height="1.5" rx="0.75" fill="white"/>
<rect x="4" y="12" width="9.5" height="1.5" rx="0.75" fill="white"/>
<rect x="4" y="6" width="9.5" height="1.5" rx="0.75" fill="white"/>
<rect x="9" y="15" width="4.5" height="1.5" rx="0.75" fill="white"/>
</svg>
