<svg width="22" height="22" viewBox="0 0 22 22" fill="none" xmlns="http://www.w3.org/2000/svg">
<path d="M15.5 0H2.5C2.22386 0 2 0.223858 2 0.5V18.5C2 18.7761 2.22386 19 2.5 19H15.5C15.7761 19 16 18.7761 16 18.5V0.5C16 0.223858 15.7761 0 15.5 0Z" fill="white"/>
<path d="M17 3H18.5C18.7761 3 19 3.22386 19 3.5V21.5C19 21.7761 18.7761 22 18.5 22H17V3Z" fill="white"/>
<path d="M4 20H18V22H4.5C4.22386 22 4 21.7761 4 21.5V20Z" fill="white"/>
<path d="M8.75 3H4.75C4.33579 3 4 3.33579 4 3.75C4 4.16421 4.33579 4.5 4.75 4.5H8.75C9.16421 4.5 9.5 4.16421 9.5 3.75C9.5 3.33579 9.16421 3 8.75 3Z" fill="#3E464A"/>
<path d="M12.75 9H4.75C4.33579 9 4 9.33579 4 9.75C4 10.1642 4.33579 10.5 4.75 10.5H12.75C13.1642 10.5 13.5 10.1642 13.5 9.75C13.5 9.33579 13.1642 9 12.75 9Z" fill="#3E464A"/>
<path d="M12.75 12H4.75C4.33579 12 4 12.3358 4 12.75C4 13.1642 4.33579 13.5 4.75 13.5H12.75C13.1642 13.5 13.5 13.1642 13.5 12.75C13.5 12.3358 13.1642 12 12.75 12Z" fill="#3E464A"/>
<path d="M12.75 6H4.75C4.33579 6 4 6.33579 4 6.75C4 7.16421 4.33579 7.5 4.75 7.5H12.75C13.1642 7.5 13.5 7.16421 13.5 6.75C13.5 6.33579 13.1642 6 12.75 6Z" fill="#3E464A"/>
<path d="M12.75 15H9.75C9.33579 15 9 15.3358 9 15.75C9 16.1642 9.33579 16.5 9.75 16.5H12.75C13.1642 16.5 13.5 16.1642 13.5 15.75C13.5 15.3358 13.1642 15 12.75 15Z" fill="#3E464A"/>
</svg>
